<svg xmlns="http://www.w3.org/2000/svg" version="1.0" width="902.000000pt" height="890.000000pt" viewBox="0 0 902.000000 890.000000" preserveAspectRatio="xMidYMid meet">

<g transform="translate(0.000000,890.000000) scale(0.100000,-0.100000)" fill="#ff4500" stroke="none">
<path d="M4686 8821 l-80 -6 2 -105 c1 -58 7 -206 13 -328 6 -123 8 -226 5 -230 -3 -3 -23 14 -43 38 -21 24 -48 53 -60 65 -13 12 -23 27 -23 34 0 6 -4 11 -8 11 -5 0 -31 28 -59 63 -28 34 -72 85 -97 112 -25 28 -48 58 -51 68 -4 9 -10 17 -13 17 -4 0 -52 54 -107 120 l-100 121 -115 -6 c-63 -3 -126 -8 -139 -11 l-23 -5 7 -157 c3 -86 11 -215 16 -287 5 -71 9 -200 9 -285 0 -85 4 -161 9 -169 7 -11 27 -12 102 -5 l94 9 -3 145 c-1 80 -7 230 -13 333 -9 167 -6 231 9 188 2 -7 12 -21 21 -30 9 -9 49 -57 90 -106 41 -50 84 -100 95 -112 12 -13 30 -33 42 -45 11 -13 76 -89 144 -170 68 -82 127 -148 131 -148 4 0 11 -9 14 -20 6 -18 15 -20 93 -20 48 0 111 3 141 7 l54 6 -6 141 c-3 78 -11 281 -18 451 -11 302 -15 328 -44 323 -5 -1 -46 -4 -89 -7z" fill="#ff4500"/>
<path d="M3260 8679 c-80 -20 -140 -40 -140 -46 0 -4 4 -20 9 -37 35 -115 72 -238 82 -276 7 -25 15 -49 18 -55 3 -5 13 -39 22 -75 9 -36 23 -85 32 -110 9 -25 30 -94 47 -155 17 -60 34 -121 38 -135 9 -29 18 -29 111 -6 100 26 101 26 61 146 -10 30 -24 75 -30 100 -6 25 -19 68 -29 95 -10 28 -24 75 -31 105 -7 30 -16 60 -20 65 -4 6 -14 39 -23 75 -8 36 -22 85 -30 110 -8 25 -26 81 -39 124 -13 44 -28 81 -33 82 -6 1 -26 -2 -45 -7z" fill="#ff4500"/>
<path d="M5420 8671 c-56 -12 -135 -58 -189 -113 -28 -28 -51 -55 -51 -60 0 -4 -11 -25 -24 -46 -14 -20 -28 -50 -31 -67 -4 -16 -16 -54 -26 -83 -44 -124 -14 -291 72 -394 40 -47 150 -128 174 -128 6 0 31 -10 56 -22 39 -20 60 -22 174 -23 120 0 133 2 172 24 24 14 46 22 49 18 4 -4 0 -30 -9 -58 -10 -28 -17 -57 -17 -64 0 -6 27 -19 60 -28 72 -20 80 -21 80 -4 0 6 7 26 16 42 8 17 22 53 29 80 19 68 63 199 88 263 13 32 17 56 11 62 -5 5 -34 16 -64 24 -66 19 -205 64 -240 78 -77 32 -147 51 -160 43 -8 -5 -50 -108 -50 -124 0 -9 67 -36 115 -46 17 -4 49 -15 72 -26 24 -10 49 -19 57 -19 8 0 17 -4 20 -9 11 -18 -7 -42 -53 -69 -40 -24 -56 -27 -126 -26 -60 1 -93 6 -130 23 -27 13 -65 29 -82 37 -18 7 -33 18 -33 23 0 5 -8 12 -17 15 -18 6 -45 45 -70 100 -16 35 -17 111 -2 157 59 182 150 244 320 218 155 -24 267 -113 285 -228 7 -43 23 -53 133 -87 62 -20 71 -9 71 84 0 112 -28 179 -108 259 -35 35 -68 63 -73 63 -4 0 -30 14 -56 30 -26 17 -54 30 -63 30 -9 0 -34 9 -57 20 -72 34 -230 49 -323 31z" fill="#ff4500"/>
<path d="M2600 8431 c-28 -20 -87 -57 -144 -91 l-39 -23 7 -126 c3 -69 10 -155 15 -191 15 -100 35 -389 29 -396 -7 -6 -72 28 -158 81 -30 19 -68 42 -85 50 -16 9 -50 29 -75 45 -25 17 -64 39 -87 50 -23 11 -45 25 -49 31 -3 6 -21 18 -38 26 -17 8 -49 25 -71 38 -51 31 -66 31 -103 0 -17 -14 -34 -25 -39 -25 -6 0 -28 -12 -50 -27 -21 -16 -48 -33 -59 -39 -25 -15 -22 -59 6 -89 11 -12 20 -24 20 -28 0 -7 132 -214 149 -234 6 -7 11 -16 11 -21 0 -5 12 -25 28 -45 15 -20 41 -59 57 -87 17 -28 35 -57 41 -64 7 -7 21 -31 33 -53 11 -23 25 -45 31 -48 6 -4 17 -21 24 -38 8 -18 25 -45 38 -61 23 -28 25 -28 54 -13 16 8 40 25 53 36 13 12 29 21 36 21 7 0 20 9 29 19 19 21 19 22 -70 155 -10 16 -23 36 -29 45 -5 9 -22 35 -37 58 -15 23 -28 45 -28 51 0 5 -9 17 -20 27 -11 10 -20 22 -20 27 0 5 -23 43 -50 85 -49 73 -57 100 -22 75 9 -7 26 -16 37 -21 11 -5 57 -32 103 -60 46 -28 85 -51 87 -51 2 0 40 -22 85 -50 45 -27 87 -50 95 -50 7 0 19 -7 26 -17 8 -9 33 -24 55 -35 23 -10 47 -25 54 -33 17 -21 38 -19 74 8 17 13 39 26 49 30 9 4 20 14 24 24 7 18 -13 338 -27 431 -5 31 -12 101 -16 156 -5 78 -4 98 6 94 7 -2 21 -19 31 -37 9 -18 24 -40 33 -50 9 -10 16 -22 16 -28 0 -5 14 -29 30 -51 17 -23 30 -45 30 -48 0 -3 13 -24 28 -47 15 -23 32 -49 37 -58 6 -9 27 -42 49 -74 21 -32 43 -69 49 -82 5 -13 16 -23 22 -23 16 0 124 65 148 89 18 17 17 19 -4 57 -13 21 -33 53 -46 70 -13 17 -23 34 -23 37 0 3 -24 42 -52 86 -29 45 -75 116 -101 158 -27 43 -57 92 -67 108 -11 17 -25 39 -32 50 -7 11 -23 34 -35 52 -13 17 -23 36 -23 42 0 5 -10 22 -23 38 -12 15 -29 40 -36 56 -16 31 -36 33 -71 8z" fill="#ff4500"/>
<path d="M6611 8223 c-17 -21 -31 -41 -31 -45 0 -4 -10 -18 -22 -31 -13 -13 -48 -59 -78 -101 -30 -42 -69 -96 -86 -119 -17 -23 -64 -87 -104 -142 -40 -55 -86 -117 -102 -137 -15 -20 -28 -40 -28 -44 0 -4 -11 -17 -25 -30 -33 -30 -32 -47 5 -76 17 -13 46 -35 64 -50 44 -37 66 -35 96 8 14 19 36 50 50 69 14 18 45 61 69 94 49 69 67 74 115 35 65 -54 176 -134 186 -134 5 0 14 -9 20 -20 6 -11 15 -20 21 -20 5 0 38 -22 72 -48 34 -27 69 -53 78 -58 9 -5 31 -21 49 -37 l32 -27 -18 -27 c-11 -14 -23 -33 -29 -42 -5 -9 -16 -23 -23 -31 -7 -8 -31 -40 -52 -70 -22 -30 -48 -67 -60 -82 -26 -34 -25 -46 5 -60 14 -6 25 -14 25 -18 0 -7 94 -70 105 -70 7 0 42 41 60 71 9 15 57 80 127 171 15 20 28 41 28 47 0 6 9 15 20 21 11 6 20 15 20 20 0 5 36 57 80 115 44 58 80 108 80 111 0 4 12 21 28 39 46 57 92 121 92 132 0 23 -147 130 -159 116 -28 -32 -161 -215 -161 -222 0 -4 -11 -18 -24 -30 l-25 -23 -58 43 c-58 45 -102 76 -132 94 -9 6 -32 24 -52 40 -20 17 -53 41 -73 55 -32 22 -186 137 -194 145 -2 1 10 21 25 43 15 22 48 68 72 103 24 35 57 79 73 97 15 18 28 37 28 42 0 5 -16 22 -36 37 -20 15 -51 40 -69 56 -18 15 -37 27 -43 27 -6 0 -24 -17 -41 -37z" fill="#ff4500"/>
<path d="M1215 7310 c-64 -25 -137 -99 -230 -229 -16 -23 -52 -71 -80 -107 -27 -35 -63 -82 -80 -104 -38 -51 -58 -77 -90 -116 -31 -39 -31 -45 -1 -64 14 -8 52 -36 85 -62 34 -27 66 -48 71 -48 6 0 10 -4 10 -10 0 -5 15 -20 34 -32 64 -44 161 -117 181 -138 12 -11 26 -20 32 -20 6 0 13 -4 15 -8 3 -9 160 -131 189 -148 11 -6 25 -18 32 -27 7 -9 23 -19 37 -22 23 -5 32 2 74 55 26 34 50 68 53 76 6 15 -17 37 -114 109 -35 26 -63 50 -63 54 0 7 27 44 73 101 7 8 36 48 66 88 30 39 57 72 60 72 3 0 33 -7 66 -14 33 -8 92 -18 131 -21 l70 -7 30 36 c16 20 39 48 52 62 12 14 22 28 22 31 0 4 8 15 17 25 10 11 13 22 7 27 -10 9 -117 27 -208 36 -32 3 -63 8 -67 11 -5 3 -9 32 -9 64 0 116 -89 240 -221 308 -57 28 -73 32 -144 31 -44 0 -89 -4 -100 -9z m147 -200 c40 -11 104 -75 114 -114 7 -28 -40 -124 -74 -151 -7 -6 -18 -20 -25 -32 -15 -27 -107 -147 -147 -192 l-30 -34 -28 26 c-16 15 -33 27 -39 27 -6 0 -13 4 -15 8 -1 4 -31 29 -66 55 -69 53 -69 55 -15 122 13 17 46 58 73 91 28 34 50 65 50 69 0 13 85 107 110 120 30 17 44 18 92 5z" fill="#ff4500"/>
<path d="M4463 7201 c-10 -11 -34 -46 -53 -78 -19 -32 -43 -67 -52 -77 -10 -11 -18 -24 -18 -29 0 -5 -10 -22 -22 -37 -13 -15 -32 -42 -43 -61 -22 -36 -22 -37 -80 -123 -22 -32 -48 -73 -59 -90 -10 -17 -27 -41 -37 -55 -10 -13 -19 -30 -19 -37 0 -7 -9 -18 -20 -24 -11 -6 -20 -15 -20 -20 0 -5 -21 -42 -47 -81 -27 -39 -65 -97 -85 -128 -21 -31 -38 -59 -38 -63 0 -5 275 -8 610 -8 l610 0 -19 38 c-11 21 -27 44 -35 51 -9 8 -16 17 -16 21 0 4 -19 36 -42 70 -24 34 -48 70 -53 80 -11 19 -20 33 -131 198 -38 57 -73 111 -79 120 -33 53 -77 119 -87 131 -7 8 -20 26 -28 41 -35 61 -56 94 -77 120 -13 15 -23 33 -23 38 0 21 -19 22 -37 3z" fill="#ff4500"/>
<path d="M7915 6929 c-49 -11 -124 -24 -165 -28 -41 -5 -120 -18 -175 -29 -55 -11 -127 -24 -160 -27 -33 -4 -89 -14 -125 -22 -36 -7 -81 -16 -100 -19 -19 -3 -50 -7 -67 -10 -18 -3 -33 -10 -33 -17 0 -12 62 -111 97 -155 l18 -23 100 22 c95 20 100 20 110 3 5 -9 18 -26 28 -36 9 -10 17 -20 17 -23 0 -2 21 -37 48 -76 26 -39 66 -100 88 -136 23 -35 49 -72 58 -82 9 -10 16 -22 16 -28 0 -12 -61 -105 -84 -128 -33 -33 -25 -89 18 -124 9 -8 16 -18 16 -24 0 -5 12 -25 26 -44 l26 -34 24 22 c13 12 24 27 24 33 0 6 14 29 30 50 17 22 30 43 30 48 0 5 9 18 20 30 10 11 26 35 34 53 9 18 22 38 31 45 8 7 15 16 15 21 0 5 13 28 28 51 16 24 52 78 80 120 29 43 52 79 52 81 0 2 23 38 50 80 28 42 50 80 50 85 0 5 7 15 15 22 8 6 25 31 38 54 l24 42 -39 60 c-21 32 -53 82 -70 111 -39 61 -49 63 -193 32z m75 -203 c0 -8 -10 -27 -23 -43 -13 -15 -26 -35 -30 -43 -3 -8 -37 -60 -74 -115 -47 -69 -74 -100 -87 -100 -19 0 -34 20 -96 125 -11 19 -32 50 -46 69 -13 19 -23 39 -21 45 2 6 55 18 118 27 63 10 139 24 169 32 73 19 90 20 90 3z" fill="#ff4500"/>
<path d="M467 6207 c-35 -75 -47 -106 -47 -120 0 -7 30 -25 68 -41 89 -39 188 -83 237 -107 22 -10 44 -19 48 -19 5 0 36 -13 70 -29 34 -16 91 -41 127 -56 102 -44 171 -74 227 -100 l53 -25 15 30 c8 16 15 34 15 40 0 7 8 24 19 38 10 15 21 39 25 55 6 24 3 29 -21 38 -30 10 -69 28 -173 78 -36 17 -70 31 -77 31 -7 0 -33 11 -59 25 -26 14 -54 25 -62 25 -9 0 -23 6 -31 13 -9 8 -32 20 -51 27 -19 7 -63 25 -97 41 -34 16 -65 29 -69 29 -4 0 -30 11 -58 24 -77 35 -110 49 -123 52 -7 1 -23 -21 -36 -49z" fill="#ff4500"/>
<path d="M3203 5893 c-3 -10 -19 -37 -35 -60 -15 -23 -28 -49 -28 -57 0 -9 -5 -16 -11 -16 -5 0 -16 -15 -24 -32 -7 -18 -25 -48 -39 -67 -14 -19 -26 -38 -26 -42 0 -5 -12 -27 -27 -51 -42 -65 -51 -80 -72 -118 -10 -19 -40 -66 -65 -105 -25 -38 -46 -74 -46 -78 0 -5 -11 -23 -25 -41 -14 -18 -25 -35 -25 -39 0 -3 -30 -54 -67 -114 -37 -59 -74 -123 -84 -141 -10 -18 -23 -40 -29 -48 -7 -8 -20 -27 -29 -43 -44 -79 -75 -132 -111 -190 -22 -34 -40 -65 -40 -68 0 -2 -13 -24 -30 -48 -16 -24 -30 -48 -30 -53 0 -5 -9 -17 -20 -27 -11 -10 -20 -23 -20 -30 0 -7 -13 -31 -30 -53 -16 -23 -30 -48 -30 -56 0 -7 -7 -20 -17 -27 -9 -8 -24 -33 -35 -55 -10 -23 -25 -47 -33 -54 -8 -7 -15 -17 -15 -22 0 -5 -13 -29 -30 -53 -16 -24 -30 -46 -30 -48 0 -3 -18 -34 -40 -68 -22 -35 -47 -77 -55 -94 -7 -16 -25 -45 -39 -64 -14 -19 -26 -40 -26 -47 0 -6 -7 -17 -16 -24 -8 -8 -22 -27 -30 -44 -8 -17 -28 -53 -44 -80 -17 -27 -29 -50 -27 -52 2 -3 461 -4 1020 -4 l1016 0 33 33 c18 18 89 93 158 167 69 73 150 158 180 189 30 31 97 100 149 154 51 53 97 97 101 97 4 0 95 -91 201 -202 107 -112 231 -241 276 -288 44 -47 95 -100 111 -117 l30 -33 1021 0 c579 0 1021 4 1021 9 0 5 -7 14 -15 21 -8 6 -17 20 -20 31 -4 11 -24 47 -46 82 -21 34 -48 78 -58 98 -11 19 -37 62 -58 95 -21 32 -44 70 -51 84 -7 14 -27 48 -45 77 -42 69 -98 162 -114 191 -7 13 -21 35 -33 49 -11 14 -20 31 -20 38 0 6 -9 20 -20 30 -11 10 -20 23 -20 30 0 6 -12 27 -26 46 -14 19 -32 48 -39 64 -8 17 -33 59 -55 94 -22 34 -40 65 -40 68 0 2 -13 24 -30 48 -16 24 -30 48 -30 53 0 5 -7 15 -15 22 -8 7 -24 31 -35 54 -12 22 -31 57 -43 77 -12 19 -38 62 -57 93 -19 32 -45 74 -58 94 -12 21 -31 53 -43 72 -11 19 -35 60 -54 90 -19 30 -44 74 -55 97 -12 23 -28 47 -36 54 -8 6 -14 17 -14 25 0 7 -6 19 -14 26 -7 8 -23 32 -35 54 -12 21 -37 64 -56 94 -19 30 -39 65 -45 78 -5 13 -21 38 -35 56 -14 18 -25 36 -25 40 0 4 -14 27 -31 52 l-30 44 -427 -2 -426 -3 -62 -90 c-34 -49 -76 -108 -93 -131 -17 -23 -31 -45 -31 -51 0 -5 -9 -18 -20 -28 -11 -10 -20 -22 -20 -28 0 -5 -12 -24 -27 -42 -16 -18 -39 -50 -53 -70 -14 -19 -36 -51 -50 -69 -14 -19 -30 -42 -35 -51 -10 -16 -12 -16 -25 -2 -13 13 -72 96 -130 182 -15 21 -46 65 -95 135 -13 19 -57 82 -98 140 l-73 105 -432 3 c-405 2 -433 1 -439 -15z m483 -625 c16 -24 35 -54 41 -68 7 -14 27 -45 43 -70 16 -25 36 -58 44 -75 8 -16 26 -45 40 -64 14 -19 26 -40 26 -47 0 -6 7 -17 15 -24 8 -7 23 -31 33 -54 11 -22 26 -47 35 -55 10 -7 17 -17 17 -22 0 -5 23 -46 50 -90 28 -44 50 -84 50 -87 0 -4 14 -25 30 -46 17 -22 30 -48 30 -58 0 -17 -23 -18 -490 -18 l-490 0 26 48 c14 26 52 90 85 142 32 52 68 114 79 136 11 23 27 47 35 54 8 7 15 17 15 22 0 5 14 29 30 53 17 24 30 51 30 59 0 9 4 16 10 16 5 0 19 19 31 43 12 23 28 49 36 58 8 9 22 32 32 50 10 19 28 51 39 72 19 35 41 67 47 67 1 0 15 -19 31 -42z m1650 -3 c13 -22 35 -61 49 -87 13 -26 29 -49 35 -53 6 -3 17 -21 26 -38 22 -47 46 -88 72 -124 12 -17 22 -34 22 -39 0 -4 10 -21 23 -38 12 -17 28 -42 35 -56 7 -14 26 -45 42 -70 26 -40 52 -83 100 -168 8 -15 23 -38 33 -52 36 -52 53 -50 -468 -50 -467 0 -485 1 -485 19 0 10 9 30 20 44 11 14 20 28 20 32 0 3 12 25 28 48 42 65 50 78 77 129 13 26 29 49 35 53 5 3 19 25 30 48 33 66 57 107 74 126 9 10 16 21 16 25 0 4 14 27 30 51 17 24 30 46 30 48 0 3 18 34 40 68 22 35 48 79 57 97 9 18 21 31 26 29 5 -1 20 -21 33 -42z" fill="#ff4500"/>
<path d="M8590 5903 c-14 -3 -50 -12 -80 -20 -30 -8 -80 -19 -110 -23 -30 -4 -75 -13 -100 -20 -25 -7 -88 -20 -140 -29 -52 -10 -106 -21 -120 -25 -70 -19 -101 -26 -173 -37 -103 -16 -114 -25 -99 -76 7 -22 12 -56 12 -75 0 -65 11 -70 125 -48 55 10 125 26 155 34 30 9 69 16 85 16 17 0 73 12 124 25 148 39 152 35 51 -44 -38 -30 -71 -60 -74 -68 -3 -7 -10 -13 -16 -13 -8 0 -185 -143 -318 -258 l-43 -38 12 -71 12 -71 51 -16 c28 -8 65 -18 81 -22 17 -3 55 -14 85 -24 30 -11 73 -22 95 -26 22 -4 69 -18 105 -31 36 -12 74 -23 85 -23 11 -1 51 -12 90 -25 63 -22 67 -25 45 -33 -44 -16 -194 -49 -405 -88 -108 -20 -160 -38 -158 -51 2 -7 8 -45 14 -85 7 -40 16 -78 20 -84 9 -12 68 -4 174 22 33 8 107 23 165 34 58 11 123 24 145 31 22 6 65 14 95 18 30 5 91 18 135 29 44 11 104 24 133 28 l54 7 -7 31 c-3 17 -13 71 -21 120 -18 110 -25 123 -72 135 -20 5 -64 17 -97 26 -33 9 -87 23 -120 31 -33 8 -80 21 -105 29 -25 8 -88 26 -140 40 -52 13 -117 31 -143 38 l-49 13 59 51 c57 49 330 271 446 362 57 45 58 46 51 86 -3 22 -10 47 -14 55 -4 8 -13 50 -20 93 -14 83 -12 82 -80 70z" fill="#ff4500"/>
<path d="M314 5570 c-23 -11 -51 -31 -62 -43 -27 -29 -72 -151 -72 -197 0 -19 -11 -88 -25 -152 -13 -65 -27 -146 -31 -180 -3 -35 -15 -97 -25 -138 -10 -41 -19 -92 -19 -112 0 -33 3 -37 33 -43 17 -3 61 -13 95 -21 35 -9 94 -19 130 -23 37 -4 117 -17 177 -29 61 -12 153 -29 205 -37 52 -9 109 -20 125 -25 17 -5 52 -10 78 -13 59 -6 60 -3 83 151 9 58 22 135 30 172 8 36 19 101 25 145 5 44 19 117 29 161 28 114 26 178 -6 242 -31 63 -86 104 -163 122 -65 15 -176 9 -217 -13 -79 -43 -73 -42 -97 -20 -73 67 -216 93 -293 53z m195 -216 c37 -31 39 -58 12 -176 -11 -46 -25 -121 -31 -168 -7 -47 -16 -102 -21 -123 l-10 -38 -52 7 c-114 14 -122 17 -125 51 -2 17 4 64 13 105 9 40 24 125 34 188 10 67 25 129 36 148 17 29 24 32 66 32 36 0 55 -6 78 -26z m375 -11 l29 -15 -6 -89 c-3 -49 -15 -133 -26 -187 -12 -53 -26 -135 -33 -182 -12 -81 -14 -85 -38 -84 -39 3 -154 26 -162 33 -4 4 -1 42 7 86 7 44 21 125 30 180 36 223 49 261 95 278 20 7 68 -2 104 -20z" fill="#ff4500"/>
<path d="M454 3738 c-87 -104 -119 -140 -152 -173 l-23 -23 42 -39 c24 -21 52 -47 63 -58 40 -38 191 -165 198 -165 3 0 59 62 124 138 65 75 122 140 127 143 16 12 4 25 -113 125 -63 55 -125 109 -138 122 -12 12 -28 22 -36 22 -7 0 -49 -42 -92 -92z" fill="#ff4500"/>
<path d="M8364 3794 c-21 -19 -85 -74 -141 -121 -57 -47 -103 -89 -103 -93 0 -8 220 -270 243 -289 15 -12 23 -8 70 33 28 25 93 81 144 123 51 43 92 84 92 91 1 6 -7 20 -16 30 -10 9 -40 44 -68 77 -27 32 -63 72 -78 89 -16 17 -40 46 -54 64 -14 17 -31 32 -37 32 -7 0 -30 -16 -52 -36z" fill="#ff4500"/>
<path d="M4430 3599 c-19 -28 -57 -79 -85 -114 -27 -36 -63 -83 -80 -105 -16 -23 -51 -68 -77 -100 -27 -33 -48 -63 -48 -68 0 -4 -13 -21 -30 -37 -16 -16 -30 -32 -30 -37 0 -4 -36 -52 -80 -107 -44 -54 -80 -103 -80 -108 0 -5 -10 -19 -22 -30 -13 -12 -34 -37 -48 -57 -14 -20 -37 -51 -52 -69 -15 -18 -28 -35 -28 -39 0 -4 -21 -33 -48 -65 -26 -32 -67 -85 -92 -118 -24 -33 -49 -65 -55 -72 -5 -6 -21 -28 -35 -48 -14 -21 -32 -45 -40 -54 -8 -9 -44 -55 -79 -101 -36 -47 -85 -112 -110 -145 -26 -33 -59 -77 -74 -98 l-29 -38 29 7 c15 3 57 19 92 35 35 16 70 29 77 29 8 0 25 7 37 15 13 8 50 24 82 35 32 11 69 27 82 35 12 8 29 15 37 15 9 0 39 11 69 24 49 23 72 32 180 72 23 8 65 26 92 38 28 12 66 28 85 35 19 7 69 26 110 43 41 16 100 39 130 50 30 11 60 25 66 29 6 5 33 16 59 23 42 13 53 13 94 -1 25 -8 63 -24 83 -34 21 -11 45 -19 56 -19 10 0 23 -5 28 -10 10 -10 93 -44 209 -87 22 -8 63 -25 92 -39 28 -13 58 -24 65 -24 7 0 27 -8 43 -18 17 -10 43 -22 60 -26 16 -4 54 -18 83 -32 29 -13 56 -24 60 -24 9 0 143 -56 195 -81 22 -11 43 -19 49 -19 5 0 41 -14 79 -31 106 -46 117 -38 59 41 -127 171 -207 274 -227 295 -13 12 -23 26 -23 30 0 4 -11 21 -26 39 -22 27 -38 48 -109 141 -8 11 -42 56 -75 100 -33 44 -70 91 -81 105 -11 14 -52 68 -91 120 -39 52 -107 142 -152 200 -45 58 -88 115 -96 126 -8 12 -42 57 -75 99 -33 43 -71 92 -85 111 -96 129 -166 214 -175 214 -5 -1 -26 -24 -45 -51z" fill="#ff4500"/>
<path d="M1351 2777 c-48 -31 -69 -45 -152 -104 -41 -28 -89 -62 -107 -75 -19 -13 -49 -35 -67 -50 -18 -16 -37 -28 -42 -28 -6 0 -18 -9 -28 -20 -10 -11 -22 -20 -26 -20 -8 0 -78 -50 -124 -88 -11 -9 -32 -23 -46 -32 -44 -25 -107 -69 -113 -78 -5 -9 52 -97 92 -141 16 -18 27 -22 36 -16 7 6 26 19 42 30 16 11 53 37 82 58 30 21 55 37 56 35 29 -36 106 -140 121 -162 11 -16 29 -41 40 -56 11 -15 41 -59 68 -96 29 -43 67 -82 99 -104 51 -35 53 -35 159 -35 96 0 111 2 138 23 16 12 33 22 37 22 22 0 109 83 141 134 33 53 38 71 41 133 5 86 -7 126 -62 205 -62 92 -69 102 -98 146 -15 22 -32 43 -38 47 -6 4 -16 17 -21 28 -5 12 -23 40 -39 62 -35 46 -98 137 -120 174 -21 34 -29 35 -69 8z m38 -310 c33 -51 45 -68 141 -199 80 -110 84 -176 15 -231 -72 -57 -140 -57 -192 2 -18 20 -32 42 -33 48 0 7 -9 18 -20 25 -11 7 -20 17 -20 23 0 5 -10 21 -21 35 -11 14 -31 41 -44 60 -13 19 -40 58 -59 85 l-35 50 31 25 c34 26 50 38 116 82 22 15 43 32 47 38 14 23 42 7 74 -43z" fill="#ff4500"/>
<path d="M7554 2756 c-16 -19 -40 -51 -54 -71 -14 -20 -38 -52 -53 -70 l-28 -34 20 -98 c11 -54 24 -136 31 -183 6 -47 13 -97 16 -112 7 -36 4 -37 -305 -73 -76 -9 -127 -19 -132 -27 -5 -7 -15 -22 -24 -33 -42 -52 -125 -165 -125 -170 0 -3 9 -5 21 -5 11 0 18 3 16 8 -3 4 34 8 82 10 47 2 166 14 263 28 97 14 192 24 209 22 l33 -3 18 -90 c10 -49 25 -142 33 -205 8 -63 22 -146 30 -185 8 -38 15 -82 15 -97 0 -16 4 -28 9 -28 5 0 28 28 52 61 24 34 51 69 60 78 43 47 48 63 43 125 -3 34 -17 117 -30 185 -29 151 -30 186 -7 196 10 3 70 11 133 16 182 15 259 28 285 46 14 10 25 21 25 24 0 3 29 43 64 90 36 46 61 87 57 92 -4 4 -30 3 -57 -2 -96 -19 -459 -63 -529 -65 l-40 -1 -7 75 c-4 41 -17 122 -27 180 -11 58 -23 128 -26 155 -11 98 -29 195 -36 195 -4 0 -20 -15 -35 -34z" fill="#ff4500"/>
<path d="M2030 1854 c-14 -20 -39 -54 -55 -77 -17 -23 -34 -49 -38 -57 -4 -8 -21 -33 -38 -55 -16 -22 -41 -56 -54 -75 -14 -19 -35 -49 -47 -66 -35 -48 -102 -145 -114 -166 -6 -10 -18 -26 -27 -36 -10 -10 -17 -22 -17 -26 0 -5 -12 -23 -27 -42 -60 -72 -75 -95 -70 -107 6 -15 140 -107 156 -107 6 0 22 17 36 38 32 48 124 180 152 218 17 22 25 27 36 19 41 -28 206 -147 275 -197 42 -32 82 -58 89 -58 7 0 17 -9 23 -20 6 -11 15 -20 21 -20 18 0 89 -63 89 -78 0 -9 -6 -23 -14 -31 -8 -9 -51 -67 -95 -130 -78 -109 -80 -115 -64 -133 23 -25 132 -98 147 -98 6 1 34 35 61 77 68 104 72 110 140 203 33 46 84 117 113 159 51 74 79 113 124 177 51 72 88 125 88 129 0 2 -17 14 -37 26 -21 13 -40 26 -43 29 -13 15 -69 50 -82 50 -12 0 -25 -17 -78 -96 -8 -12 -37 -53 -64 -90 -26 -37 -50 -74 -53 -81 -7 -19 -21 -16 -53 10 -15 12 -40 30 -56 39 -49 29 -68 42 -101 68 -17 14 -48 36 -68 50 -20 14 -52 37 -70 53 -18 15 -35 27 -39 27 -3 0 -26 15 -50 33 -24 17 -55 41 -70 51 -14 10 -26 23 -26 28 0 8 75 121 132 197 15 20 35 49 44 65 16 28 15 30 -7 48 -13 11 -40 30 -61 43 -20 13 -39 29 -43 35 -12 20 -40 9 -65 -26z" fill="#ff4500"/>
<path d="M6583 1679 c-79 -65 -79 -68 -31 -119 12 -14 30 -35 38 -47 21 -29 208 -272 276 -358 30 -38 63 -81 72 -95 33 -50 126 -160 134 -160 14 0 135 99 142 115 3 8 -7 29 -22 48 -22 26 -77 97 -124 162 -4 5 -20 25 -34 43 -15 18 -53 68 -85 110 -31 42 -67 88 -79 102 -38 45 -160 204 -178 232 -9 16 -21 28 -27 27 -5 0 -43 -27 -82 -60z" fill="#ff4500"/>
<path d="M6215 1397 c-11 -7 -38 -19 -60 -25 -22 -6 -48 -17 -58 -24 -17 -12 -17 -15 3 -55 11 -23 20 -47 20 -52 0 -6 9 -26 20 -46 11 -20 20 -40 20 -45 0 -5 11 -33 24 -63 14 -29 31 -71 39 -92 8 -22 31 -78 52 -125 49 -113 58 -140 52 -147 -6 -6 -115 45 -123 58 -2 5 -24 18 -47 29 -46 23 -83 44 -137 76 -19 12 -60 35 -90 51 -30 16 -74 41 -97 56 -24 15 -49 27 -57 27 -7 0 -19 7 -26 15 -7 8 -31 24 -54 36 -22 11 -58 29 -79 41 -43 23 -49 22 -202 -44 -74 -32 -80 -36 -77 -62 2 -15 12 -43 22 -62 11 -19 20 -40 20 -47 0 -7 13 -39 30 -72 16 -33 30 -66 30 -73 0 -7 11 -34 25 -60 14 -26 25 -54 25 -62 0 -8 11 -35 25 -59 14 -23 25 -49 25 -57 0 -8 14 -41 30 -74 17 -33 30 -67 30 -77 0 -10 7 -26 15 -37 7 -10 21 -42 31 -72 24 -77 30 -80 105 -44 35 16 71 30 80 30 28 0 30 29 7 83 -12 29 -25 56 -30 62 -4 5 -8 17 -8 27 0 9 -8 32 -18 50 -11 18 -25 51 -32 73 -7 22 -21 56 -30 75 -10 19 -23 49 -28 65 -6 17 -27 68 -46 115 -20 46 -36 88 -36 92 0 4 24 -5 53 -22 28 -16 71 -39 94 -50 23 -11 45 -25 48 -30 3 -5 25 -19 48 -30 23 -11 65 -34 92 -50 28 -17 66 -37 85 -46 19 -9 42 -22 50 -29 8 -7 51 -32 95 -55 44 -23 85 -46 91 -51 6 -5 31 -20 56 -33 44 -23 45 -23 79 -5 19 10 43 18 54 19 11 0 29 7 40 16 11 8 35 19 55 24 20 5 43 15 53 22 16 12 16 15 -3 53 -11 21 -20 45 -20 52 0 8 -7 24 -15 36 -8 13 -24 50 -35 82 -11 32 -27 69 -35 82 -8 12 -15 28 -15 34 0 11 -19 58 -79 194 -24 54 -61 143 -74 180 -6 17 -22 54 -35 83 -25 54 -42 63 -77 39z" fill="#ff4500"/>
<path d="M3245 1125 c-27 -6 -59 -15 -70 -20 -31 -13 -120 -87 -138 -115 -9 -14 -21 -32 -27 -40 -26 -39 -64 -142 -77 -205 -50 -261 38 -428 272 -518 118 -45 140 -49 275 -50 123 -2 139 0 182 21 64 32 141 102 173 160 15 26 41 88 57 137 27 78 31 104 31 200 1 106 0 112 -34 173 -74 138 -226 227 -447 261 -86 13 -130 12 -197 -4z m211 -201 c90 -19 188 -64 218 -102 40 -48 45 -67 45 -147 1 -69 -4 -90 -32 -150 -65 -144 -152 -181 -324 -140 -130 31 -212 94 -233 181 -18 72 7 194 55 269 35 56 55 72 115 91 49 17 67 16 156 -2z" fill="#ff4500"/>
<path d="M4690 969 c-74 -3 -211 -7 -304 -8 l-169 -1 7 -152 c4 -84 11 -289 15 -454 5 -166 12 -307 16 -314 8 -13 68 -11 430 10 88 5 213 12 278 16 l117 6 0 89 c0 78 -2 89 -17 89 -10 0 -150 -5 -312 -10 -227 -8 -296 -8 -302 1 -4 7 -6 49 -6 93 l2 81 130 8 c72 4 211 11 310 15 l180 7 3 74 c2 41 -1 77 -5 81 -4 4 -145 3 -312 -1 -241 -7 -306 -7 -313 3 -4 7 -8 48 -8 90 l0 77 43 5 c23 3 112 8 197 12 398 18 385 16 388 43 2 14 1 53 -3 88 l-7 63 -111 -2 c-62 -1 -173 -5 -247 -9z" fill="#ff4500"/>
</g>
</svg>