<svg width="108" height="104" viewBox="0 0 108 104" fill="none" xmlns="http://www.w3.org/2000/svg">
<g clip-path="url(#clip0_2900_17813)">
<path d="M104.829 39.7185H78.0962L77.8236 36.9068C73.5954 35.6444 69.0121 34.7048 64.1921 34.1561L53.9998 2.79016L43.7895 34.2099C39.1273 34.7658 34.691 35.6874 30.5883 36.9104L30.2978 39.722H3.1709L8.0447 46.8409L13.9155 51.105C13.5891 51.2843 13.27 51.4672 12.9544 51.6537L8.41768 79.1715L11.3907 80.8176C16.5945 77.9952 23.3547 75.5422 30.9254 73.8171L22.5872 99.4772L25.5997 100.865L53.9998 80.2295L82.3998 100.865L85.4123 99.4772L77.0777 73.8207C84.7273 75.5816 91.5521 78.092 96.7917 80.9432L99.7647 79.3042L95.3787 51.6501C95.0021 51.4278 94.6184 51.2126 94.2275 50.9974L99.9548 46.8373L104.829 39.7185Z" fill="#007A33"/>
<path d="M22.584 99.47L25.6001 100.858L54.0001 80.2223V76.6467L22.584 99.47Z" fill="url(#paint0_linear_2900_17813)"/>
<path d="M85.4125 99.47L82.4 100.858L54 80.2223V76.6467L85.4125 99.47Z" fill="url(#paint1_linear_2900_17813)"/>
<path d="M3.1709 39.7184L8.0447 46.8373L13.9155 51.1014C14.8372 50.5886 15.7983 50.0937 16.7953 49.6167L3.1709 39.7184Z" fill="url(#paint2_linear_2900_17813)"/>
<path d="M104.829 39.7184L91.3408 49.5198C92.3378 49.9932 93.3025 50.4882 94.2278 50.9974L99.9551 46.8373L104.829 39.7184Z" fill="url(#paint3_linear_2900_17813)"/>
<path d="M64.1926 34.1561L54.0003 2.79016L43.79 34.2099C47.1612 33.8082 50.6471 33.5894 54.2155 33.5894C57.7838 33.5894 60.9613 33.7867 64.1926 34.1561Z" fill="url(#paint4_linear_2900_17813)"/>
<path d="M30.2978 39.7184H3.1709L16.7953 49.6167C20.6434 47.7697 25.0116 46.1953 29.7598 44.958L30.2978 39.7148V39.7184Z" fill="url(#paint5_linear_2900_17813)"/>
<path d="M30.9222 73.81L22.584 99.4701L53.9965 76.6468L85.4091 99.4701L77.0745 73.8136C69.9413 72.171 62.0908 71.1812 54.1292 71.1812C46.1676 71.1812 38.1307 72.1639 30.9186 73.8064L30.9222 73.81Z" fill="url(#paint6_linear_2900_17813)"/>
<path d="M23.9037 100.076L22.584 99.4701L47.1144 81.6497L23.9037 100.076Z" fill="#78BE20"/>
<path d="M84.0964 100.08L85.4126 99.4701L60.8857 81.6497L84.0964 100.08Z" fill="#78BE20"/>
<path d="M27.705 93.4558L27.3535 94.5389L53.9998 75.18L80.6462 94.5389L80.2911 93.4558L53.9998 74.3551L27.705 93.4558Z" fill="#006834"/>
<path d="M33.0235 73.3545L26.1162 94.6142L53.9998 74.3551L81.8834 94.6142L74.9762 73.3545C68.4168 71.9917 61.3195 71.1848 54.1325 71.1848C46.9455 71.1848 39.6617 71.9845 33.0235 73.3509V73.3545Z" fill="url(#paint7_linear_2900_17813)"/>
<path d="M30.1078 41.5726H8.88037L18.732 48.7273C22.0888 47.2605 25.7934 45.9909 29.7599 44.9581L30.1078 41.5726Z" fill="url(#paint8_linear_2900_17813)"/>
<path d="M78.6017 44.9581C82.4821 45.9694 86.1043 47.2067 89.3966 48.634L99.1155 41.5726H78.2754L78.6053 44.9581C78.6053 44.9581 78.6053 44.9581 78.5982 44.9581H78.6017Z" fill="url(#paint9_linear_2900_17813)"/>
<path d="M62.1733 33.9445L54.0001 8.79364L45.8125 33.9875C48.5489 33.7257 51.3569 33.5858 54.2152 33.5858C56.9193 33.5858 59.5768 33.7078 62.1733 33.9445Z" fill="url(#paint10_linear_2900_17813)"/>
<path d="M61.083 33.8584L54 12.0536V33.5894C54.0717 33.5894 54.1435 33.5894 54.2152 33.5894C56.5427 33.5894 58.8344 33.6827 61.083 33.8584Z" fill="url(#paint11_linear_2900_17813)"/>
<path d="M96.017 42.5803L83.8594 46.5217C85.3979 47.0381 86.8826 47.5904 88.31 48.1786L96.0134 42.5803H96.017Z" fill="url(#paint12_linear_2900_17813)"/>
<path d="M53.9997 71.1848V73.107L79.9682 91.9746L65.336 71.8195C61.6708 71.4107 57.9123 71.1848 54.1288 71.1848C54.0857 71.1848 54.0391 71.1848 53.9961 71.1848H53.9997Z" fill="url(#paint13_linear_2900_17813)"/>
<path d="M28.0312 91.9747L42.6527 71.8303C39.7513 72.1531 36.911 72.5906 34.1567 73.125L28.0312 91.9711V91.9747Z" fill="url(#paint14_linear_2900_17813)"/>
<path d="M30.0037 42.5803H11.9824L24.3229 46.5791C26.0731 45.9909 27.8877 45.4458 29.7634 44.958L30.0072 42.5803H30.0037Z" fill="url(#paint15_linear_2900_17813)"/>
<path d="M78.6019 44.958C80.413 45.4314 82.1667 45.9515 83.8595 46.5217L96.0171 42.5803H78.376L78.6091 44.958C78.6091 44.958 78.6091 44.958 78.6019 44.958Z" fill="url(#paint16_linear_2900_17813)"/>
<path d="M79.9681 91.9746L73.8427 73.1249C71.0848 72.5834 68.2409 72.1423 65.3359 71.8195L79.9681 91.9746Z" fill="url(#paint17_linear_2900_17813)"/>
<path d="M28.0312 91.9746L53.9998 73.107V71.1848C50.1696 71.1883 46.3645 71.4179 42.6527 71.8303L28.0312 91.9746Z" fill="url(#paint18_linear_2900_17813)"/>
<path d="M11.9824 42.5803L19.8149 48.2682C21.2602 47.6693 22.7665 47.1027 24.3229 46.5791L11.9824 42.5803Z" fill="url(#paint19_linear_2900_17813)"/>
<path d="M53.9997 12.0536L46.9023 33.8943C49.2227 33.7006 51.5932 33.5966 53.9997 33.593V12.0536Z" fill="url(#paint20_linear_2900_17813)"/>
<path d="M96.0167 42.5803L83.2314 46.3101C83.4502 46.3818 83.6654 46.4535 83.8806 46.5253L96.0202 42.5803H96.0167Z" fill="url(#paint21_linear_2900_17813)"/>
<path d="M11.9824 42.5803L23.6523 46.8086C23.8675 46.7333 24.0862 46.6615 24.305 46.5862L11.9824 42.5803Z" fill="url(#paint22_linear_2900_17813)"/>
<path d="M28.0312 91.9746L43.6963 71.7191C43.3484 71.755 43.0005 71.7908 42.6527 71.8303L28.0312 91.9746Z" fill="url(#paint23_linear_2900_17813)"/>
<path d="M79.9678 91.9747L66.3147 71.9307C65.9848 71.8913 65.6512 71.8554 65.3213 71.816L79.9678 91.9747Z" fill="url(#paint24_linear_2900_17813)"/>
<path d="M95.3786 51.6465C90.7128 48.9137 85.0034 46.6257 78.6018 44.958C78.6018 44.958 78.6054 44.958 78.609 44.958L77.8236 36.9068C70.7622 34.798 62.7181 33.5894 54.2149 33.5894C45.7117 33.5894 37.6605 34.8016 30.5882 36.9068L29.7598 44.958C23.3511 46.6257 17.6309 48.9137 12.9508 51.6465L8.41406 79.1643L11.3871 80.8104C21.5436 75.3019 37.6246 71.1848 54.1324 71.1848C70.6402 71.1848 86.6639 75.4274 96.7916 80.936L99.7647 79.297L95.3786 51.6429V51.6465Z" fill="url(#paint25_linear_2900_17813)"/>
<path d="M78.609 44.9616L77.8236 36.9104C70.7621 34.8016 62.718 33.593 54.2149 33.593C45.7117 33.593 37.6604 34.8052 30.5882 36.9104L29.7598 44.9616C37.1619 43.0358 45.4822 41.9348 54.1933 41.9348C62.9045 41.9348 71.2176 43.0358 78.609 44.9616Z" fill="url(#paint26_linear_2900_17813)"/>
<g style="mix-blend-mode:multiply" opacity="0.4">
<path d="M30.9255 73.81L30.0684 76.4567C37.5064 74.9899 45.7549 74.1076 54.1325 74.1076C62.5102 74.1076 70.5758 74.997 77.9385 76.4638L77.0814 73.8207C69.9482 72.1782 62.0977 71.1884 54.1361 71.1884C46.1745 71.1884 38.1376 72.171 30.9291 73.8135L30.9255 73.81Z" fill="black"/>
</g>
<path d="M54.1363 68.8716C36.4809 68.8716 19.2809 73.2756 8.41797 79.1679L11.391 80.8141C21.5475 75.3055 37.6285 71.1884 54.1363 71.1884C70.6441 71.1884 86.6678 75.431 96.7955 80.9396L99.7686 79.3006C88.9343 73.4083 71.7953 68.868 54.1399 68.868L54.1363 68.8716Z" fill="url(#paint27_linear_2900_17813)"/>
<path d="M54.1363 68.8716C36.4809 68.8716 19.2809 73.2756 8.41797 79.1679L8.65467 79.3006C19.5965 73.5051 36.6387 69.198 54.1363 69.198C71.634 69.198 88.6187 73.6343 99.5283 79.4333L99.7686 79.3006C88.9343 73.4083 71.7953 68.868 54.1399 68.868L54.1363 68.8716Z" fill="url(#paint28_linear_2900_17813)"/>
<path d="M8.41406 79.1679C19.2806 73.2756 36.477 68.8716 54.1324 68.8716C71.7878 68.8716 88.9304 73.4119 99.7611 79.3042L95.375 51.6501C85.319 45.7578 70.4358 41.9384 54.1898 41.9384C37.9438 41.9384 23.0391 45.7614 12.9508 51.6501L8.41406 79.1679Z" fill="url(#paint29_linear_2900_17813)"/>
<path d="M54.448 42.6234C38.514 42.6234 23.9141 46.3208 14.0554 52.0231L14.041 52.1092C23.9141 46.6078 38.2594 43.0609 53.8922 43.0609C69.5249 43.0609 84.4583 46.7584 94.3028 52.4606C94.3028 52.4606 97.5986 73.7669 97.8245 73.8853L94.812 52.0267C84.9712 46.3244 70.382 42.6269 54.4516 42.6269L54.448 42.6234Z" fill="url(#paint30_linear_2900_17813)"/>
<path d="M11.4053 75.3808C21.7088 70.134 37.1658 66.7306 54.1255 66.7306C71.0852 66.7306 86.5207 70.134 96.7955 75.3808L93.3203 52.6363C83.8453 47.3896 69.6973 43.9861 54.19 43.9861C38.6828 43.9861 24.5133 47.3896 15.0095 52.6363L11.4053 75.3808Z" fill="url(#paint31_linear_2900_17813)"/>
<path d="M96.7953 75.3808L93.3201 52.6363C83.8451 47.3896 69.6971 43.9861 54.1898 43.9861C38.6826 43.9861 24.5131 47.3896 15.0094 52.6363L14.9807 52.8264C24.4987 47.7554 38.4388 44.4846 53.6698 44.4846C68.9009 44.4846 83.3789 47.8881 92.8611 53.1348L96.0924 74.5702C85.8391 69.5028 70.7156 66.2356 54.1289 66.2356C37.5422 66.2356 21.7731 69.6391 11.4876 74.8858L11.4087 75.3843C21.7122 70.1376 37.1692 66.7341 54.1289 66.7341C71.0886 66.7341 85.8965 70.0049 96.1677 75.0687V75.0759C96.3793 75.1799 96.5945 75.2803 96.7989 75.3843L96.7953 75.3808Z" fill="#B3B3B3"/>
<path d="M49.9866 38.3234C49.9293 38.2911 49.8575 38.2803 49.7751 38.2803L49.377 38.2983L49.3662 38.6712H49.4164C49.4989 38.6641 49.5706 38.6784 49.628 38.7107C49.6854 38.743 49.7141 38.7824 49.7105 38.829L49.689 39.7687H49.7356C49.8181 39.7615 49.8898 39.7436 49.9508 39.7077C50.0082 39.6718 50.0404 39.6324 50.0404 39.5822L50.0655 38.4417C50.0655 38.3951 50.0404 38.3556 49.9831 38.3234H49.9866Z" fill="#006838"/>
<path d="M50.0293 36.3258C49.9719 36.2935 49.9038 36.2828 49.8213 36.2828L49.4268 36.3007L49.416 36.6737H49.4626C49.5451 36.6701 49.6133 36.6809 49.6706 36.7131C49.728 36.7454 49.7567 36.7849 49.7531 36.8315L49.7388 37.5057H49.789C49.8715 37.4985 49.9432 37.4806 50.0006 37.4447C50.058 37.4089 50.0902 37.3658 50.0902 37.3192L50.1082 36.4442C50.1082 36.3975 50.0831 36.3581 50.0257 36.3258H50.0293Z" fill="#006838"/>
<path d="M59.9994 40.572C59.8094 40.6114 59.6049 40.6258 59.3862 40.615L58.9092 40.5935C58.6904 40.5828 58.486 40.5505 58.2923 40.4931C58.0987 40.4357 57.9301 40.364 57.7867 40.2779C57.6432 40.1919 57.5285 40.0878 57.446 39.9767C57.3599 39.8619 57.3169 39.7436 57.3169 39.6216L57.2738 35.8596L57.0838 35.8524C56.969 35.8488 56.9116 35.8775 56.9152 35.9457L56.9618 40.0125C56.9618 40.1381 57.0049 40.2564 57.0909 40.3676C57.1734 40.4823 57.2882 40.5828 57.4316 40.6688C57.5751 40.7549 57.7436 40.8302 57.9373 40.884C58.131 40.9414 58.3354 40.9737 58.5541 40.9808L59.0311 41.0024C59.2499 41.0131 59.4543 40.9988 59.6444 40.9593C59.838 40.9199 60.003 40.8625 60.1429 40.7872C60.2827 40.7119 60.3939 40.6222 60.4728 40.5146C60.5087 40.468 60.5374 40.4142 60.5553 40.364C60.5374 40.3748 60.5194 40.3891 60.4979 40.3999C60.3581 40.4752 60.1931 40.5325 59.9994 40.572Z" fill="#006838"/>
<path d="M59.3931 39.7974C59.4505 39.7651 59.4792 39.7256 59.4792 39.679L59.4003 35.9528L59.2066 35.9457C59.0919 35.9421 59.0381 35.9708 59.0381 36.0389L59.117 39.8368H59.1815C59.264 39.844 59.3358 39.8297 59.3931 39.7974Z" fill="#006838"/>
<path d="M55.2293 40.425C55.0356 40.4716 54.8312 40.4967 54.616 40.4931H54.1391C53.9203 40.4931 53.7159 40.468 53.5258 40.4178C53.3321 40.3712 53.1672 40.303 53.0273 40.2241C52.8874 40.1417 52.7727 40.0484 52.6938 39.9372C52.6113 39.8296 52.5718 39.7113 52.5718 39.5858L52.6077 36.272C52.6077 36.1967 52.6256 36.1286 52.6543 36.0604C52.5432 36.1322 52.4499 36.2146 52.3782 36.3115C52.2957 36.4226 52.2527 36.5374 52.2527 36.6629L52.2168 39.9767C52.2168 40.1022 52.2563 40.217 52.3387 40.3281C52.4212 40.4393 52.5324 40.5361 52.6723 40.615C52.8121 40.6975 52.9807 40.7621 53.1708 40.8087C53.3608 40.8553 53.5688 40.8804 53.784 40.8804H54.261C54.4798 40.8804 54.6842 40.8589 54.8743 40.8123C55.0643 40.7657 55.2329 40.7011 55.3763 40.6186C55.5162 40.5361 55.631 40.4429 55.7135 40.3317C55.7457 40.2887 55.7744 40.2385 55.7924 40.1919C55.7744 40.2026 55.7529 40.217 55.7314 40.2277C55.5879 40.3066 55.423 40.3712 55.2293 40.4214V40.425Z" fill="#006838"/>
<path d="M54.6448 36.1931C54.5874 36.1608 54.5157 36.1429 54.4368 36.1429H54.34C54.2575 36.1429 54.1894 36.1572 54.132 36.1931C54.0746 36.2254 54.0459 36.2648 54.0459 36.315V36.5338H54.0853C54.1678 36.5338 54.236 36.5517 54.2934 36.584C54.3507 36.6199 54.3794 36.6593 54.3794 36.7059V39.7292H54.4332C54.5157 39.7292 54.5874 39.7149 54.6448 39.679C54.7022 39.6467 54.7309 39.6037 54.7309 39.5571V36.315C54.7309 36.2684 54.7058 36.2254 54.6484 36.1931H54.6448Z" fill="#006838"/>
<path d="M32.7612 42.4441L33.2239 37.8536L33.0768 37.8823C32.9621 37.9038 32.9011 37.9468 32.8939 38.015L32.4098 42.8314C32.4026 42.8995 32.46 42.921 32.5783 42.8995L33.7905 42.6808C33.9089 42.6592 33.9698 42.6162 33.977 42.5481L33.9985 42.3185L32.9334 42.5086C32.815 42.5301 32.7576 42.5086 32.7648 42.4405L32.7612 42.4441Z" fill="#006838"/>
<path d="M39.0622 41.3753L39.3922 36.8028L39.2344 36.8243C39.1196 36.8387 39.0587 36.8781 39.0551 36.9462L38.7072 41.7627C38.7036 41.8308 38.7574 41.8559 38.8758 41.8416L41.6049 41.4973C41.7233 41.4829 41.7843 41.4399 41.7878 41.3753L41.8022 41.1315L39.2308 41.4542C39.1125 41.4686 39.0587 41.4435 39.0622 41.3753Z" fill="#006838"/>
<path d="M34.4395 40.9521L34.8411 41.9886C34.8555 42.0101 34.877 42.0173 34.9021 42.0137C34.9272 42.0101 34.9487 41.9922 34.9666 41.9671L35.1746 41.5439L34.5399 39.8978L34.4395 40.9521Z" fill="#006838"/>
<path d="M36.1183 41.8416L36.312 39.575L35.9211 40.364L35.7633 42.2289C35.7561 42.297 35.8135 42.3185 35.9319 42.297L37.1404 42.0783C37.2588 42.0567 37.3198 42.0137 37.3233 41.9456L37.3413 41.716L36.2869 41.9061C36.1685 41.9276 36.1148 41.9061 36.1183 41.838V41.8416Z" fill="#006838"/>
<path d="M36.5201 37.2475L36.4878 37.2547C36.4376 37.2654 36.3945 37.2834 36.3551 37.3121C36.3156 37.3407 36.287 37.3694 36.269 37.3945L35.3438 39.5033L35.4226 39.7507L36.5201 37.2475Z" fill="#006838"/>
<path d="M65.0129 39.0335C65.0595 39.0048 65.1025 38.9725 65.1456 38.9402C65.2424 38.8577 65.3034 38.7645 65.3321 38.6641C65.2101 38.7322 65.0631 38.786 64.8945 38.8219L65.0129 39.0335Z" fill="#006838"/>
<path d="M44.8291 40.8374H44.8147L43.6958 40.9342C43.5775 40.9414 43.5201 40.9163 43.5237 40.8481L43.7604 36.2899L43.5954 36.3043C43.4806 36.315 43.4197 36.3509 43.4161 36.419L43.165 41.2354C43.165 41.3036 43.2188 41.3323 43.3372 41.3215L44.4561 41.2283H44.4669H44.492L46.1883 41.0848C46.3067 41.0741 46.364 41.0382 46.3676 40.9701L46.3784 40.7118L44.8506 40.841H44.8255L44.8291 40.8374Z" fill="#006838"/>
<path d="M50.5278 40.4285C50.3342 40.4859 50.1297 40.5182 49.911 40.5254L48.0282 40.6043C47.9098 40.6079 47.8524 40.5792 47.856 40.511L48.0031 35.9672L47.8309 35.9743C47.7162 35.9779 47.6588 36.0138 47.6552 36.0819L47.501 40.9019C47.501 40.9701 47.5548 40.9988 47.6731 40.9952L49.5559 40.9163C49.7711 40.9091 49.9791 40.8732 50.1728 40.8194C50.3664 40.7657 50.535 40.6939 50.6785 40.6043C50.8219 40.5182 50.9367 40.4178 51.0227 40.303C51.055 40.26 51.0801 40.2169 51.0981 40.1739C51.0765 40.1883 51.0586 40.2026 51.0371 40.2169C50.8936 40.303 50.7251 40.3747 50.5314 40.4321L50.5278 40.4285Z" fill="#006838"/>
<path d="M40.6582 39.3276L41.5548 39.2128C41.6695 39.1984 41.7305 39.1554 41.7341 39.0909L41.7484 38.847L40.6797 38.9833L40.6582 39.3276Z" fill="#006838"/>
<path d="M40.7803 37.4591L41.8526 37.3228C41.9673 37.3084 42.0283 37.2654 42.0319 37.2008L42.0462 36.957L40.8018 37.1148L40.7803 37.4591Z" fill="#006838"/>
<path d="M73.7527 38.5565L74.7676 38.7537C74.8823 38.7753 74.9397 38.7537 74.9326 38.6856L74.9003 38.3198L73.7168 38.0903L73.7562 38.5565H73.7527Z" fill="#006838"/>
<path d="M64.6934 40.9127C64.6468 40.8876 64.6145 40.8625 64.5966 40.8302L63.6104 38.994L63.657 40.1309L64.2415 41.2211C64.2595 41.2534 64.2918 41.2785 64.3384 41.3036C64.385 41.3251 64.4352 41.3395 64.4854 41.3466L65.6294 41.4471C65.737 41.4578 65.7801 41.4255 65.7514 41.3574L65.5613 41.0203L64.844 40.9557C64.7938 40.9521 64.7436 40.9378 64.697 40.9127H64.6934Z" fill="#006838"/>
<path d="M72.5946 41.8882L72.2359 37.434L72.0136 37.3909C71.8988 37.3694 71.845 37.3909 71.8522 37.4591L72.2395 42.2755C72.2467 42.3436 72.3077 42.3867 72.4224 42.4082L75.1588 42.9282C75.2771 42.9497 75.3345 42.9282 75.3273 42.8601L75.2915 42.4979L72.7775 42.0209C72.6591 41.9994 72.5982 41.9527 72.5946 41.8882Z" fill="#006838"/>
<path d="M69.435 36.9713L69.2198 36.939C69.1051 36.9247 69.0513 36.9498 69.0549 37.0143L69.1337 38.1691L69.5677 38.9187L69.435 36.9677V36.9713Z" fill="#006838"/>
<path d="M64.1198 36.7024C64.0624 36.6629 63.9907 36.6414 63.9082 36.6343L63.5137 36.5984L63.5316 37.0216H63.5531C63.6356 37.0323 63.7038 37.0538 63.7647 37.0933C63.8221 37.1327 63.8544 37.1758 63.8544 37.2224L63.8902 38.0688L63.9656 38.0759C64.048 38.0831 64.1162 38.076 64.1736 38.0437C64.2309 38.015 64.256 37.9791 64.256 37.9289L64.2094 36.8315C64.2094 36.7849 64.1771 36.7418 64.1198 36.7024Z" fill="#006838"/>
<path d="M62.2156 40.6186L62.065 36.1214L61.8678 36.1035C61.753 36.0927 61.6992 36.1214 61.6992 36.1895L61.8606 41.006C61.8606 41.0741 61.9216 41.1135 62.0399 41.1207L63.1589 41.2211C63.2485 41.2283 63.3023 41.2104 63.3202 41.1637L63.3346 41.2355L63.3167 40.8159L62.3985 40.7334C62.2802 40.7226 62.2228 40.6832 62.2192 40.6186H62.2156Z" fill="#006838"/>
<path d="M70.0913 41.5654C70.0447 41.5403 70.0124 41.5152 69.9909 41.4865L68.5098 38.9294L68.5815 40.0555L69.6395 41.8774C69.6574 41.9025 69.6897 41.9312 69.7399 41.9563C69.7865 41.9814 69.8367 41.9993 69.8869 42.0065L70.6938 42.1177C70.8122 42.1356 70.8696 42.1105 70.8624 42.0424L70.8373 41.6981L70.242 41.6156C70.1917 41.6084 70.1415 41.5941 70.0949 41.5654H70.0913Z" fill="#006838"/>
<path d="M73.9141 40.425L74.7533 40.5863C74.8681 40.6079 74.9255 40.5863 74.9183 40.5182L74.8824 40.1524L73.8711 39.9587L73.9105 40.4214L73.9141 40.425Z" fill="#006838"/>
<path d="M67.1896 41.0884L66.9386 36.6127L66.7306 36.584C66.6158 36.5661 66.562 36.5947 66.5656 36.6593L66.8382 41.4757C66.8382 41.5439 66.9027 41.5833 67.0175 41.6012L68.1364 41.759C68.2547 41.777 68.3085 41.7519 68.305 41.6837L68.2834 41.343L67.3725 41.2175C67.2542 41.1996 67.1968 41.1601 67.1932 41.092L67.1896 41.0884Z" fill="#006838"/>
<path d="M46.5801 39.8547L45.0308 39.9838L45.2137 35.9062C45.2137 35.8381 45.1599 35.8094 45.0451 35.8201L43.9513 35.9134C43.8365 35.9241 43.7792 35.96 43.772 36.0281L43.5209 40.8446C43.5209 40.9127 43.5747 40.9378 43.6931 40.9306L44.812 40.8374H44.8264H44.8515L46.5478 40.6939C46.6661 40.6832 46.7235 40.6473 46.7271 40.5792L46.7522 39.9408C46.7522 39.8763 46.6984 39.844 46.5801 39.8547ZM42.2586 36.0927L39.5903 36.437C39.4756 36.4513 39.4146 36.4944 39.411 36.5589L39.0632 41.3753C39.0596 41.4435 39.1134 41.4686 39.2317 41.4542L41.9609 41.1099C42.0792 41.0956 42.1402 41.0526 42.1438 40.988L42.1797 40.3496C42.1832 40.2815 42.1259 40.2564 42.0111 40.2707L40.5838 40.4501L40.6806 38.9797L41.9107 38.8219C42.0254 38.8075 42.0864 38.7645 42.09 38.6999L42.1259 38.0616C42.1295 37.9934 42.0757 37.9683 41.9573 37.9827L40.7308 38.1405L40.7989 37.1076L42.2048 36.9283C42.3195 36.914 42.3805 36.8709 42.3841 36.8064L42.4199 36.168C42.4235 36.0999 42.3697 36.0748 42.255 36.0891L42.2586 36.0927ZM75.1236 38.3628C75.2383 38.3843 75.2957 38.3628 75.2885 38.2947L75.2276 37.6563C75.2204 37.5882 75.1594 37.5451 75.0447 37.5236L72.3729 37.0036C72.2581 36.9821 72.2043 37.0036 72.2115 37.0718L72.5988 41.8882C72.606 41.9563 72.6669 41.9994 72.7817 42.0209L75.5181 42.5409C75.6364 42.5624 75.6902 42.5409 75.6866 42.4727L75.6256 41.8344C75.6185 41.7662 75.5575 41.7232 75.4392 41.7017L74.0046 41.4291L73.8755 39.9587L75.1128 40.1954C75.2312 40.217 75.2849 40.1954 75.2778 40.1273L75.2168 39.4889C75.2096 39.4208 75.1487 39.3778 75.0339 39.3562L73.8038 39.1195L73.7141 38.0867L75.1271 38.3592L75.1236 38.3628ZM37.8904 36.6737L36.8468 36.8673C36.7966 36.8745 36.7536 36.896 36.7141 36.9247C36.6747 36.9534 36.646 36.9821 36.628 37.0072L35.423 39.7543L34.6771 37.3658C34.6627 37.3443 34.6376 37.3264 34.6018 37.312C34.5659 37.2977 34.5229 37.2941 34.4763 37.3049L33.4255 37.4985C33.3107 37.52 33.2497 37.5631 33.2426 37.6312L32.7584 42.4476C32.7512 42.5158 32.8086 42.5373 32.927 42.5158L34.1391 42.297C34.2575 42.2755 34.3185 42.2325 34.3256 42.1643L34.5372 39.8978L35.1935 41.5977C35.2079 41.6192 35.2294 41.6264 35.2545 41.6228C35.2796 41.6192 35.3011 41.6013 35.319 41.5762L36.3053 39.575L36.1116 41.8416C36.1044 41.9097 36.1618 41.9312 36.2802 41.9097L37.4888 41.6909C37.6071 41.6694 37.6681 41.6264 37.6717 41.5582L38.0518 36.7418C38.0554 36.6737 38.0016 36.6522 37.8868 36.6737H37.8904ZM64.8954 38.8219C65.15 38.7681 65.3508 38.6784 65.5015 38.5529C65.6521 38.4274 65.7238 38.2732 65.7131 38.0974L65.6557 36.9283C65.6485 36.8028 65.6019 36.6844 65.5158 36.5661C65.4297 36.4477 65.3114 36.3437 65.1715 36.2505C65.0281 36.1572 64.8595 36.0783 64.6694 36.0138C64.4794 35.9492 64.2785 35.9062 64.0634 35.8883L62.2236 35.7197C62.1088 35.709 62.055 35.7376 62.055 35.8058L62.2164 40.6222C62.2164 40.6903 62.2774 40.7262 62.3957 40.737L63.5147 40.8374C63.6079 40.8446 63.6581 40.8266 63.676 40.78L63.6904 40.8517L63.6151 38.994L64.6013 40.8302C64.6192 40.8589 64.6515 40.8876 64.6981 40.9127C64.7448 40.9342 64.795 40.9486 64.8452 40.9557L65.9892 41.0562C66.0968 41.0669 66.1398 41.0346 66.1111 40.9665L64.899 38.8219H64.8954ZM64.2606 37.9289C64.2606 37.9755 64.2355 38.015 64.1781 38.0436C64.1207 38.0723 64.0526 38.0831 63.9701 38.0759L63.5756 38.0401L63.5182 36.5984L63.9127 36.6342C63.9952 36.6414 64.0634 36.6665 64.1243 36.7024C64.1817 36.7418 64.214 36.7848 64.214 36.8315L64.2606 37.9289ZM51.1132 35.7269C50.9769 35.6516 50.8119 35.5942 50.6254 35.5547C50.4389 35.5153 50.2381 35.5009 50.0265 35.5081L48.1867 35.5834C48.072 35.587 48.0146 35.6265 48.011 35.691L47.8568 40.511C47.8568 40.5792 47.9106 40.6079 48.0289 40.6043L49.9118 40.5254C50.1305 40.5182 50.3349 40.4859 50.5286 40.4285C50.7223 40.3748 50.8908 40.303 51.0343 40.2134C51.1777 40.1273 51.2925 40.0269 51.3786 39.9121C51.4646 39.7974 51.5077 39.679 51.5113 39.5571L51.5256 38.4955C51.5256 38.3843 51.5005 38.2875 51.4431 38.1979C51.3857 38.1082 51.2997 38.0329 51.1849 37.9719C51.0701 37.911 50.9231 37.8643 50.7402 37.8321C50.9159 37.7783 51.063 37.7101 51.1885 37.6276C51.4216 37.4698 51.5399 37.2798 51.5435 37.061L51.5543 36.3437C51.5543 36.2182 51.5184 36.1035 51.4359 35.9959C51.357 35.8883 51.2459 35.7986 51.1096 35.7233L51.1132 35.7269ZM50.048 39.5822C50.048 39.6288 50.0158 39.6718 49.9584 39.7077C49.901 39.7436 49.8293 39.7615 49.7432 39.7651L49.3415 39.783L49.3774 38.2983L49.7755 38.2803C49.858 38.2803 49.9297 38.2911 49.9871 38.3234C50.0445 38.3557 50.0731 38.3951 50.0696 38.4417L50.0445 39.5822H50.048ZM50.0982 37.3156C50.0982 37.3622 50.0696 37.4053 50.0086 37.4411C49.9512 37.477 49.8795 37.4985 49.797 37.4985L49.4025 37.5165L49.4348 36.2971L49.8293 36.2792C49.9118 36.2792 49.9799 36.2899 50.0373 36.3222C50.0947 36.3545 50.1198 36.3939 50.1198 36.4406L50.1018 37.3156H50.0982ZM55.7144 35.6444C55.5746 35.5619 55.4096 35.4974 55.2231 35.4472C55.0366 35.4005 54.8358 35.3754 54.6242 35.3754H54.158C53.9464 35.3754 53.7455 35.3969 53.5555 35.4436C53.369 35.4902 53.204 35.5547 53.0641 35.6372C52.9243 35.7197 52.8131 35.813 52.7306 35.9241C52.6481 36.0353 52.6051 36.1501 52.6051 36.2756L52.5692 39.5893C52.5692 39.7149 52.6087 39.8296 52.6912 39.9408C52.7736 40.052 52.8848 40.1488 53.0247 40.2277C53.1645 40.3102 53.3331 40.3748 53.5232 40.4214C53.7168 40.468 53.9213 40.4931 54.1364 40.4931H54.6134C54.8322 40.4931 55.0366 40.4716 55.2267 40.425C55.4168 40.3783 55.5853 40.3138 55.7288 40.2313C55.8722 40.1488 55.9834 40.0556 56.0659 39.9444C56.1484 39.8368 56.1914 39.7185 56.1878 39.5929L56.1663 36.2792C56.1663 36.1537 56.1233 36.0389 56.0408 35.9277C55.9583 35.8165 55.8471 35.7233 55.7072 35.6408L55.7144 35.6444ZM54.7318 39.5571C54.7318 39.6037 54.7031 39.6467 54.6457 39.679C54.5883 39.7113 54.5166 39.7292 54.4341 39.7292H54.3337C54.2512 39.7292 54.1795 39.7113 54.1221 39.679C54.0647 39.6467 54.036 39.6037 54.036 39.5571L54.0504 36.315C54.0504 36.2684 54.0791 36.2254 54.1364 36.1931C54.1938 36.1608 54.2655 36.1429 54.3444 36.1429H54.4413C54.5238 36.1429 54.5919 36.1608 54.6493 36.1931C54.7067 36.2254 54.7354 36.2684 54.7354 36.315V39.5571H54.7318ZM60.6564 35.6085L59.5661 35.5583C59.4514 35.5547 59.394 35.5834 59.3976 35.6516L59.4836 39.6826C59.4836 39.7292 59.4549 39.7687 59.3976 39.8009C59.3402 39.8332 59.2685 39.844 59.186 39.8404H59.0856C59.0031 39.8332 58.9313 39.8117 58.874 39.7758C58.8166 39.74 58.7843 39.6969 58.7843 39.6503L58.7126 35.6193C58.7126 35.5512 58.6552 35.5153 58.5404 35.5117L57.4502 35.4615C57.3354 35.4543 57.2781 35.4866 57.2816 35.5547L57.3283 39.6216C57.3283 39.7471 57.3713 39.8655 57.4574 39.9767C57.5399 40.0914 57.6546 40.1918 57.7981 40.2779C57.9415 40.364 58.1101 40.4393 58.3037 40.4931C58.4974 40.5505 58.7018 40.5828 58.9206 40.5935L59.3976 40.615C59.6163 40.6258 59.8208 40.6079 60.0108 40.572C60.2045 40.5325 60.3695 40.4752 60.5093 40.3999C60.6492 40.3245 60.7604 40.2349 60.8393 40.1273C60.9182 40.0233 60.9576 39.9049 60.954 39.783L60.8393 35.7197C60.8393 35.6516 60.7783 35.6157 60.6635 35.6121L60.6564 35.6085ZM70.6765 36.706L69.5827 36.5482C69.4679 36.5302 69.4141 36.5589 69.4177 36.6235L69.5755 38.9187L68.141 36.437C68.1231 36.4119 68.0908 36.3832 68.0442 36.3581C67.9976 36.333 67.9509 36.315 67.9007 36.3079L67.0902 36.1931C66.9754 36.1788 66.9217 36.2039 66.9252 36.2684L67.1978 41.0848C67.1978 41.153 67.2624 41.1924 67.3771 41.2104L68.496 41.3682C68.6144 41.3825 68.6682 41.361 68.6646 41.2928L68.514 38.9259L69.9951 41.4829C70.0131 41.508 70.0453 41.5367 70.0955 41.5618C70.1422 41.5869 70.1924 41.6049 70.2426 41.612L71.0495 41.7232C71.1679 41.7376 71.2252 41.716 71.2181 41.6479L70.8594 36.8315C70.8558 36.7633 70.7949 36.7239 70.6801 36.706H70.6765Z" fill="url(#paint32_linear_2900_17813)"/>
<g style="mix-blend-mode:multiply" opacity="0.46">
<path d="M29.8571 51.3668C30.0687 51.643 30.1727 51.998 30.1404 52.4535L29.997 54.0315C29.9719 54.2646 29.7961 54.5371 29.3909 54.6662C29.3909 54.6662 26.7334 55.466 25.74 55.7672C25.7364 55.8425 25.7292 55.9143 25.7221 55.9681C25.6755 56.4056 25.9444 56.4522 26.2636 56.359C27.0239 56.1294 30.1225 55.197 30.1225 55.197C30.5277 55.0679 30.7035 54.7989 30.7286 54.5622L30.872 52.9843C30.9366 52.1451 30.5242 51.6394 29.8607 51.3668H29.8571Z" fill="#666666"/>
<path d="M28.8851 58.6363C29.1971 59.0487 29.2222 59.5544 29.1971 59.8843L28.8779 63.528C28.8277 63.9656 28.6341 64.421 28.2898 64.9016C27.9455 65.3822 27.5044 65.8412 26.9592 66.2823C26.4141 66.727 25.7829 67.1359 25.0693 67.5196C24.352 67.8997 23.5989 68.2118 22.8099 68.452L21.0741 68.9792C20.2815 69.2195 19.5427 69.363 18.8649 69.4096C18.1835 69.4562 17.6061 69.4096 17.1292 69.2841C16.9965 69.2482 16.8745 69.2052 16.7598 69.1585C16.7669 69.1657 16.7705 69.1729 16.7777 69.1801C17.0216 69.4741 17.3838 69.6857 17.8608 69.8113C18.3377 69.9404 18.9151 69.9798 19.5965 69.9368C20.2744 69.8901 21.0095 69.7503 21.8057 69.5064L23.5415 68.9792C24.3305 68.7389 25.0836 68.4269 25.8009 68.0468C26.5145 67.6666 27.1457 67.2542 27.6909 66.8131C28.236 66.3684 28.6771 65.9093 29.0214 65.4324C29.3621 64.9554 29.5593 64.4963 29.6095 64.0588L29.9287 60.4151C29.9646 59.913 29.8857 59.0236 28.8851 58.6363Z" fill="#666666"/>
</g>
<path d="M23.6168 50.8898C21.2821 51.7506 17.5918 53.4182 17.1722 56.0003C17 57.0619 16.7598 58.5395 16.7598 58.5395C16.6952 58.9268 17.0072 59.9023 18.3055 60.2896L23.043 61.4802C23.2904 61.5304 23.5594 61.7815 23.5307 62.1222C23.5056 62.4234 23.3944 63.5962 23.3944 63.5962C23.355 63.8615 23.2474 64.0731 23.0215 64.256C22.7955 64.4389 22.5301 64.5752 22.2289 64.6685L21.8667 64.7796C21.5654 64.8729 21.318 64.8944 21.1207 64.8406C20.9271 64.7868 20.841 64.6756 20.8661 64.5107L21.006 63.5101C21.0382 63.277 20.8625 63.2124 20.468 63.3487L16.3222 64.9052C15.917 65.0952 15.6982 65.2853 15.6588 65.522L15.4292 67.2004C15.3575 67.6379 15.4436 68.0002 15.6875 68.2942C15.9313 68.5883 16.2935 68.7999 16.7705 68.9254C17.2475 69.0545 17.8249 69.0976 18.5063 69.0509C19.1841 69.0043 19.9229 68.8645 20.7155 68.6242L22.4512 68.097C23.2402 67.8567 23.9934 67.5447 24.7106 67.1645C25.4243 66.7844 26.0555 66.372 26.6006 65.9273C27.1457 65.4862 27.5868 65.0235 27.9311 64.5465C28.2718 64.0696 28.4691 63.6105 28.5193 63.173L28.8385 59.5293C28.8815 58.9662 28.7775 57.9154 27.4004 57.6357L22.8099 56.732C22.1285 56.5562 22.0854 56.1832 22.1356 55.7852C22.1285 55.8605 22.15 55.7278 22.2074 55.4373C22.2755 55.0822 22.6628 54.6124 23.4124 54.3793C23.8714 54.2395 24.6712 54.1498 24.6604 54.5945C24.6604 54.6985 24.6425 54.946 24.6281 55.0822C24.5815 55.5198 24.8505 55.5664 25.1697 55.4732C25.93 55.2472 29.0285 54.3112 29.0285 54.3112C29.4338 54.1821 29.6095 53.9131 29.6346 53.6764L29.7781 52.0984C29.9717 49.6059 25.9515 50.0363 23.624 50.897L23.6168 50.8898Z" fill="url(#paint33_linear_2900_17813)"/>
<path d="M23.6164 50.8898C22.1568 51.4278 20.1628 52.2849 18.7749 53.4827C20.1126 52.4965 21.8161 51.772 23.1072 51.2951C25.4383 50.4344 29.455 50.004 29.2613 52.4965L29.1465 53.7696C29.1465 53.7696 29.1501 53.7696 29.1537 53.7696L29.437 54.0565C29.5554 53.9382 29.6163 53.7983 29.6307 53.6692L29.7741 52.0912C29.9678 49.5987 25.9475 50.0291 23.62 50.8898H23.6164Z" fill="url(#paint34_linear_2900_17813)"/>
<path d="M18.3014 60.2896L23.0389 61.4802C23.2864 61.5304 23.5553 61.7815 23.5266 62.1222C23.5123 62.2943 23.4442 63.0618 23.3939 63.5603C23.3473 64.0408 23.0174 64.2955 22.691 64.4676L22.1136 64.9123C23.3115 64.4963 23.5625 63.84 23.5948 63.6177C23.5948 63.6177 23.7741 61.8424 23.7956 61.5412C23.8243 61.2005 23.5553 60.9494 23.3079 60.8992L18.5704 59.7086C17.2757 59.3212 16.9637 58.3458 17.0247 57.9584C17.0247 57.9584 17.2649 56.4845 17.4371 55.4193C17.4694 55.2185 17.5232 55.0213 17.5949 54.8312C17.3797 55.197 17.2291 55.5843 17.1645 55.9967C16.9924 57.0583 16.7521 58.5358 16.7521 58.5358C16.6875 58.9232 16.9995 59.8986 18.2978 60.286L18.3014 60.2896Z" fill="#006838"/>
<path d="M27.3927 57.6321L22.8022 56.7284C22.1208 56.5526 22.0778 56.1797 22.128 55.7816C22.1208 55.8569 22.1423 55.7242 22.1997 55.4337C22.2284 55.2903 22.3073 55.1289 22.44 54.9711C22.44 54.9711 22.4794 54.9316 22.5404 54.8671C22.5117 54.8958 22.483 54.9244 22.4579 54.9567C22.4615 54.9244 22.4687 54.8886 22.4758 54.8563C22.5332 54.5551 22.8237 54.1677 23.376 53.9167C23.376 53.9167 23.376 53.9167 23.3724 53.9167C21.7837 54.6626 21.7299 55.2687 21.694 55.4445C21.6366 55.7385 21.6151 56.2621 21.6223 56.1868C21.5721 56.5885 21.6151 56.9579 22.2965 57.1336L26.887 58.0374C28.2642 58.3171 28.3682 59.3679 28.3251 59.9309L28.0059 63.5746C27.9665 63.9333 27.823 64.3098 27.5828 64.6972C27.8159 64.4569 28.0239 64.213 28.2032 63.9655C28.2749 63.8615 28.3431 63.7611 28.4004 63.6607C28.3753 63.7288 28.3502 63.797 28.3179 63.8687C28.422 63.632 28.4865 63.3989 28.5116 63.173L28.8308 59.5293C28.8738 58.9662 28.7698 57.9154 27.3927 57.6357V57.6321Z" fill="url(#paint35_linear_2900_17813)"/>
<path d="M19.9547 63.7468C20.3492 63.6141 20.5286 63.675 20.4927 63.9117L20.3528 64.9123C20.3277 65.0809 20.4138 65.192 20.6075 65.2422C20.8011 65.296 21.0486 65.2745 21.3534 65.1813L21.7156 65.0701C22.0169 64.9769 22.2787 64.8406 22.5082 64.6577C22.5835 64.5967 22.6445 64.5357 22.6947 64.4676C22.5512 64.5465 22.397 64.6146 22.2285 64.6648L21.8663 64.776C21.565 64.8693 21.3175 64.8908 21.1203 64.837C20.9266 64.7832 20.8406 64.672 20.8657 64.507L21.0055 63.5065C21.0378 63.2734 20.8621 63.2088 20.4676 63.3451L16.3218 64.9015C16.1461 64.984 16.0098 65.0665 15.9022 65.1526L15.8843 65.2781L19.9583 63.7503L19.9547 63.7468Z" fill="url(#paint36_linear_2900_17813)"/>
<path d="M29.1537 53.7697C28.5404 53.9562 26.0981 54.6914 25.4382 54.8886C25.1191 54.9854 24.8537 54.9352 24.8967 54.4977C24.911 54.3614 24.9254 54.114 24.929 54.01C24.9362 53.5653 24.1364 53.6549 23.6809 53.7948C22.9278 54.0279 22.5441 54.4977 22.4759 54.8527C22.4688 54.885 22.4652 54.9209 22.458 54.9532C22.6553 54.7236 22.9673 54.5084 23.4084 54.3722C23.8674 54.2323 24.6672 54.1426 24.6564 54.5874C24.6564 54.6914 24.6385 54.9388 24.6241 55.0751C24.5775 55.5126 24.8465 55.5592 25.1657 55.466C25.926 55.2401 29.0246 54.304 29.0246 54.304C29.2075 54.2466 29.3437 54.1606 29.4406 54.0602L29.1572 53.7697H29.1537Z" fill="#006838"/>
<path d="M28.1998 63.9655C27.8555 64.4461 27.4144 64.9052 26.8693 65.3463C26.3241 65.791 25.693 66.1998 24.9793 66.5836C24.262 66.9637 23.5089 67.2757 22.7199 67.516L20.9841 68.0432C20.1915 68.2835 19.4528 68.4269 18.7749 68.4735C18.0935 68.5202 17.5162 68.4735 17.0392 68.348C16.5622 68.2189 16.2 68.0109 15.9561 67.7168C15.7122 67.4228 15.6262 67.057 15.6979 66.623L15.8987 65.1526C15.7589 65.2674 15.6764 65.3857 15.6549 65.5184L15.4253 67.1968C15.3536 67.6343 15.4397 67.9966 15.6835 68.2906C15.9274 68.5847 16.2896 68.7963 16.7666 68.9218C17.2436 69.0509 17.821 69.094 18.5024 69.0474C19.1802 69.0007 19.919 68.8609 20.7116 68.6206L22.4473 68.0934C23.2363 67.8531 23.9895 67.5411 24.7067 67.161C25.4204 66.7808 26.0516 66.3684 26.5967 65.9237C27.1418 65.4826 27.5829 65.0199 27.9272 64.5429C28.1424 64.2417 28.3002 63.944 28.4006 63.6607C28.3397 63.7611 28.2751 63.8651 28.2034 63.9655H28.1998Z" fill="#006838"/>
<g style="mix-blend-mode:multiply" opacity="0.46">
<path d="M24.1186 54.261C23.9931 54.2825 23.8748 54.3112 23.7708 54.3435C23.0176 54.5766 22.6339 55.0464 22.5658 55.4014C22.5084 55.6955 22.4869 56.0398 22.494 55.9645C22.4689 56.1797 22.4689 56.4379 22.5801 56.6602C22.6447 56.6889 22.72 56.7104 22.8025 56.732L23.2113 56.8109C23.2113 56.7642 23.2185 56.7176 23.2221 56.671C23.2149 56.7463 23.2364 56.2227 23.2938 55.9286C23.3619 55.5736 23.7492 55.1038 24.4988 54.8707C24.5418 54.8563 24.592 54.8456 24.6422 54.8312C24.6494 54.738 24.653 54.6447 24.653 54.5909C24.6566 54.3435 24.4127 54.261 24.1151 54.261H24.1186Z" fill="#666666"/>
</g>
<g style="mix-blend-mode:multiply" opacity="0.46">
<path d="M21.8665 64.7761L22.053 64.7187L22.0997 64.3923C22.1319 64.1592 21.9562 64.0983 21.5617 64.2309L21.3071 64.3242L21.2354 64.855C21.4111 64.8765 21.6191 64.855 21.8665 64.7761Z" fill="#666666"/>
</g>
<g style="mix-blend-mode:multiply" opacity="0.46">
<path d="M23.5269 62.0648C23.4874 62.0469 23.448 62.0325 23.4049 62.0218L18.6674 60.8311C18.4486 60.7665 18.2621 60.6841 18.0972 60.5908C18.3267 61.014 18.7319 61.4408 19.3954 61.6416L23.4766 62.6673C23.4982 62.4127 23.5197 62.2011 23.5233 62.1222C23.5233 62.1007 23.5233 62.0827 23.5233 62.0648H23.5269Z" fill="#666666"/>
</g>
<g style="mix-blend-mode:multiply" opacity="0.46">
<path d="M46.5617 47.9634C46.5617 47.9634 46.5008 47.9706 46.3932 47.9777L46.1923 50.5168C46.1852 50.7392 46.0955 50.9113 45.6903 50.9364C44.1338 51.0297 42.0896 51.2556 42.0896 51.2556L41.2002 64.6003C41.1858 64.8227 41.0783 65.0701 40.5977 65.1275C38.9265 65.3247 36.9289 65.6296 36.3802 65.7157L36.3407 66.1281C36.3264 66.3935 36.4842 66.6122 36.9612 66.5405C36.9612 66.5405 39.3676 66.1604 41.3257 65.9308C41.8063 65.8735 41.9139 65.626 41.9282 65.4036L42.8176 52.059C42.8176 52.059 44.8582 51.8294 46.4183 51.7398C46.8235 51.7147 46.9132 51.5461 46.9204 51.3202L47.1678 48.2073C47.175 47.9849 46.9706 47.9275 46.5617 47.967V47.9634Z" fill="#666666"/>
</g>
<path d="M45.4433 46.4356C45.4433 46.4356 41.2617 46.8158 38.389 47.282C35.2653 47.7913 32.3855 48.4296 32.3855 48.4296C32.0197 48.5157 31.8834 48.6125 31.8619 48.8492L31.5965 52.1343C31.575 52.371 31.7436 52.4822 32.1524 52.3889C33.3682 52.1056 35.9826 51.6035 35.9826 51.6035L34.7633 64.8048C34.7489 65.0809 34.9139 65.314 35.4124 65.2351C35.4124 65.2351 37.9336 64.837 39.9885 64.5967C40.4942 64.5358 40.609 64.2776 40.6197 64.0445L41.5163 50.7321C41.5163 50.7321 43.6573 50.4918 45.2927 50.3949C45.7195 50.3698 45.8091 50.1905 45.8199 49.9574L46.0781 46.6939C46.0888 46.4607 45.8701 46.3998 45.4433 46.4392V46.4356Z" fill="url(#paint37_linear_2900_17813)"/>
<path d="M45.4432 46.4356C45.4432 46.4356 41.2615 46.8158 38.3889 47.282C35.2652 47.7913 32.3854 48.4296 32.3854 48.4296C32.1953 48.4727 32.0698 48.5229 31.9873 48.591L32.3172 48.8098V48.817C33.2604 48.6161 35.484 48.1571 37.8473 47.7733C40.72 47.3035 44.9016 46.927 44.9016 46.927C45.3284 46.8875 45.5472 46.9449 45.5364 47.1816L45.3284 49.8104L45.6691 50.2945C45.7839 50.2156 45.8197 50.0973 45.8233 49.9574L46.0815 46.6939C46.0923 46.4607 45.8735 46.3998 45.4467 46.4392L45.4432 46.4356Z" fill="url(#paint38_linear_2900_17813)"/>
<path d="M40.1064 64.0194L40.4615 64.3995C40.5727 64.2955 40.6121 64.1628 40.6193 64.0373L41.5159 50.7249L41.0281 50.212L40.1064 64.0194Z" fill="url(#paint39_linear_2900_17813)"/>
<path d="M40.1033 64.0157C38.1344 64.2596 35.9145 64.6075 35.9145 64.6075C35.4124 64.6828 35.2474 64.4533 35.2653 64.1771L36.4847 50.9759C36.4847 50.9759 33.8703 51.478 32.6545 51.7613C32.2457 51.8545 32.0735 51.7434 32.0986 51.5067L32.3174 48.8062L31.9875 48.5874C31.9121 48.652 31.8727 48.7309 31.8619 48.8456L31.5965 52.1307C31.575 52.3674 31.7436 52.4786 32.1524 52.3853C33.3682 52.102 35.9826 51.5999 35.9826 51.5999L34.7633 64.8011C34.7489 65.0773 34.9139 65.3104 35.4124 65.2315C35.4124 65.2315 37.9336 64.8334 39.9885 64.5931C40.2216 64.5644 40.3687 64.4963 40.4655 64.4066L40.1033 64.0193V64.0157Z" fill="#006838"/>
<path d="M45.3215 49.8032C43.6251 49.9287 41.0322 50.2156 41.0322 50.2156L41.52 50.7284C42.2408 50.6531 44.1272 50.463 45.2964 50.3913C45.4721 50.3806 45.5904 50.3447 45.6693 50.2909L45.325 49.8032H45.3215Z" fill="#006838"/>
<g style="mix-blend-mode:multiply" opacity="0.46">
<path d="M33.4075 52.7798L33.3573 53.393C33.3358 53.619 33.5008 53.723 33.8881 53.6333C34.3902 53.5186 35.1397 53.3608 35.8319 53.2209L35.9215 52.2598C35.1792 52.4068 34.132 52.6184 33.4075 52.7762V52.7798Z" fill="#666666"/>
</g>
<g style="mix-blend-mode:multiply" opacity="0.46">
<path d="M60.426 64.5286L56.2444 64.3493C55.7854 64.3493 55.4626 64.0839 55.398 63.7575L54.939 61.179H52.6545L52.1345 63.797C52.0592 64.0229 51.7472 64.3457 51.2881 64.3493L47.0527 64.5716L47.0383 64.6362C46.9487 64.9159 47.0885 65.2853 47.5476 65.2817L51.9623 65.0486C52.3855 65.0486 52.676 64.7258 52.7477 64.4963L53.2247 61.8424L54.2863 61.8532L54.6987 64.4066C54.7597 64.733 55.0573 65.002 55.4841 64.9984L59.924 65.2351C60.3794 65.2351 60.5229 64.9553 60.4547 64.6577L60.4296 64.525L60.426 64.5286Z" fill="#666666"/>
</g>
<path d="M61.4059 63.3881L57.4753 46.7333C57.4107 46.5002 57.1597 46.2599 56.6935 46.2061C56.6935 46.2061 55.5351 46.1129 53.871 46.1129C52.207 46.1129 50.9303 46.2491 50.9303 46.2491C50.4031 46.3029 50.2094 46.5432 50.1449 46.7763L46.0565 63.4061C45.9668 63.693 46.1103 64.0803 46.5837 64.0767L50.8263 63.8687C51.2674 63.8687 51.522 63.7468 51.5937 63.5101L52.1568 60.372L55.4705 60.3505L55.9834 63.4814C56.0515 63.7181 56.3062 63.8328 56.7473 63.8293L60.8464 63.9799C61.3198 63.9799 61.4669 63.6894 61.3987 63.381L61.4059 63.3881ZM52.6445 57.5568L53.8137 50.5276L54.929 57.5389L52.6445 57.5532V57.5568Z" fill="url(#paint40_linear_2900_17813)"/>
<path d="M52.6476 57.5568L53.8168 50.5276L53.6088 49.3011L52.1133 57.9118L55.5023 57.8975L54.9321 57.5424L52.6476 57.5568Z" fill="url(#paint41_linear_2900_17813)"/>
<path d="M53.6094 49.3011L53.8174 50.5276L54.9327 57.5424L55.5029 57.8975L54.1366 49.3118L53.6094 49.3011Z" fill="#006838"/>
<path d="M61.4059 63.3881L57.4753 46.7333C57.4108 46.5002 57.1597 46.2599 56.6935 46.2061C56.6935 46.2061 55.5351 46.1129 53.8711 46.1129C52.207 46.1129 50.9303 46.2491 50.9303 46.2491C50.6434 46.2778 50.4569 46.3639 50.335 46.4715L50.6613 46.5934C50.9877 46.5647 52.1066 46.4679 53.5017 46.4679C55.1657 46.4679 56.3241 46.5611 56.3241 46.5611C56.7867 46.6149 57.0414 46.8552 57.1059 47.0883L60.9756 63.485L61.2409 63.8759C61.3987 63.7647 61.4418 63.5782 61.3987 63.3846L61.4059 63.3881Z" fill="url(#paint42_linear_2900_17813)"/>
<path d="M51.1562 63.4025L51.3356 63.7862C51.4934 63.7181 51.5723 63.6177 51.6009 63.5137L52.164 60.3756L51.7839 59.8915L51.1562 63.3989V63.4025Z" fill="url(#paint43_linear_2900_17813)"/>
<path d="M51.152 63.4025L47.1819 63.5926C46.7049 63.5926 46.5615 63.2088 46.6511 62.9219L50.6678 46.5934L50.3379 46.4715C50.2339 46.5612 50.1801 46.6687 50.1478 46.7799L46.0594 63.4097C45.9697 63.6966 46.1132 64.0839 46.5866 64.0803L50.8292 63.8723C51.0372 63.8723 51.2058 63.8436 51.3313 63.7898L51.1484 63.3989L51.152 63.4025Z" fill="#006838"/>
<path d="M57.1985 63.3523C56.7574 63.3523 56.5028 63.2375 56.4347 63.0044L55.9218 59.8735L51.7832 59.8986L52.1634 60.3828L55.4771 60.3613L55.9899 63.4921C56.0581 63.7288 56.3127 63.8436 56.7538 63.84L60.853 63.9906C61.0287 63.9906 61.1578 63.9512 61.2475 63.8866L60.9749 63.4885L57.195 63.3559L57.1985 63.3523Z" fill="#006838"/>
<g style="mix-blend-mode:multiply" opacity="0.46">
<path d="M53.821 55.1719L53.3906 57.5532L54.2298 57.546L53.821 55.1719Z" fill="#666666"/>
</g>
<g style="mix-blend-mode:multiply" opacity="0.46">
<path d="M64.1776 64.7581C63.8297 64.7259 63.6934 64.5537 63.6863 64.3314L63.1268 48.6376C62.969 48.6197 62.8793 48.609 62.8793 48.609C62.4956 48.5731 62.3737 48.6807 62.3844 48.903L62.9618 65.0379C62.969 65.2638 63.1053 65.4359 63.4532 65.4646C63.923 65.5077 66.8996 65.8018 67.3156 65.8627C67.5774 65.8986 67.8392 65.7587 67.85 65.4862L67.832 65.1275C67.0251 65.0343 64.6044 64.794 64.1848 64.7581H64.1776Z" fill="#666666"/>
</g>
<path d="M77.8556 65.6834L73.9644 57.8365C74.8323 57.6859 76.2776 57.3918 76.1413 55.0679L75.8688 51.9299C75.7791 50.9221 75.1838 48.8349 72.2035 47.8881C70.2275 47.2605 64.0769 46.6221 64.0769 46.6221C63.6753 46.5827 63.5498 46.6939 63.5569 46.9305L64.163 63.8544C64.1702 64.0911 64.3136 64.2704 64.6794 64.3027C65.1744 64.3457 68.2945 64.6541 68.7284 64.7187C69.001 64.7581 69.2771 64.6111 69.2879 64.3206L69.0045 58.353L72.0565 64.8334C72.121 64.941 72.2394 65.0379 72.4044 65.1275C72.5693 65.2172 72.7451 65.271 72.9208 65.2925C72.9208 65.2925 76.6721 65.9416 77.3786 66.0851C77.7408 66.1604 77.9883 65.9595 77.8592 65.6798L77.8556 65.6834ZM70.8371 54.9101C70.6471 54.9998 70.5467 55.0033 70.2633 54.9675L68.8145 54.7129L68.5742 50.3662L69.9944 50.6173C70.2705 50.6567 70.8623 50.9436 70.8981 51.3812L71.1097 54.5192C71.1205 54.6877 71.0308 54.8169 70.8407 54.9065L70.8371 54.9101Z" fill="url(#paint44_linear_2900_17813)"/>
<path d="M63.6616 46.6759L64.031 47.013V47.0202C65.4404 47.1744 70.0811 47.7124 71.7452 48.2431C74.7254 49.1899 75.3207 51.2772 75.4104 52.2849L75.6829 55.4229C75.726 56.1761 75.604 56.714 75.3888 57.1049C75.5287 57.0511 75.6435 56.9973 75.726 56.94C75.6937 56.9866 75.6542 57.0332 75.6184 57.0762C75.9662 56.6782 76.1958 56.0577 76.1384 55.0679L75.8658 51.9299C75.7762 50.9221 75.1808 48.8349 72.2006 47.8881C70.2246 47.2605 64.074 46.6221 64.074 46.6221C63.6724 46.5827 63.5468 46.6939 63.554 46.9305C63.5504 46.8158 63.5791 46.7297 63.658 46.6759H63.6616Z" fill="url(#paint45_linear_2900_17813)"/>
<path d="M68.8081 64.2309L69.1022 64.6398C69.2062 64.5716 69.2779 64.464 69.2851 64.3206L69.0018 58.3529L68.4746 57.234L68.8081 64.2273V64.2309Z" fill="url(#paint46_linear_2900_17813)"/>
<path d="M77.1497 65.5292L77.8132 66.0062C77.8956 65.9309 77.9207 65.8161 77.8562 65.6834L73.965 57.8366L73.2119 57.6035L77.1497 65.5292Z" fill="url(#paint47_linear_2900_17813)"/>
<path d="M75.7292 56.9399C75.306 57.2304 74.0078 57.4922 73.208 57.6034L73.9611 57.8365C74.8219 57.6931 75.3634 57.4635 75.7256 56.9399H75.7292Z" fill="#006838"/>
<path d="M70.9263 54.8599C70.8761 54.8922 70.6394 55.032 70.2629 54.9639L68.814 54.7093L68.5737 50.3626L68.0645 49.7494L68.3585 55.0679L69.8074 55.3225C70.9873 55.5054 71.6077 54.9531 71.5683 54.1821C71.5898 54.6662 70.9873 54.8491 70.9263 54.8635V54.8599Z" fill="url(#paint48_linear_2900_17813)"/>
<path d="M68.8037 64.2273C67.839 64.1198 65.5473 63.8938 65.1313 63.858C64.7655 63.8257 64.6221 63.6464 64.6149 63.4097L64.0303 47.0166L63.6609 46.6795C63.582 46.7297 63.5534 46.8158 63.5569 46.9341L64.163 63.858C64.1702 64.0947 64.3136 64.274 64.6794 64.3062C65.1744 64.3493 68.2945 64.6577 68.7284 64.7223C68.8647 64.7402 69.001 64.7151 69.105 64.6469L68.8073 64.2309L68.8037 64.2273Z" fill="#006838"/>
<path d="M77.1235 65.5112C75.8073 65.271 73.3758 64.8514 73.3758 64.8514C73.2001 64.8298 73.0243 64.7725 72.8594 64.6864C72.6944 64.5967 72.576 64.4999 72.5115 64.3923L69.5062 58.0051L68.4805 57.2376L69.0077 58.3565L72.0596 64.837C72.1242 64.9446 72.2425 65.0414 72.4075 65.1311C72.5725 65.2207 72.7482 65.2745 72.9239 65.2961C72.9239 65.2961 76.6752 65.9452 77.3817 66.0886C77.5718 66.1281 77.7296 66.0886 77.8192 66.0097L77.1307 65.5148L77.1235 65.5112Z" fill="#006838"/>
<path d="M71.5696 54.182L71.3544 50.94C71.3185 50.4989 70.7304 50.212 70.4542 50.1761L68.0693 49.7529L68.5786 50.3662L69.9988 50.6172C70.2749 50.6567 70.8667 50.9436 70.9025 51.3811C70.9025 51.3811 71.0603 53.7732 71.1105 54.5299C71.1249 54.7487 70.9348 54.8598 70.9348 54.8598C70.9958 54.8491 71.5983 54.6662 71.5768 54.1784L71.5696 54.182Z" fill="#006838"/>
<g style="mix-blend-mode:multiply" opacity="0.46">
<path d="M76.4255 66.8166L76.2211 66.4006C75.0304 66.1819 72.4483 65.7336 72.4483 65.7336C72.2797 65.7121 72.1148 65.6583 71.957 65.5758C71.7992 65.4933 71.688 65.3965 71.6234 65.296L69.0771 59.8879L69.1668 61.7922L71.168 66.0384C71.2289 66.1424 71.3401 66.2357 71.5015 66.3181C71.6593 66.4042 71.8243 66.4544 71.9928 66.4759C71.9928 66.4759 75.2958 67.0605 75.97 67.1968C76.3143 67.2649 76.551 67.0784 76.4255 66.8095V66.8166Z" fill="#666666"/>
</g>
<path d="M86.7281 56.1689C86.7281 56.1689 88.8333 57.026 90.3897 57.6931C91.0926 57.9943 91.1357 57.6859 91.0926 57.3846L90.9097 56.2585C90.7591 55.4875 89.9163 52.8551 85.082 51.1265C80.4054 49.4517 79.4013 50.6316 79.1717 50.8073C78.7163 51.1516 78.3971 51.9478 78.4652 52.8121L78.684 55.6955C78.8561 57.2376 79.4622 57.5317 80.1042 58.0015C80.1042 58.0015 84.8883 61.283 86.5595 62.5274C86.7962 62.7031 87.076 63.0259 87.1369 63.5029C87.1871 63.9046 87.2266 64.0659 87.2589 64.3493C87.3127 64.837 86.7317 65.0378 86.165 64.8621L85.4406 64.6469C84.7879 64.4174 84.4221 63.9655 84.3468 63.632L84.1639 62.7569C84.1352 62.5202 83.8841 62.3338 83.5721 62.2082L79.9356 61.2973C79.4694 61.1431 79.2973 61.4121 79.3188 61.6488L79.4443 62.9111C79.785 65.938 82.3169 67.1107 85.5697 68.1221C90.7842 69.7431 92.6706 68.8035 92.3658 66.519L91.939 63.1945C91.7561 62.3015 91.3939 60.9243 89.9629 59.9775C88.862 59.2459 84.8955 56.6996 84.2535 56.194C83.8196 55.8533 83.4932 55.5018 83.4538 55.1719C83.4323 54.971 83.3964 54.677 83.3856 54.4582C83.3534 53.6871 84.3719 54.0314 84.8919 54.2215C85.5948 54.4797 86.0431 54.9065 86.1328 55.3297C86.2009 55.6381 86.3479 56.0111 86.7245 56.1617L86.7281 56.1689Z" fill="url(#paint49_linear_2900_17813)"/>
<path d="M91.0889 57.3846L90.906 56.2585C90.7554 55.4874 89.9126 52.8551 85.0782 51.1265C82.2701 50.1223 80.789 50.1438 80 50.3626C80.8643 50.255 82.2845 50.3805 84.6192 51.2161C89.4535 52.9448 90.2963 55.5771 90.4469 56.3482L90.5976 57.2842L90.8881 57.815C91.1032 57.7899 91.114 57.5854 91.0853 57.3846H91.0889Z" fill="url(#paint50_linear_2900_17813)"/>
<path d="M79.7563 61.4587L83.1167 62.2979C83.4287 62.4234 83.6833 62.6099 83.7084 62.8466L83.8913 63.7181C83.9667 64.048 84.3361 64.4999 84.9852 64.733L85.7096 64.9482C86.0109 65.0414 87.1692 65.3964 87.5924 64.507C87.5924 64.507 87.5924 64.507 87.5888 64.507C87.4777 64.7043 87.2553 64.8728 86.8357 64.8836C86.8357 64.8836 86.8357 64.8836 86.8393 64.8836C86.6349 64.9338 86.4054 64.9374 86.1651 64.8549L85.4406 64.6397C84.7879 64.4102 84.4221 63.9583 84.3468 63.6248L84.1639 62.7497C84.1352 62.5131 83.8842 62.3266 83.5722 62.201L79.9356 61.2901C79.7097 61.2148 79.5519 61.2435 79.4551 61.3152L79.7599 61.4479L79.7563 61.4587Z" fill="url(#paint51_linear_2900_17813)"/>
<path d="M92.3661 66.5226L91.9394 63.198C91.7565 62.305 91.3943 60.9279 89.9633 59.9811C88.8623 59.2495 84.8959 56.7032 84.2539 56.1975C83.82 55.8568 83.4936 55.5054 83.4542 55.1754C83.4326 54.9746 83.3968 54.6805 83.386 54.4618C83.3788 54.2717 83.429 54.1067 83.6371 54.0135C83.2641 54.0027 83.0094 54.2896 82.97 54.3398C82.9449 54.4008 82.9306 54.4689 82.9341 54.5514C82.9449 54.7666 82.9808 55.0643 83.0023 55.2615C83.0417 55.5915 83.3681 55.9429 83.802 56.2836C84.444 56.7893 88.4104 59.3356 89.5114 60.0672C90.9388 61.014 91.3046 62.3911 91.4875 63.2841L91.9143 66.6086C92.0219 67.4299 91.8461 68.0754 91.3369 68.4914C91.5664 68.4341 91.7708 68.3587 91.9465 68.2619C92.3375 67.8459 92.4666 67.2506 92.3697 66.519L92.3661 66.5226Z" fill="url(#paint52_linear_2900_17813)"/>
<path d="M87.1553 55.8425C86.7787 55.6919 86.6281 55.3189 86.5635 55.0105C86.4739 54.5873 86.022 54.1677 85.3227 53.9023C84.8206 53.7123 83.3395 53.3536 82.9629 54.3542C82.9629 54.3542 83.2319 54.0063 83.6407 54.0171C84.0137 53.9059 84.6054 54.1211 84.8959 54.2287C85.5988 54.4869 86.0471 54.9137 86.1368 55.3369C86.2049 55.6453 86.352 56.0183 86.7285 56.1689C86.7285 56.1689 88.8337 57.026 90.3901 57.6931C90.6268 57.7935 90.7882 57.8258 90.8958 57.815L90.5982 57.2771C89.0704 56.6244 87.1553 55.8461 87.1553 55.8461V55.8425Z" fill="#006838"/>
<path d="M85.9971 67.7994C82.7443 66.788 80.2124 65.6153 79.8717 62.5884L79.7605 61.4587L79.4557 61.326C79.3517 61.4014 79.3122 61.5305 79.323 61.6524L79.4485 62.9148C79.7892 65.9416 82.3212 67.1144 85.574 68.1257C89.1136 69.2267 91.1184 69.1478 91.9468 68.2656C90.9427 68.8179 89.0383 68.7461 86.0007 67.7994H85.9971Z" fill="#006838"/>
<path d="M80.1045 57.9979C80.1045 57.9979 84.8886 61.2794 86.5599 62.5239C86.7966 62.6996 87.0763 63.0224 87.1373 63.4993C87.1875 63.901 87.2233 64.0624 87.2592 64.3457C87.2843 64.5429 87.1767 64.8047 86.836 64.8872C87.6106 64.8657 87.7182 64.3134 87.686 64.0193C87.6573 63.736 87.6178 63.5746 87.564 63.173C87.5031 62.696 87.2233 62.3768 86.9866 62.1975C85.3154 60.9495 80.5313 57.6716 80.5313 57.6716C79.8893 57.2018 79.2796 56.9077 79.1111 55.3656L78.8923 52.4822C78.8278 51.6824 79.0967 50.9472 79.4948 50.5671C79.3227 50.6675 79.2258 50.7607 79.1756 50.8038C78.7202 51.1481 78.401 51.9442 78.4691 52.8085L78.6879 55.6919C78.86 57.234 79.4661 57.5281 80.1081 57.9979H80.1045Z" fill="#006838"/>
<g style="mix-blend-mode:multiply" opacity="0.46">
<path d="M86.6959 64.9123C86.8035 64.819 86.8645 64.6899 86.8466 64.5214C86.8179 64.2524 86.782 64.1125 86.7318 63.7288C86.6744 63.2769 86.4054 62.9685 86.1795 62.8C84.5836 61.6093 79.6739 58.4175 79.6739 58.4175C79.2364 58.0588 78.3219 57.4994 78.2394 56.1222L78.0314 53.5078C77.9812 52.873 78.1497 52.2777 78.4295 51.8904C78.2466 51.9908 78.1497 52.0876 78.0959 52.1307C77.662 52.4606 77.3572 53.2173 77.4217 54.0422L77.6441 56.4701C77.7552 57.7432 78.4402 58.3816 79.0786 58.8227C79.0786 58.8227 83.9918 62.0146 85.5842 63.2052C85.8101 63.3738 86.0755 63.6822 86.1365 64.1341C86.1759 64.4317 86.1974 64.6577 86.219 64.8728C86.3839 64.9195 86.5453 64.9302 86.6959 64.9123Z" fill="#666666"/>
</g>
<g style="mix-blend-mode:multiply" opacity="0.46">
<path d="M89.7549 68.9361C88.7077 69.1693 87.0759 68.9828 84.7377 68.2548C81.6355 67.29 79.2219 66.1711 78.8956 63.2841L78.7951 62.2907L78.7521 62.2799C78.3074 62.1329 78.1424 62.3875 78.164 62.6135L78.2823 63.8185C78.6087 66.7055 81.0222 67.8244 84.1244 68.7891C87.4991 69.8399 89.4071 69.761 90.196 68.9254C90.0526 68.9361 89.9056 68.9397 89.7478 68.9397L89.7549 68.9361Z" fill="#666666"/>
</g>
<g style="mix-blend-mode:multiply" opacity="0.46">
<path d="M70.6265 54.8849L70.4257 51.8939C70.3934 51.4743 69.8304 51.2018 69.565 51.1659L68.6074 50.9938L68.654 51.8401L69.1669 51.9298C69.5148 52.0123 69.6618 52.188 69.6941 52.6076L69.8483 54.8957L70.2607 54.9674C70.4221 54.9889 70.5225 54.9961 70.6122 54.9818C70.6122 54.9818 70.6122 54.9746 70.6122 54.971C70.6158 54.9423 70.6229 54.9136 70.6193 54.8849H70.6265Z" fill="#666666"/>
</g>
<g style="mix-blend-mode:multiply" opacity="0.46">
<path d="M83.4646 55.032C83.687 55.0786 83.9165 55.1575 84.0851 55.2221C84.7557 55.4696 85.1825 55.8748 85.2685 56.2765C85.3331 56.5706 85.4765 56.9256 85.8352 57.0691C85.8352 57.0691 87.8399 57.8867 89.3247 58.5215C89.9953 58.8084 90.0383 58.5143 89.9953 58.2274L89.9594 57.9979C89.9594 57.9979 89.9451 57.9907 89.9343 57.9871C88.4496 57.3488 86.4449 56.5347 86.4449 56.5347C86.0862 56.3912 85.9428 56.0326 85.8782 55.7421C85.7921 55.3369 85.3654 54.9316 84.6947 54.6877C84.3325 54.555 83.7085 54.3435 83.418 54.5335C83.4108 54.5371 83.4037 54.5443 83.3965 54.5479C83.4072 54.6985 83.4252 54.8742 83.4431 55.0248C83.4503 55.0248 83.4575 55.0284 83.4646 55.032Z" fill="#666666"/>
</g>
</g>
<defs>
<linearGradient id="paint0_linear_2900_17813" x1="54.0611" y1="78.0741" x2="24.0759" y2="100.463" gradientUnits="userSpaceOnUse">
<stop offset="0.11" stop-color="#006838"/>
<stop offset="0.38" stop-color="#009345"/>
<stop offset="0.55" stop-color="#44AB2F"/>
<stop offset="0.69" stop-color="#78BE20"/>
</linearGradient>
<linearGradient id="paint1_linear_2900_17813" x1="53.939" y1="78.0741" x2="83.9242" y2="100.463" gradientUnits="userSpaceOnUse">
<stop offset="0.38" stop-color="#009345"/>
<stop offset="0.55" stop-color="#44AB2F"/>
<stop offset="0.69" stop-color="#78BE20"/>
</linearGradient>
<linearGradient id="paint2_linear_2900_17813" x1="33.1597" y1="63.4993" x2="6.84328" y2="44.1189" gradientUnits="userSpaceOnUse">
<stop offset="0" stop-color="#00B140"/>
<stop offset="0.06" stop-color="#00AA3F"/>
<stop offset="0.14" stop-color="#00983D"/>
<stop offset="0.24" stop-color="#007B3A"/>
<stop offset="0.29" stop-color="#006838"/>
<stop offset="0.72" stop-color="#006838"/>
<stop offset="0.74" stop-color="#046E39"/>
<stop offset="0.85" stop-color="#209342"/>
<stop offset="0.94" stop-color="#30AA47"/>
<stop offset="1" stop-color="#37B34A"/>
</linearGradient>
<linearGradient id="paint3_linear_2900_17813" x1="74.8402" y1="63.4993" x2="101.157" y2="44.1189" gradientUnits="userSpaceOnUse">
<stop offset="0" stop-color="#00B140"/>
<stop offset="0.06" stop-color="#00AA3F"/>
<stop offset="0.14" stop-color="#00983D"/>
<stop offset="0.24" stop-color="#007B3A"/>
<stop offset="0.29" stop-color="#006838"/>
<stop offset="0.72" stop-color="#006838"/>
<stop offset="0.74" stop-color="#006C38"/>
<stop offset="0.85" stop-color="#00913C"/>
<stop offset="0.94" stop-color="#00A83F"/>
<stop offset="1" stop-color="#00B140"/>
</linearGradient>
<linearGradient id="paint4_linear_2900_17813" x1="53.9895" y1="3.6975" x2="53.9895" y2="102.185" gradientUnits="userSpaceOnUse">
<stop offset="0" stop-color="#00B140"/>
<stop offset="0.13" stop-color="#00AE3F"/>
<stop offset="0.19" stop-color="#00A73D"/>
<stop offset="0.23" stop-color="#009A3A"/>
<stop offset="0.27" stop-color="#008836"/>
<stop offset="0.29" stop-color="#007A33"/>
<stop offset="0.72" stop-color="#007A33"/>
<stop offset="0.74" stop-color="#008535"/>
<stop offset="0.78" stop-color="#00983A"/>
<stop offset="0.83" stop-color="#00A63D"/>
<stop offset="0.89" stop-color="#00AE3F"/>
<stop offset="1" stop-color="#00B140"/>
</linearGradient>
<linearGradient id="paint5_linear_2900_17813" x1="16.7343" y1="3.69746" x2="16.7343" y2="102.185" gradientUnits="userSpaceOnUse">
<stop offset="0" stop-color="#00B140"/>
<stop offset="0.13" stop-color="#00AE3F"/>
<stop offset="0.19" stop-color="#00A73D"/>
<stop offset="0.23" stop-color="#009A3A"/>
<stop offset="0.27" stop-color="#008836"/>
<stop offset="0.29" stop-color="#007A33"/>
<stop offset="0.72" stop-color="#007A33"/>
<stop offset="0.74" stop-color="#008535"/>
<stop offset="0.78" stop-color="#00983A"/>
<stop offset="0.83" stop-color="#00A63D"/>
<stop offset="0.89" stop-color="#00AE3F"/>
<stop offset="1" stop-color="#00B140"/>
</linearGradient>
<linearGradient id="paint6_linear_2900_17813" x1="54.0001" y1="3.69752" x2="54.0001" y2="102.185" gradientUnits="userSpaceOnUse">
<stop offset="0" stop-color="#00B140"/>
<stop offset="0.13" stop-color="#00AE3F"/>
<stop offset="0.19" stop-color="#00A73D"/>
<stop offset="0.23" stop-color="#009A3A"/>
<stop offset="0.27" stop-color="#008836"/>
<stop offset="0.29" stop-color="#007A33"/>
<stop offset="0.72" stop-color="#007A33"/>
<stop offset="0.74" stop-color="#008535"/>
<stop offset="0.78" stop-color="#00983A"/>
<stop offset="0.83" stop-color="#00A63D"/>
<stop offset="0.89" stop-color="#00AE3F"/>
<stop offset="1" stop-color="#00B140"/>
</linearGradient>
<linearGradient id="paint7_linear_2900_17813" x1="8.88038" y1="82.8977" x2="99.1157" y2="82.8977" gradientUnits="userSpaceOnUse">
<stop offset="0" stop-color="#BBBDBF"/>
<stop offset="0.03" stop-color="#CFD0D2"/>
<stop offset="0.06" stop-color="#E2E2E4"/>
<stop offset="0.1" stop-color="#EDEDEE"/>
<stop offset="0.14" stop-color="#F1F1F2"/>
<stop offset="0.2" stop-color="#E0E1E2"/>
<stop offset="0.29" stop-color="#BBBDBF"/>
<stop offset="0.32" stop-color="#CBCDCE"/>
<stop offset="0.38" stop-color="#E7E8E9"/>
<stop offset="0.44" stop-color="#F8F9F9"/>
<stop offset="0.48" stop-color="white"/>
<stop offset="0.55" stop-color="#FCFCFC"/>
<stop offset="0.59" stop-color="#F4F4F5"/>
<stop offset="0.6" stop-color="#F1F1F2"/>
<stop offset="0.66" stop-color="#D7D7D7"/>
<stop offset="0.77" stop-color="#999999"/>
<stop offset="0.78" stop-color="#9D9D9D"/>
<stop offset="0.82" stop-color="#C0C0C0"/>
<stop offset="0.87" stop-color="#DCDCDC"/>
<stop offset="0.91" stop-color="#EFEFEF"/>
<stop offset="0.95" stop-color="#FBFBFB"/>
<stop offset="1" stop-color="white"/>
</linearGradient>
<linearGradient id="paint8_linear_2900_17813" x1="8.88037" y1="45.1517" x2="99.1157" y2="45.1517" gradientUnits="userSpaceOnUse">
<stop offset="0" stop-color="#BBBDBF"/>
<stop offset="0.03" stop-color="#CFD0D2"/>
<stop offset="0.06" stop-color="#E2E2E4"/>
<stop offset="0.1" stop-color="#EDEDEE"/>
<stop offset="0.14" stop-color="#F1F1F2"/>
<stop offset="0.2" stop-color="#E0E1E2"/>
<stop offset="0.29" stop-color="#BBBDBF"/>
<stop offset="0.32" stop-color="#CBCDCE"/>
<stop offset="0.38" stop-color="#E7E8E9"/>
<stop offset="0.44" stop-color="#F8F9F9"/>
<stop offset="0.48" stop-color="white"/>
<stop offset="0.55" stop-color="#FCFCFC"/>
<stop offset="0.59" stop-color="#F4F4F5"/>
<stop offset="0.6" stop-color="#F1F1F2"/>
<stop offset="0.66" stop-color="#D7D7D7"/>
<stop offset="0.77" stop-color="#999999"/>
<stop offset="0.78" stop-color="#9D9D9D"/>
<stop offset="0.82" stop-color="#C0C0C0"/>
<stop offset="0.87" stop-color="#DCDCDC"/>
<stop offset="0.91" stop-color="#EFEFEF"/>
<stop offset="0.95" stop-color="#FBFBFB"/>
<stop offset="1" stop-color="white"/>
</linearGradient>
<linearGradient id="paint9_linear_2900_17813" x1="8.88018" y1="45.1051" x2="99.1155" y2="45.1051" gradientUnits="userSpaceOnUse">
<stop offset="0" stop-color="#BBBDBF"/>
<stop offset="0.03" stop-color="#CFD0D2"/>
<stop offset="0.06" stop-color="#E2E2E4"/>
<stop offset="0.1" stop-color="#EDEDEE"/>
<stop offset="0.14" stop-color="#F1F1F2"/>
<stop offset="0.2" stop-color="#E0E1E2"/>
<stop offset="0.29" stop-color="#BBBDBF"/>
<stop offset="0.32" stop-color="#CBCDCE"/>
<stop offset="0.38" stop-color="#E7E8E9"/>
<stop offset="0.44" stop-color="#F8F9F9"/>
<stop offset="0.48" stop-color="white"/>
<stop offset="0.55" stop-color="#FCFCFC"/>
<stop offset="0.59" stop-color="#F4F4F5"/>
<stop offset="0.6" stop-color="#F1F1F2"/>
<stop offset="0.66" stop-color="#D7D7D7"/>
<stop offset="0.77" stop-color="#999999"/>
<stop offset="0.78" stop-color="#9D9D9D"/>
<stop offset="0.82" stop-color="#C0C0C0"/>
<stop offset="0.87" stop-color="#DCDCDC"/>
<stop offset="0.91" stop-color="#EFEFEF"/>
<stop offset="0.95" stop-color="#FBFBFB"/>
<stop offset="1" stop-color="white"/>
</linearGradient>
<linearGradient id="paint10_linear_2900_17813" x1="8.88062" y1="21.3924" x2="99.1195" y2="21.3924" gradientUnits="userSpaceOnUse">
<stop offset="0" stop-color="#BBBDBF"/>
<stop offset="0.03" stop-color="#CFD0D2"/>
<stop offset="0.06" stop-color="#E2E2E4"/>
<stop offset="0.1" stop-color="#EDEDEE"/>
<stop offset="0.14" stop-color="#F1F1F2"/>
<stop offset="0.2" stop-color="#E0E1E2"/>
<stop offset="0.29" stop-color="#BBBDBF"/>
<stop offset="0.32" stop-color="#CBCDCE"/>
<stop offset="0.38" stop-color="#E7E8E9"/>
<stop offset="0.44" stop-color="#F8F9F9"/>
<stop offset="0.48" stop-color="white"/>
<stop offset="0.55" stop-color="#FCFCFC"/>
<stop offset="0.59" stop-color="#F4F4F5"/>
<stop offset="0.6" stop-color="#F1F1F2"/>
<stop offset="0.66" stop-color="#D7D7D7"/>
<stop offset="0.77" stop-color="#999999"/>
<stop offset="0.78" stop-color="#9D9D9D"/>
<stop offset="0.82" stop-color="#C0C0C0"/>
<stop offset="0.87" stop-color="#DCDCDC"/>
<stop offset="0.91" stop-color="#EFEFEF"/>
<stop offset="0.95" stop-color="#FBFBFB"/>
<stop offset="1" stop-color="white"/>
</linearGradient>
<linearGradient id="paint11_linear_2900_17813" x1="57.5433" y1="56.3016" x2="57.5433" y2="11.9783" gradientUnits="userSpaceOnUse">
<stop offset="0.35" stop-color="#00642B"/>
<stop offset="1" stop-color="#007A33"/>
</linearGradient>
<linearGradient id="paint12_linear_2900_17813" x1="54.5986" y1="57.7755" x2="96.2178" y2="43.9933" gradientUnits="userSpaceOnUse">
<stop offset="0.35" stop-color="#00642B"/>
<stop offset="1" stop-color="#007A33"/>
</linearGradient>
<linearGradient id="paint13_linear_2900_17813" x1="49.9507" y1="59.002" x2="76.0878" y2="95.1198" gradientUnits="userSpaceOnUse">
<stop offset="0.35" stop-color="#00642B"/>
<stop offset="1" stop-color="#007A33"/>
</linearGradient>
<linearGradient id="paint14_linear_2900_17813" x1="52.0345" y1="53.9597" x2="25.4455" y2="90.2604" gradientUnits="userSpaceOnUse">
<stop offset="0.35" stop-color="#00642B"/>
<stop offset="1" stop-color="#007A33"/>
</linearGradient>
<linearGradient id="paint15_linear_2900_17813" x1="55.2477" y1="53.6405" x2="12.8144" y2="39.9516" gradientUnits="userSpaceOnUse">
<stop offset="0.35" stop-color="#00642B"/>
<stop offset="1" stop-color="#007A33"/>
</linearGradient>
<linearGradient id="paint16_linear_2900_17813" x1="67.3552" y1="44.5492" x2="102.637" y2="44.5492" gradientUnits="userSpaceOnUse">
<stop offset="0" stop-color="#009345"/>
<stop offset="0.37" stop-color="#8BC53F"/>
<stop offset="0.49" stop-color="#ADD677"/>
<stop offset="0.63" stop-color="#CFE7B1"/>
<stop offset="0.75" stop-color="#E9F4DB"/>
<stop offset="0.84" stop-color="#F9FCF5"/>
<stop offset="0.9" stop-color="white"/>
</linearGradient>
<linearGradient id="paint17_linear_2900_17813" x1="67.4624" y1="65.8844" x2="78.3824" y2="99.453" gradientUnits="userSpaceOnUse">
<stop offset="0" stop-color="#009345"/>
<stop offset="0.37" stop-color="#8BC53F"/>
<stop offset="0.49" stop-color="#ADD677"/>
<stop offset="0.63" stop-color="#CFE7B1"/>
<stop offset="0.75" stop-color="#E9F4DB"/>
<stop offset="0.84" stop-color="#F9FCF5"/>
<stop offset="0.9" stop-color="white"/>
</linearGradient>
<linearGradient id="paint18_linear_2900_17813" x1="48.9657" y1="72.0205" x2="20.4327" y2="92.8043" gradientUnits="userSpaceOnUse">
<stop offset="0" stop-color="#009345"/>
<stop offset="0.37" stop-color="#8BC53F"/>
<stop offset="0.49" stop-color="#ADD677"/>
<stop offset="0.63" stop-color="#CFE7B1"/>
<stop offset="0.75" stop-color="#E9F4DB"/>
<stop offset="0.84" stop-color="#F9FCF5"/>
<stop offset="0.9" stop-color="white"/>
</linearGradient>
<linearGradient id="paint19_linear_2900_17813" x1="36.3739" y1="57.7667" x2="7.80982" y2="37.0746" gradientUnits="userSpaceOnUse">
<stop offset="0" stop-color="#009345"/>
<stop offset="0.37" stop-color="#8BC53F"/>
<stop offset="0.49" stop-color="#ADD677"/>
<stop offset="0.63" stop-color="#CFE7B1"/>
<stop offset="0.75" stop-color="#E9F4DB"/>
<stop offset="0.84" stop-color="#F9FCF5"/>
<stop offset="0.9" stop-color="white"/>
</linearGradient>
<linearGradient id="paint20_linear_2900_17813" x1="48.3245" y1="40.328" x2="59.1951" y2="6.79233" gradientUnits="userSpaceOnUse">
<stop offset="0" stop-color="#009345"/>
<stop offset="0.37" stop-color="#8BC53F"/>
<stop offset="0.49" stop-color="#ADD677"/>
<stop offset="0.63" stop-color="#CFE7B1"/>
<stop offset="0.75" stop-color="#E9F4DB"/>
<stop offset="0.84" stop-color="#F9FCF5"/>
<stop offset="0.9" stop-color="white"/>
</linearGradient>
<linearGradient id="paint21_linear_2900_17813" x1="68.2374" y1="50.7878" x2="94.2658" y2="43.2677" gradientUnits="userSpaceOnUse">
<stop offset="0" stop-color="#009345"/>
<stop offset="0.37" stop-color="#8BC53F"/>
<stop offset="0.46" stop-color="#ADD677"/>
<stop offset="0.55" stop-color="#CFE7B1"/>
<stop offset="0.64" stop-color="#E9F4DB"/>
<stop offset="0.7" stop-color="#F9FCF5"/>
<stop offset="0.74" stop-color="white"/>
</linearGradient>
<linearGradient id="paint22_linear_2900_17813" x1="39.5364" y1="50.9476" x2="13.6552" y2="43.4713" gradientUnits="userSpaceOnUse">
<stop offset="0" stop-color="#009345"/>
<stop offset="0.37" stop-color="#8BC53F"/>
<stop offset="0.46" stop-color="#ADD677"/>
<stop offset="0.55" stop-color="#CFE7B1"/>
<stop offset="0.64" stop-color="#E9F4DB"/>
<stop offset="0.7" stop-color="#F9FCF5"/>
<stop offset="0.74" stop-color="white"/>
</linearGradient>
<linearGradient id="paint23_linear_2900_17813" x1="45.4858" y1="68.8608" x2="28.8561" y2="90.246" gradientUnits="userSpaceOnUse">
<stop offset="0" stop-color="#009345"/>
<stop offset="0.37" stop-color="#8BC53F"/>
<stop offset="0.46" stop-color="#ADD677"/>
<stop offset="0.55" stop-color="#CFE7B1"/>
<stop offset="0.64" stop-color="#E9F4DB"/>
<stop offset="0.7" stop-color="#F9FCF5"/>
<stop offset="0.74" stop-color="white"/>
</linearGradient>
<linearGradient id="paint24_linear_2900_17813" x1="63.365" y1="68.2217" x2="78.5602" y2="90.6523" gradientUnits="userSpaceOnUse">
<stop offset="0" stop-color="#009345"/>
<stop offset="0.37" stop-color="#8BC53F"/>
<stop offset="0.46" stop-color="#ADD677"/>
<stop offset="0.55" stop-color="#CFE7B1"/>
<stop offset="0.64" stop-color="#E9F4DB"/>
<stop offset="0.7" stop-color="#F9FCF5"/>
<stop offset="0.74" stop-color="white"/>
</linearGradient>
<linearGradient id="paint25_linear_2900_17813" x1="8.41406" y1="57.2627" x2="99.7647" y2="57.2627" gradientUnits="userSpaceOnUse">
<stop offset="0" stop-color="#007A33"/>
<stop offset="0.5" stop-color="#78BE20"/>
<stop offset="0.67" stop-color="#4CA526"/>
<stop offset="0.89" stop-color="#15862F"/>
<stop offset="1" stop-color="#007A33"/>
</linearGradient>
<linearGradient id="paint26_linear_2900_17813" x1="28.44" y1="39.2737" x2="79.857" y2="39.2737" gradientUnits="userSpaceOnUse">
<stop offset="0" stop-color="#007A33"/>
<stop offset="0.5" stop-color="#78BE20"/>
<stop offset="0.67" stop-color="#4CA526"/>
<stop offset="0.89" stop-color="#15862F"/>
<stop offset="1" stop-color="#007A33"/>
</linearGradient>
<linearGradient id="paint27_linear_2900_17813" x1="8.41438" y1="74.9038" x2="99.765" y2="74.9038" gradientUnits="userSpaceOnUse">
<stop offset="0" stop-color="#78BE20"/>
<stop offset="0.21" stop-color="#00B140"/>
<stop offset="0.82" stop-color="#00B140"/>
<stop offset="0.84" stop-color="#06B13E"/>
<stop offset="0.88" stop-color="#18B339"/>
<stop offset="0.93" stop-color="#36B631"/>
<stop offset="0.97" stop-color="#5EBB26"/>
<stop offset="1" stop-color="#78BE20"/>
</linearGradient>
<linearGradient id="paint28_linear_2900_17813" x1="8.41438" y1="74.1507" x2="99.765" y2="74.1507" gradientUnits="userSpaceOnUse">
<stop offset="0" stop-color="#8BC53F"/>
<stop offset="0.06" stop-color="#95CA50"/>
<stop offset="0.19" stop-color="#B0D77C"/>
<stop offset="0.37" stop-color="#DAECC3"/>
<stop offset="0.51" stop-color="white"/>
<stop offset="0.68" stop-color="#D0E7B2"/>
<stop offset="0.83" stop-color="#ABD574"/>
<stop offset="0.94" stop-color="#93C94D"/>
<stop offset="1" stop-color="#8BC53F"/>
</linearGradient>
<linearGradient id="paint29_linear_2900_17813" x1="0.391475" y1="60.6159" x2="0.750106" y2="60.6159" gradientUnits="userSpaceOnUse">
<stop offset="0" stop-color="#007A33"/>
<stop offset="0.5" stop-color="#78BE20"/>
<stop offset="0.67" stop-color="#4CA526"/>
<stop offset="0.89" stop-color="#15862F"/>
<stop offset="1" stop-color="#007A33"/>
</linearGradient>
<linearGradient id="paint30_linear_2900_17813" x1="13.9155" y1="58.2525" x2="95.766" y2="58.2525" gradientUnits="userSpaceOnUse">
<stop offset="0" stop-color="#00B140"/>
<stop offset="0.21" stop-color="#3EB93F"/>
<stop offset="0.41" stop-color="#75C13F"/>
<stop offset="0.51" stop-color="#8BC53F"/>
<stop offset="1" stop-color="#00B140"/>
</linearGradient>
<linearGradient id="paint31_linear_2900_17813" x1="11.4053" y1="59.6834" x2="96.7955" y2="59.6834" gradientUnits="userSpaceOnUse">
<stop offset="0" stop-color="#B6B6B6"/>
<stop offset="0.05" stop-color="#D0D0D0"/>
<stop offset="0.1" stop-color="#E3E3E3"/>
<stop offset="0.15" stop-color="#EEEEEE"/>
<stop offset="0.2" stop-color="#F2F2F2"/>
<stop offset="0.26" stop-color="#E1E1E1"/>
<stop offset="0.38" stop-color="#B6B6B6"/>
<stop offset="0.39" stop-color="#B3B3B3"/>
<stop offset="0.43" stop-color="#CBCBCB"/>
<stop offset="0.47" stop-color="#E7E7E7"/>
<stop offset="0.52" stop-color="#F8F8F8"/>
<stop offset="0.55" stop-color="white"/>
<stop offset="0.58" stop-color="#EAEAEA"/>
<stop offset="0.66" stop-color="#C2C2C2"/>
<stop offset="0.7" stop-color="#B3B3B3"/>
<stop offset="0.75" stop-color="#C5C5C6"/>
<stop offset="0.84" stop-color="#F1F1F2"/>
<stop offset="0.91" stop-color="#FAFAFA"/>
<stop offset="1" stop-color="white"/>
</linearGradient>
<linearGradient id="paint32_linear_2900_17813" x1="32.7584" y1="38.9653" x2="75.683" y2="38.9653" gradientUnits="userSpaceOnUse">
<stop offset="0" stop-color="#B6B6B6"/>
<stop offset="0.05" stop-color="#D0D0D0"/>
<stop offset="0.1" stop-color="#E3E3E3"/>
<stop offset="0.15" stop-color="#EEEEEE"/>
<stop offset="0.2" stop-color="#F2F2F2"/>
<stop offset="0.26" stop-color="#E1E1E1"/>
<stop offset="0.38" stop-color="#B6B6B6"/>
<stop offset="0.39" stop-color="#B3B3B3"/>
<stop offset="0.43" stop-color="#CBCBCB"/>
<stop offset="0.47" stop-color="#E7E7E7"/>
<stop offset="0.52" stop-color="#F8F8F8"/>
<stop offset="0.55" stop-color="white"/>
<stop offset="0.61" stop-color="#D0D0D0"/>
<stop offset="0.67" stop-color="#A8A8A8"/>
<stop offset="0.7" stop-color="#999999"/>
<stop offset="0.73" stop-color="#ACABAB"/>
<stop offset="0.81" stop-color="#DDDCDB"/>
<stop offset="0.84" stop-color="#F7F6F5"/>
<stop offset="0.9" stop-color="#FBFAFA"/>
<stop offset="1" stop-color="white"/>
</linearGradient>
<linearGradient id="paint33_linear_2900_17813" x1="22.15" y1="64.4103" x2="23.8105" y2="46.7405" gradientUnits="userSpaceOnUse">
<stop offset="0.18" stop-color="#009345"/>
<stop offset="0.45" stop-color="#00B159"/>
<stop offset="0.78" stop-color="#8BC53F"/>
<stop offset="0.83" stop-color="#ADD677"/>
<stop offset="0.89" stop-color="#CFE7B1"/>
<stop offset="0.94" stop-color="#E9F4DB"/>
<stop offset="0.98" stop-color="#F9FCF5"/>
<stop offset="1" stop-color="white"/>
</linearGradient>
<linearGradient id="paint34_linear_2900_17813" x1="24.6493" y1="49.1182" x2="22.6194" y2="69.3055" gradientUnits="userSpaceOnUse">
<stop offset="0.18" stop-color="#009345"/>
<stop offset="0.45" stop-color="#00B159"/>
<stop offset="0.78" stop-color="#8BC53F"/>
<stop offset="0.83" stop-color="#ADD677"/>
<stop offset="0.89" stop-color="#CFE7B1"/>
<stop offset="0.94" stop-color="#E9F4DB"/>
<stop offset="0.98" stop-color="#F9FCF5"/>
<stop offset="1" stop-color="white"/>
</linearGradient>
<linearGradient id="paint35_linear_2900_17813" x1="26.1052" y1="49.2652" x2="24.0753" y2="69.449" gradientUnits="userSpaceOnUse">
<stop offset="0.18" stop-color="#009345"/>
<stop offset="0.45" stop-color="#00B159"/>
<stop offset="0.78" stop-color="#8BC53F"/>
<stop offset="0.83" stop-color="#ADD677"/>
<stop offset="0.89" stop-color="#CFE7B1"/>
<stop offset="0.94" stop-color="#E9F4DB"/>
<stop offset="0.98" stop-color="#F9FCF5"/>
<stop offset="1" stop-color="white"/>
</linearGradient>
<linearGradient id="paint36_linear_2900_17813" x1="20.9123" y1="48.7416" x2="18.8788" y2="68.929" gradientUnits="userSpaceOnUse">
<stop offset="0.18" stop-color="#009345"/>
<stop offset="0.45" stop-color="#00B159"/>
<stop offset="0.78" stop-color="#8BC53F"/>
<stop offset="0.83" stop-color="#ADD677"/>
<stop offset="0.89" stop-color="#CFE7B1"/>
<stop offset="0.94" stop-color="#E9F4DB"/>
<stop offset="0.98" stop-color="#F9FCF5"/>
<stop offset="1" stop-color="white"/>
</linearGradient>
<linearGradient id="paint37_linear_2900_17813" x1="37.7794" y1="61.3009" x2="39.3215" y2="43.9898" gradientUnits="userSpaceOnUse">
<stop offset="0.18" stop-color="#009345"/>
<stop offset="0.45" stop-color="#00B159"/>
<stop offset="0.78" stop-color="#8BC53F"/>
<stop offset="0.83" stop-color="#ADD677"/>
<stop offset="0.89" stop-color="#CFE7B1"/>
<stop offset="0.94" stop-color="#E9F4DB"/>
<stop offset="0.98" stop-color="#F9FCF5"/>
<stop offset="1" stop-color="white"/>
</linearGradient>
<linearGradient id="paint38_linear_2900_17813" x1="39.1456" y1="45.4494" x2="38.0195" y2="66.8346" gradientUnits="userSpaceOnUse">
<stop offset="0.18" stop-color="#009345"/>
<stop offset="0.45" stop-color="#00B159"/>
<stop offset="0.78" stop-color="#8BC53F"/>
<stop offset="0.83" stop-color="#ADD677"/>
<stop offset="0.89" stop-color="#CFE7B1"/>
<stop offset="0.94" stop-color="#E9F4DB"/>
<stop offset="0.98" stop-color="#F9FCF5"/>
<stop offset="1" stop-color="white"/>
</linearGradient>
<linearGradient id="paint39_linear_2900_17813" x1="41.4334" y1="45.5678" x2="40.3073" y2="66.953" gradientUnits="userSpaceOnUse">
<stop offset="0.18" stop-color="#009345"/>
<stop offset="0.45" stop-color="#00B159"/>
<stop offset="0.78" stop-color="#8BC53F"/>
<stop offset="0.83" stop-color="#ADD677"/>
<stop offset="0.89" stop-color="#CFE7B1"/>
<stop offset="0.94" stop-color="#E9F4DB"/>
<stop offset="0.98" stop-color="#F9FCF5"/>
<stop offset="1" stop-color="white"/>
</linearGradient>
<linearGradient id="paint40_linear_2900_17813" x1="53.7276" y1="60.7988" x2="53.7276" y2="43.875" gradientUnits="userSpaceOnUse">
<stop offset="0.18" stop-color="#009345"/>
<stop offset="0.45" stop-color="#00B159"/>
<stop offset="0.78" stop-color="#8BC53F"/>
<stop offset="0.83" stop-color="#ADD677"/>
<stop offset="0.89" stop-color="#CFE7B1"/>
<stop offset="0.94" stop-color="#E9F4DB"/>
<stop offset="0.98" stop-color="#F9FCF5"/>
<stop offset="1" stop-color="white"/>
</linearGradient>
<linearGradient id="paint41_linear_2900_17813" x1="53.8096" y1="49.0859" x2="53.8096" y2="58.3314" gradientUnits="userSpaceOnUse">
<stop offset="0.18" stop-color="#009345"/>
<stop offset="0.45" stop-color="#00B159"/>
<stop offset="0.78" stop-color="#8BC53F"/>
<stop offset="0.83" stop-color="#ADD677"/>
<stop offset="0.89" stop-color="#CFE7B1"/>
<stop offset="0.94" stop-color="#E9F4DB"/>
<stop offset="0.98" stop-color="#F9FCF5"/>
<stop offset="1" stop-color="white"/>
</linearGradient>
<linearGradient id="paint42_linear_2900_17813" x1="55.883" y1="45.6682" x2="55.883" y2="64.8334" gradientUnits="userSpaceOnUse">
<stop offset="0.18" stop-color="#009345"/>
<stop offset="0.45" stop-color="#00B159"/>
<stop offset="0.78" stop-color="#8BC53F"/>
<stop offset="0.83" stop-color="#ADD677"/>
<stop offset="0.89" stop-color="#CFE7B1"/>
<stop offset="0.94" stop-color="#E9F4DB"/>
<stop offset="0.98" stop-color="#F9FCF5"/>
<stop offset="1" stop-color="white"/>
</linearGradient>
<linearGradient id="paint43_linear_2900_17813" x1="51.6583" y1="59.7982" x2="51.6583" y2="64.0516" gradientUnits="userSpaceOnUse">
<stop offset="0.18" stop-color="#009345"/>
<stop offset="0.45" stop-color="#00B159"/>
<stop offset="0.78" stop-color="#8BC53F"/>
<stop offset="0.83" stop-color="#ADD677"/>
<stop offset="0.89" stop-color="#CFE7B1"/>
<stop offset="0.94" stop-color="#E9F4DB"/>
<stop offset="0.98" stop-color="#F9FCF5"/>
<stop offset="1" stop-color="white"/>
</linearGradient>
<linearGradient id="paint44_linear_2900_17813" x1="70.9412" y1="62.6709" x2="70.2275" y2="44.7788" gradientUnits="userSpaceOnUse">
<stop offset="0.18" stop-color="#009345"/>
<stop offset="0.45" stop-color="#00B159"/>
<stop offset="0.78" stop-color="#8BC53F"/>
<stop offset="0.83" stop-color="#ADD677"/>
<stop offset="0.89" stop-color="#CFE7B1"/>
<stop offset="0.94" stop-color="#E9F4DB"/>
<stop offset="0.98" stop-color="#F9FCF5"/>
<stop offset="1" stop-color="white"/>
</linearGradient>
<linearGradient id="paint45_linear_2900_17813" x1="69.6507" y1="46.3998" x2="70.6262" y2="68.8967" gradientUnits="userSpaceOnUse">
<stop offset="0.18" stop-color="#009345"/>
<stop offset="0.45" stop-color="#00B159"/>
<stop offset="0.78" stop-color="#8BC53F"/>
<stop offset="0.83" stop-color="#ADD677"/>
<stop offset="0.89" stop-color="#CFE7B1"/>
<stop offset="0.94" stop-color="#E9F4DB"/>
<stop offset="0.98" stop-color="#F9FCF5"/>
<stop offset="1" stop-color="white"/>
</linearGradient>
<linearGradient id="paint46_linear_2900_17813" x1="68.2594" y1="46.4643" x2="69.2349" y2="68.9362" gradientUnits="userSpaceOnUse">
<stop offset="0.18" stop-color="#009345"/>
<stop offset="0.45" stop-color="#00B159"/>
<stop offset="0.78" stop-color="#8BC53F"/>
<stop offset="0.83" stop-color="#ADD677"/>
<stop offset="0.89" stop-color="#CFE7B1"/>
<stop offset="0.94" stop-color="#E9F4DB"/>
<stop offset="0.98" stop-color="#F9FCF5"/>
<stop offset="1" stop-color="white"/>
</linearGradient>
<linearGradient id="paint47_linear_2900_17813" x1="74.876" y1="46.1739" x2="75.855" y2="68.6601" gradientUnits="userSpaceOnUse">
<stop offset="0.18" stop-color="#009345"/>
<stop offset="0.45" stop-color="#00B159"/>
<stop offset="0.78" stop-color="#8BC53F"/>
<stop offset="0.83" stop-color="#ADD677"/>
<stop offset="0.89" stop-color="#CFE7B1"/>
<stop offset="0.94" stop-color="#E9F4DB"/>
<stop offset="0.98" stop-color="#F9FCF5"/>
<stop offset="1" stop-color="white"/>
</linearGradient>
<linearGradient id="paint48_linear_2900_17813" x1="69.5743" y1="46.4034" x2="70.5498" y2="68.886" gradientUnits="userSpaceOnUse">
<stop offset="0.18" stop-color="#009345"/>
<stop offset="0.45" stop-color="#00B159"/>
<stop offset="0.78" stop-color="#8BC53F"/>
<stop offset="0.83" stop-color="#ADD677"/>
<stop offset="0.89" stop-color="#CFE7B1"/>
<stop offset="0.94" stop-color="#E9F4DB"/>
<stop offset="0.98" stop-color="#F9FCF5"/>
<stop offset="1" stop-color="white"/>
</linearGradient>
<linearGradient id="paint49_linear_2900_17813" x1="85.9176" y1="64.8298" x2="84.0204" y2="47.9885" gradientUnits="userSpaceOnUse">
<stop offset="0.18" stop-color="#009345"/>
<stop offset="0.45" stop-color="#00B159"/>
<stop offset="0.78" stop-color="#8BC53F"/>
<stop offset="0.83" stop-color="#ADD677"/>
<stop offset="0.89" stop-color="#CFE7B1"/>
<stop offset="0.94" stop-color="#E9F4DB"/>
<stop offset="0.98" stop-color="#F9FCF5"/>
<stop offset="1" stop-color="white"/>
</linearGradient>
<linearGradient id="paint50_linear_2900_17813" x1="85.444" y1="52.4032" x2="86.6311" y2="69.4131" gradientUnits="userSpaceOnUse">
<stop offset="0.18" stop-color="#009345"/>
<stop offset="0.45" stop-color="#00B159"/>
<stop offset="0.78" stop-color="#8BC53F"/>
<stop offset="0.83" stop-color="#ADD677"/>
<stop offset="0.89" stop-color="#CFE7B1"/>
<stop offset="0.94" stop-color="#E9F4DB"/>
<stop offset="0.98" stop-color="#F9FCF5"/>
<stop offset="1" stop-color="white"/>
</linearGradient>
<linearGradient id="paint51_linear_2900_17813" x1="82.8047" y1="52.5861" x2="83.9882" y2="69.596" gradientUnits="userSpaceOnUse">
<stop offset="0.18" stop-color="#009345"/>
<stop offset="0.45" stop-color="#00B159"/>
<stop offset="0.78" stop-color="#8BC53F"/>
<stop offset="0.83" stop-color="#ADD677"/>
<stop offset="0.89" stop-color="#CFE7B1"/>
<stop offset="0.94" stop-color="#E9F4DB"/>
<stop offset="0.98" stop-color="#F9FCF5"/>
<stop offset="1" stop-color="white"/>
</linearGradient>
<linearGradient id="paint52_linear_2900_17813" x1="87.0799" y1="52.2885" x2="88.2634" y2="69.2984" gradientUnits="userSpaceOnUse">
<stop offset="0.18" stop-color="#009345"/>
<stop offset="0.45" stop-color="#00B159"/>
<stop offset="0.78" stop-color="#8BC53F"/>
<stop offset="0.83" stop-color="#ADD677"/>
<stop offset="0.89" stop-color="#CFE7B1"/>
<stop offset="0.94" stop-color="#E9F4DB"/>
<stop offset="0.98" stop-color="#F9FCF5"/>
<stop offset="1" stop-color="white"/>
</linearGradient>
<clipPath id="clip0_2900_17813">
<rect width="107.216" height="103.637" fill="white" transform="translate(0.391602)"/>
</clipPath>
</defs>
</svg>
