<svg xmlns="http://www.w3.org/2000/svg" xmlns:xlink="http://www.w3.org/1999/xlink" version="1.1" width="270.3985016269639" height="369.8245345233382" style="shape-rendering:geometricPrecision; text-rendering:geometricPrecision; image-rendering:optimizeQuality; fill-rule:evenodd; clip-rule:evenodd" viewBox="0 0 805.0 1101.0">
<g><path style="opacity:0.997" fill="#27a6b0" d="M -0.5,-0.5 C 168.167,-0.5 336.833,-0.5 505.5,-0.5C 537.104,1.27919 568.771,4.11252 600.5,8C 641.937,12.3617 679.604,26.3617 713.5,50C 759.995,87.288 781.662,135.788 778.5,195.5C 773.437,185.041 768.104,174.708 762.5,164.5C 753.778,148.378 743.112,133.712 730.5,120.5C 713.197,102.348 692.53,89.8479 668.5,83C 682.067,94.4029 692.401,108.236 699.5,124.5C 705.335,138.002 709.335,152.002 711.5,166.5C 712.429,180.471 712.762,194.471 712.5,208.5C 710.167,220.118 707.501,231.785 704.5,243.5C 700.434,254.299 695.267,264.632 689,274.5C 691.897,260.715 693.73,246.715 694.5,232.5C 694.822,226.642 694.489,220.975 693.5,215.5C 692.98,205.297 690.646,195.631 686.5,186.5C 679.152,166.652 666.485,151.152 648.5,140C 647.668,139.312 647.002,139.479 646.5,140.5C 649.897,149.882 651.897,159.549 652.5,169.5C 653.325,183.736 651.992,197.736 648.5,211.5C 646.436,216.18 644.27,220.846 642,225.5C 641.501,221.179 641.334,216.846 641.5,212.5C 641.702,200.67 639.702,189.336 635.5,178.5C 632.794,169.034 629.127,160.034 624.5,151.5C 617.737,136.311 610.737,121.311 603.5,106.5C 602.345,102.203 600.679,98.2025 598.5,94.5C 593.866,79.4305 592.7,64.0972 595,48.5C 595.862,45.0507 597.028,41.7174 598.5,38.5C 598,38.1667 597.5,37.8333 597,37.5C 577.361,45.1017 564.861,59.1017 559.5,79.5C 557.532,85.6029 556.032,91.9362 555,98.5C 554.5,107.827 554.334,117.161 554.5,126.5C 554.659,135.561 555.325,144.561 556.5,153.5C 559.263,169.077 561.263,184.743 562.5,200.5C 562.5,205.5 562.5,210.5 562.5,215.5C 561.275,220.29 560.608,225.29 560.5,230.5C 558.805,236.629 557.472,242.963 556.5,249.5C 553.163,259.864 549.496,270.197 545.5,280.5C 541.42,288.329 537.087,295.996 532.5,303.5C 530.031,306.144 527.698,308.977 525.5,312C 524.833,312.667 524.167,312.667 523.5,312C 526.356,304.743 528.356,297.243 529.5,289.5C 532.822,277.481 535.155,265.148 536.5,252.5C 537.055,242.509 537.388,232.509 537.5,222.5C 537.928,211.942 537.262,201.609 535.5,191.5C 532.542,163.262 521.709,138.595 503,117.5C 506.021,138.109 506.187,158.776 503.5,179.5C 501.784,186.739 499.95,194.073 498,201.5C 497.667,191.833 497.333,182.167 497,172.5C 496.581,168.608 495.748,164.942 494.5,161.5C 492.524,149.559 487.858,138.892 480.5,129.5C 473.792,120.458 465.792,112.792 456.5,106.5C 450.659,102.746 444.659,99.2456 438.5,96C 420.34,88.3366 402.007,81.17 383.5,74.5C 372.475,69.9667 362.641,63.6333 354,55.5C 347.229,46.6877 343.729,36.6877 343.5,25.5C 335.14,36.213 328.306,47.8797 323,60.5C 321.438,64.0145 320.605,67.6811 320.5,71.5C 319.778,71.9175 319.278,72.5842 319,73.5C 318.017,84.6045 318.517,95.6045 320.5,106.5C 324.805,120.109 330.472,133.109 337.5,145.5C 340.775,152.384 343.775,159.384 346.5,166.5C 351.034,180.258 351.701,194.258 348.5,208.5C 344.946,221.281 339.446,233.281 332,244.5C 332.861,237.587 333.361,230.587 333.5,223.5C 333.499,219.651 333.165,215.984 332.5,212.5C 329.735,194.532 323.069,178.199 312.5,163.5C 307.486,154.805 302.986,145.805 299,136.5C 296.356,126.635 294.356,116.635 293,106.5C 276.735,122.791 269.902,142.457 272.5,165.5C 274.101,179.85 275.768,194.183 277.5,208.5C 277.572,219.183 277.238,229.85 276.5,240.5C 274.269,253.087 270.936,265.42 266.5,277.5C 262.537,286.098 258.537,294.764 254.5,303.5C 252.259,307.593 249.759,311.593 247,315.5C 247.163,311.837 247.663,308.171 248.5,304.5C 250.32,295.939 251.32,287.272 251.5,278.5C 253.006,267.019 252.673,255.686 250.5,244.5C 248.67,224.51 240.67,207.51 226.5,193.5C 225.871,202.573 224.704,211.573 223,220.5C 219.652,230.048 215.818,239.381 211.5,248.5C 208.086,254.997 204.419,261.33 200.5,267.5C 189.91,266.358 179.243,266.192 168.5,267C 167.178,269.168 166.511,269.001 166.5,266.5C 168.5,261.833 170.5,257.167 172.5,252.5C 175.573,248.334 177.906,243.667 179.5,238.5C 182.422,232.402 184.755,226.069 186.5,219.5C 194.052,195.277 194.385,170.944 187.5,146.5C 179.764,171.193 167.097,192.859 149.5,211.5C 142.327,218.339 134.494,224.339 126,229.5C 125.333,228.833 125.333,228.167 126,227.5C 129.441,223.898 132.275,219.898 134.5,215.5C 138.355,209.79 141.688,203.79 144.5,197.5C 149.404,187.697 153.738,177.697 157.5,167.5C 158.961,162.195 160.294,156.862 161.5,151.5C 166.083,134.756 167.416,117.756 165.5,100.5C 164.879,90.7708 162.879,81.4374 159.5,72.5C 152.812,53.6447 141.645,37.9781 126,25.5C 128.014,47.7171 125.514,69.3838 118.5,90.5C 115.983,95.3717 113.649,100.372 111.5,105.5C 101.343,120.997 89.3428,134.997 75.5,147.5C 70.8073,151.861 66.1406,156.195 61.5,160.5C 57.8333,163.5 54.5,166.833 51.5,170.5C 34.1667,170.5 16.8333,170.5 -0.5,170.5C -0.5,113.5 -0.5,56.5 -0.5,-0.5 Z"/></g>
<g><path style="opacity:1" fill="#83ccc8" d="M 383.5,74.5 C 383.265,75.0967 382.765,75.4301 382,75.5C 380.107,74.8037 378.274,73.9704 376.5,73C 371.5,72.8333 366.5,72.6667 361.5,72.5C 348.064,72.6046 334.564,72.9379 321,73.5C 320.536,72.9056 320.369,72.2389 320.5,71.5C 320.605,67.6811 321.438,64.0145 323,60.5C 328.306,47.8797 335.14,36.213 343.5,25.5C 343.729,36.6877 347.229,46.6877 354,55.5C 362.641,63.6333 372.475,69.9667 383.5,74.5 Z"/></g>
<g><path style="opacity:1" fill="#82ccc8" d="M 598.5,94.5 C 598.565,94.9382 598.399,95.2716 598,95.5C 596.209,92.0072 594.876,88.3405 594,84.5C 582.581,85.4878 571.081,85.8211 559.5,85.5C 559.5,83.5 559.5,81.5 559.5,79.5C 564.861,59.1017 577.361,45.1017 597,37.5C 597.5,37.8333 598,38.1667 598.5,38.5C 597.028,41.7174 595.862,45.0507 595,48.5C 592.7,64.0972 593.866,79.4305 598.5,94.5 Z"/></g>
<g><path style="opacity:1" fill="#83ccc8" d="M 159.5,72.5 C 159.5,73.5 159.5,74.5 159.5,75.5C 147.833,75.5 136.167,75.5 124.5,75.5C 123.17,81.3248 121.336,86.9915 119,92.5C 118.536,91.9056 118.369,91.2389 118.5,90.5C 125.514,69.3838 128.014,47.7171 126,25.5C 141.645,37.9781 152.812,53.6447 159.5,72.5 Z"/></g>
<g><path style="opacity:1" fill="#fefefe" d="M 397.5,108.5 C 411.552,113.69 424.552,120.69 436.5,129.5C 447.12,138.084 454.787,148.751 459.5,161.5C 463.141,178.404 463.474,195.404 460.5,212.5C 457.28,220.608 453.28,228.274 448.5,235.5C 443.042,242.128 437.376,248.628 431.5,255C 422.641,262.365 413.974,269.865 405.5,277.5C 381.505,295.662 364.672,318.996 355,347.5C 352.733,354.668 351.566,362.001 351.5,369.5C 350.728,373.75 350.228,378.083 350,382.5C 339.825,371.143 334.325,357.81 333.5,342.5C 332.071,320.728 336.738,300.394 347.5,281.5C 353.8,272.19 360.134,262.856 366.5,253.5C 375.455,242.256 381.789,229.59 385.5,215.5C 387.963,209.866 389.296,203.866 389.5,197.5C 390.165,194.016 390.499,190.349 390.5,186.5C 390.62,180.267 389.953,174.267 388.5,168.5C 387.964,164.686 386.964,161.019 385.5,157.5C 383.509,151.511 380.509,146.177 376.5,141.5C 370.621,132.775 364.121,124.441 357,116.5C 354.241,112.593 351.741,108.593 349.5,104.5C 345.758,95.1972 344.591,85.5306 346,75.5C 349.782,82.9485 355.282,88.7818 362.5,93C 373.718,99.2775 385.384,104.444 397.5,108.5 Z"/></g>
<g><path style="opacity:1" fill="#7bcac7" d="M 320.5,71.5 C 320.369,72.2389 320.536,72.9056 321,73.5C 334.564,72.9379 348.064,72.6046 361.5,72.5C 366.5,72.6667 371.5,72.8333 376.5,73C 378.274,73.9704 380.107,74.8037 382,75.5C 382.765,75.4301 383.265,75.0967 383.5,74.5C 402.007,81.17 420.34,88.3366 438.5,96C 444.659,99.2456 450.659,102.746 456.5,106.5C 456.44,107.043 456.107,107.376 455.5,107.5C 453.201,106.365 451.034,105.032 449,103.5C 431.574,104.326 414.074,104.826 396.5,105C 397.337,106.011 397.67,107.178 397.5,108.5C 385.384,104.444 373.718,99.2775 362.5,93C 355.282,88.7818 349.782,82.9485 346,75.5C 344.591,85.5306 345.758,95.1972 349.5,104.5C 348.175,103.047 347.342,103.381 347,105.5C 338.912,104.352 330.746,104.185 322.5,105C 321.956,105.717 321.289,106.217 320.5,106.5C 318.517,95.6045 318.017,84.6045 319,73.5C 319.278,72.5842 319.778,71.9175 320.5,71.5 Z"/></g>
<g><path style="opacity:1" fill="#79cac6" d="M 559.5,79.5 C 559.5,81.5 559.5,83.5 559.5,85.5C 571.081,85.8211 582.581,85.4878 594,84.5C 594.876,88.3405 596.209,92.0072 598,95.5C 598.399,95.2716 598.565,94.9382 598.5,94.5C 600.679,98.2025 602.345,102.203 603.5,106.5C 603.631,107.239 603.464,107.906 603,108.5C 602.044,107.421 601.211,106.255 600.5,105C 585.837,104.5 571.17,104.333 556.5,104.5C 556.204,112.014 555.538,119.347 554.5,126.5C 554.334,117.161 554.5,107.827 555,98.5C 556.032,91.9362 557.532,85.6029 559.5,79.5 Z"/></g>
<g><path style="opacity:1" fill="#7acac6" d="M 159.5,72.5 C 162.879,81.4374 164.879,90.7708 165.5,100.5C 164.566,101.568 164.232,102.901 164.5,104.5C 147.589,104.825 130.756,104.492 114,103.5C 113.333,104.833 112.667,106.167 112,107.5C 111.536,106.906 111.369,106.239 111.5,105.5C 113.649,100.372 115.983,95.3717 118.5,90.5C 118.369,91.2389 118.536,91.9056 119,92.5C 121.336,86.9915 123.17,81.3248 124.5,75.5C 136.167,75.5 147.833,75.5 159.5,75.5C 159.5,74.5 159.5,73.5 159.5,72.5 Z"/></g>
<g><path style="opacity:1" fill="#75c9c6" d="M 730.5,120.5 C 728.767,121.008 728.434,121.841 729.5,123C 719.454,123.215 709.454,123.715 699.5,124.5C 692.401,108.236 682.067,94.4029 668.5,83C 692.53,89.8479 713.197,102.348 730.5,120.5 Z"/></g>
<g><path style="opacity:1" fill="#73c9c6" d="M 456.5,106.5 C 465.792,112.792 473.792,120.458 480.5,129.5C 480.565,129.938 480.399,130.272 480,130.5C 477.294,128.129 474.961,125.463 473,122.5C 459.896,123.158 446.729,123.825 433.5,124.5C 434.605,125.892 435.939,127.059 437.5,128C 436.944,128.383 436.611,128.883 436.5,129.5C 424.552,120.69 411.552,113.69 397.5,108.5C 397.67,107.178 397.337,106.011 396.5,105C 414.074,104.826 431.574,104.326 449,103.5C 451.034,105.032 453.201,106.365 455.5,107.5C 456.107,107.376 456.44,107.043 456.5,106.5 Z"/></g>
<g><path style="opacity:1" fill="#6ec8c6" d="M 349.5,104.5 C 351.741,108.593 354.241,112.593 357,116.5C 364.121,124.441 370.621,132.775 376.5,141.5C 363.913,142.48 351.246,142.813 338.5,142.5C 338.737,143.791 338.404,144.791 337.5,145.5C 330.472,133.109 324.805,120.109 320.5,106.5C 321.289,106.217 321.956,105.717 322.5,105C 330.746,104.185 338.912,104.352 347,105.5C 347.342,103.381 348.175,103.047 349.5,104.5 Z"/></g>
<g><path style="opacity:1" fill="#6bc7c5" d="M 480.5,129.5 C 487.858,138.892 492.524,149.559 494.5,161.5C 494.674,166.021 494.007,166.355 492.5,162.5C 482.522,161.501 472.522,161.168 462.5,161.5C 462.649,162.552 462.483,163.552 462,164.5C 461.333,163.167 460.667,161.833 460,160.5C 459.601,160.728 459.435,161.062 459.5,161.5C 454.787,148.751 447.12,138.084 436.5,129.5C 436.611,128.883 436.944,128.383 437.5,128C 435.939,127.059 434.605,125.892 433.5,124.5C 446.729,123.825 459.896,123.158 473,122.5C 474.961,125.463 477.294,128.129 480,130.5C 480.399,130.272 480.565,129.938 480.5,129.5 Z"/></g>
<g><path style="opacity:1" fill="#6ec8c6" d="M 165.5,100.5 C 167.416,117.756 166.083,134.756 161.5,151.5C 160.724,148.325 160.557,144.992 161,141.5C 134.906,142.329 108.739,142.829 82.5,143C 80.3333,145.167 78.1667,147.333 76,149.5C 75.5357,148.906 75.369,148.239 75.5,147.5C 89.3428,134.997 101.343,120.997 111.5,105.5C 111.369,106.239 111.536,106.906 112,107.5C 112.667,106.167 113.333,104.833 114,103.5C 130.756,104.492 147.589,104.825 164.5,104.5C 164.232,102.901 164.566,101.568 165.5,100.5 Z"/></g>
<g><path style="opacity:1" fill="#6ec8c6" d="M 603.5,106.5 C 610.737,121.311 617.737,136.311 624.5,151.5C 624.19,152.738 623.69,152.738 623,151.5C 621.716,148.47 620.549,145.47 619.5,142.5C 598.833,142.5 578.167,142.5 557.5,142.5C 557.815,146.371 557.482,150.038 556.5,153.5C 555.325,144.561 554.659,135.561 554.5,126.5C 555.538,119.347 556.204,112.014 556.5,104.5C 571.17,104.333 585.837,104.5 600.5,105C 601.211,106.255 602.044,107.421 603,108.5C 603.464,107.906 603.631,107.239 603.5,106.5 Z"/></g>
<g><path style="opacity:1" fill="#69c7c5" d="M 312.5,163.5 C 312.631,164.239 312.464,164.906 312,165.5C 311.535,164.069 310.701,162.903 309.5,162C 297.838,161.5 286.171,161.333 274.5,161.5C 274.771,163.38 274.104,164.713 272.5,165.5C 269.902,142.457 276.735,122.791 293,106.5C 294.356,116.635 296.356,126.635 299,136.5C 302.986,145.805 307.486,154.805 312.5,163.5 Z"/></g>
<g><path style="opacity:1" fill="#67c6c5" d="M 161.5,151.5 C 160.294,156.862 158.961,162.195 157.5,167.5C 156.637,168.463 155.97,168.463 155.5,167.5C 156.093,165.618 156.76,163.785 157.5,162C 125.331,161.832 93.3307,161.332 61.5,160.5C 66.1406,156.195 70.8073,151.861 75.5,147.5C 75.369,148.239 75.5357,148.906 76,149.5C 78.1667,147.333 80.3333,145.167 82.5,143C 108.739,142.829 134.906,142.329 161,141.5C 160.557,144.992 160.724,148.325 161.5,151.5 Z"/></g>
<g><path style="opacity:1" fill="#67c7c5" d="M 376.5,141.5 C 380.509,146.177 383.509,151.511 385.5,157.5C 383.23,156.875 382.896,157.875 384.5,160.5C 372.185,161.499 359.851,161.832 347.5,161.5C 347.784,163.415 347.451,165.081 346.5,166.5C 343.775,159.384 340.775,152.384 337.5,145.5C 338.404,144.791 338.737,143.791 338.5,142.5C 351.246,142.813 363.913,142.48 376.5,141.5 Z"/></g>
<g><path style="opacity:1" fill="#69c7c5" d="M 730.5,120.5 C 743.112,133.712 753.778,148.378 762.5,164.5C 762.631,165.239 762.464,165.906 762,166.5C 761.365,165.034 760.531,163.7 759.5,162.5C 743.848,161.501 728.181,161.167 712.5,161.5C 712.784,163.415 712.451,165.081 711.5,166.5C 709.335,152.002 705.335,138.002 699.5,124.5C 709.454,123.715 719.454,123.215 729.5,123C 728.434,121.841 728.767,121.008 730.5,120.5 Z"/></g>
<g><path style="opacity:0.994" fill="#60c5c4" d="M 61.5,160.5 C 93.3307,161.332 125.331,161.832 157.5,162C 156.76,163.785 156.093,165.618 155.5,167.5C 155.97,168.463 156.637,168.463 157.5,167.5C 153.738,177.697 149.404,187.697 144.5,197.5C 143.957,197.44 143.624,197.107 143.5,196.5C 145.5,192.167 147.5,187.833 149.5,183.5C 119.841,182.5 90.1742,182.167 60.5,182.5C 60.5,178.5 60.5,174.5 60.5,170.5C 57.5,170.5 54.5,170.5 51.5,170.5C 54.5,166.833 57.8333,163.5 61.5,160.5 Z"/></g>
<g><path style="opacity:1" fill="#63c6c5" d="M 535.5,191.5 C 535.664,194.187 535.497,196.854 535,199.5C 534.002,193.845 533.168,188.178 532.5,182.5C 522.833,182.5 513.167,182.5 503.5,182.5C 503.5,181.5 503.5,180.5 503.5,179.5C 506.187,158.776 506.021,138.109 503,117.5C 521.709,138.595 532.542,163.262 535.5,191.5 Z"/></g>
<g><path style="opacity:1" fill="#62c6c5" d="M 624.5,151.5 C 629.127,160.034 632.794,169.034 635.5,178.5C 634.641,180.106 634.474,181.773 635,183.5C 611,182.833 587,182.167 563,181.5C 563.767,187.935 563.601,194.268 562.5,200.5C 561.263,184.743 559.263,169.077 556.5,153.5C 557.482,150.038 557.815,146.371 557.5,142.5C 578.167,142.5 598.833,142.5 619.5,142.5C 620.549,145.47 621.716,148.47 623,151.5C 623.69,152.738 624.19,152.738 624.5,151.5 Z"/></g>
<g><path style="opacity:1" fill="#62c6c5" d="M 686.5,186.5 C 686.631,187.239 686.464,187.906 686,188.5C 684.885,187 684.052,185.333 683.5,183.5C 673.856,182.502 664.19,182.168 654.5,182.5C 654.66,184.199 654.494,185.866 654,187.5C 653.828,181.319 653.328,175.319 652.5,169.5C 651.897,159.549 649.897,149.882 646.5,140.5C 647.002,139.479 647.668,139.312 648.5,140C 666.485,151.152 679.152,166.652 686.5,186.5 Z"/></g>
<g><path style="opacity:1" fill="#9bdada" d="M 388.5,168.5 C 389.953,174.267 390.62,180.267 390.5,186.5C 390.499,190.349 390.165,194.016 389.5,197.5C 389.578,187.815 389.245,178.148 388.5,168.5 Z"/></g>
<g><path style="opacity:1" fill="#5ac3c3" d="M 635.5,178.5 C 639.702,189.336 641.702,200.67 641.5,212.5C 640.679,215.641 640.179,218.975 640,222.5C 639.667,217.5 639.333,212.5 639,207.5C 638.506,209.134 638.34,210.801 638.5,212.5C 613.5,212.5 588.5,212.5 563.5,212.5C 563.665,215.518 563.498,218.518 563,221.5C 562.505,219.527 562.338,217.527 562.5,215.5C 562.5,210.5 562.5,205.5 562.5,200.5C 563.601,194.268 563.767,187.935 563,181.5C 587,182.167 611,182.833 635,183.5C 634.474,181.773 634.641,180.106 635.5,178.5 Z"/></g>
<g><path style="opacity:0.992" fill="#5ac3c3" d="M 60.5,182.5 C 90.1742,182.167 119.841,182.5 149.5,183.5C 147.5,187.833 145.5,192.167 143.5,196.5C 143.624,197.107 143.957,197.44 144.5,197.5C 141.688,203.79 138.355,209.79 134.5,215.5C 133.226,214.811 133.226,213.977 134.5,213C 110.169,212.5 85.8356,212.333 61.5,212.5C 61.7845,210.585 61.4511,208.919 60.5,207.5C 60.5,199.167 60.5,190.833 60.5,182.5 Z"/></g>
<g><path style="opacity:1" fill="#5bc4c3" d="M 186.5,219.5 C 185.897,217.374 185.897,215.041 186.5,212.5C 174.087,212.813 161.753,212.479 149.5,211.5C 167.097,192.859 179.764,171.193 187.5,146.5C 194.385,170.944 194.052,195.277 186.5,219.5 Z"/></g>
<g><path style="opacity:1" fill="#5cc4c3" d="M 312.5,163.5 C 323.069,178.199 329.735,194.532 332.5,212.5C 332.481,225.753 331.814,225.753 330.5,212.5C 313.5,212.5 296.5,212.5 279.5,212.5C 279.665,215.85 279.498,219.183 279,222.5C 278.826,217.649 278.326,212.982 277.5,208.5C 275.768,194.183 274.101,179.85 272.5,165.5C 274.104,164.713 274.771,163.38 274.5,161.5C 286.171,161.333 297.838,161.5 309.5,162C 310.701,162.903 311.535,164.069 312,165.5C 312.464,164.906 312.631,164.239 312.5,163.5 Z"/></g>
<g><path style="opacity:1" fill="#5cc4c3" d="M 385.5,157.5 C 386.964,161.019 387.964,164.686 388.5,168.5C 389.245,178.148 389.578,187.815 389.5,197.5C 389.296,203.866 387.963,209.866 385.5,215.5C 385.279,212.903 384.779,212.903 384,215.5C 383.517,214.552 383.351,213.552 383.5,212.5C 371.833,212.5 360.167,212.5 348.5,212.5C 348.5,211.167 348.5,209.833 348.5,208.5C 351.701,194.258 351.034,180.258 346.5,166.5C 347.451,165.081 347.784,163.415 347.5,161.5C 359.851,161.832 372.185,161.499 384.5,160.5C 382.896,157.875 383.23,156.875 385.5,157.5 Z"/></g>
<g><path style="opacity:1" fill="#5cc4c3" d="M 494.5,161.5 C 495.748,164.942 496.581,168.608 497,172.5C 497.333,182.167 497.667,191.833 498,201.5C 499.95,194.073 501.784,186.739 503.5,179.5C 503.5,180.5 503.5,181.5 503.5,182.5C 513.167,182.5 522.833,182.5 532.5,182.5C 533.168,188.178 534.002,193.845 535,199.5C 535.497,196.854 535.664,194.187 535.5,191.5C 537.262,201.609 537.928,211.942 537.5,222.5C 536.075,219.097 535.242,215.43 535,211.5C 511.239,212.328 487.406,212.828 463.5,213C 462.874,213.75 462.374,214.584 462,215.5C 461.768,214.263 461.268,213.263 460.5,212.5C 463.474,195.404 463.141,178.404 459.5,161.5C 459.435,161.062 459.601,160.728 460,160.5C 460.667,161.833 461.333,163.167 462,164.5C 462.483,163.552 462.649,162.552 462.5,161.5C 472.522,161.168 482.522,161.501 492.5,162.5C 494.007,166.355 494.674,166.021 494.5,161.5 Z"/></g>
<g><path style="opacity:1" fill="#59c3c3" d="M 652.5,169.5 C 653.328,175.319 653.828,181.319 654,187.5C 654.494,185.866 654.66,184.199 654.5,182.5C 664.19,182.168 673.856,182.502 683.5,183.5C 684.052,185.333 684.885,187 686,188.5C 686.464,187.906 686.631,187.239 686.5,186.5C 690.646,195.631 692.98,205.297 693.5,215.5C 693.663,217.857 693.497,220.19 693,222.5C 692.226,218.853 691.559,215.186 691,211.5C 676.833,212.825 662.667,212.825 648.5,211.5C 651.992,197.736 653.325,183.736 652.5,169.5 Z"/></g>
<g><path style="opacity:0.999" fill="#5cc4c3" d="M 762.5,164.5 C 768.104,174.708 773.437,185.041 778.5,195.5C 778.46,200.193 778.127,204.859 777.5,209.5C 775.386,210.36 774.22,212.027 774,214.5C 764.061,213.179 753.895,212.513 743.5,212.5C 733.259,212.506 723.092,212.839 713,213.5C 712.506,211.866 712.34,210.199 712.5,208.5C 712.762,194.471 712.429,180.471 711.5,166.5C 712.451,165.081 712.784,163.415 712.5,161.5C 728.181,161.167 743.848,161.501 759.5,162.5C 760.531,163.7 761.365,165.034 762,166.5C 762.464,165.906 762.631,165.239 762.5,164.5 Z"/></g>
<g><path style="opacity:1" fill="#52c2c2" d="M 537.5,222.5 C 537.388,232.509 537.055,242.509 536.5,252.5C 535.71,253.609 535.21,254.942 535,256.5C 534.505,254.527 534.338,252.527 534.5,250.5C 521.587,250.178 508.754,250.511 496,251.5C 495.138,249.913 494.471,248.246 494,246.5C 493.536,247.094 493.369,247.761 493.5,248.5C 491.936,244.313 490.436,239.98 489,235.5C 488.333,234.833 487.667,234.167 487,233.5C 486.243,235.315 485.41,236.981 484.5,238.5C 484.047,237.542 483.381,236.708 482.5,236C 470.992,235.579 459.658,235.412 448.5,235.5C 453.28,228.274 457.28,220.608 460.5,212.5C 461.268,213.263 461.768,214.263 462,215.5C 462.374,214.584 462.874,213.75 463.5,213C 487.406,212.828 511.239,212.328 535,211.5C 535.242,215.43 536.075,219.097 537.5,222.5 Z"/></g>
<g><path style="opacity:0.999" fill="#51c1c2" d="M 712.5,208.5 C 712.34,210.199 712.506,211.866 713,213.5C 723.092,212.839 733.259,212.506 743.5,212.5C 753.895,212.513 764.061,213.179 774,214.5C 774.22,212.027 775.386,210.36 777.5,209.5C 775.067,224.803 770.067,239.136 762.5,252.5C 762.389,251.883 762.056,251.383 761.5,251C 742.167,250.667 722.833,250.333 703.5,250C 705.06,247.885 705.393,245.719 704.5,243.5C 707.501,231.785 710.167,220.118 712.5,208.5 Z"/></g>
<g><path style="opacity:1" fill="#52c2c2" d="M 60.5,207.5 C 61.4511,208.919 61.7845,210.585 61.5,212.5C 85.8356,212.333 110.169,212.5 134.5,213C 133.226,213.977 133.226,214.811 134.5,215.5C 132.275,219.898 129.441,223.898 126,227.5C 125.333,228.167 125.333,228.833 126,229.5C 134.494,224.339 142.327,218.339 149.5,211.5C 161.753,212.479 174.087,212.813 186.5,212.5C 185.897,215.041 185.897,217.374 186.5,219.5C 184.755,226.069 182.422,232.402 179.5,238.5C 178.596,237.791 178.263,236.791 178.5,235.5C 139.167,235.5 99.8333,235.5 60.5,235.5C 60.5,226.167 60.5,216.833 60.5,207.5 Z"/></g>
<g><path style="opacity:1" fill="#52c2c2" d="M 641.5,212.5 C 641.334,216.846 641.501,221.179 642,225.5C 644.27,220.846 646.436,216.18 648.5,211.5C 662.667,212.825 676.833,212.825 691,211.5C 691.559,215.186 692.226,218.853 693,222.5C 693.497,220.19 693.663,217.857 693.5,215.5C 694.489,220.975 694.822,226.642 694.5,232.5C 693.833,235.5 693.167,238.5 692.5,241.5C 692.5,239.5 692.5,237.5 692.5,235.5C 648.5,235.5 604.5,235.5 560.5,235.5C 560.5,233.833 560.5,232.167 560.5,230.5C 560.608,225.29 561.275,220.29 562.5,215.5C 562.338,217.527 562.505,219.527 563,221.5C 563.498,218.518 563.665,215.518 563.5,212.5C 588.5,212.5 613.5,212.5 638.5,212.5C 638.34,210.801 638.506,209.134 639,207.5C 639.333,212.5 639.667,217.5 640,222.5C 640.179,218.975 640.679,215.641 641.5,212.5 Z"/></g>
<g><path style="opacity:0.996" fill="#fefefe" d="M 493.5,248.5 C 495.679,260.776 496.012,273.109 494.5,285.5C 490.813,297.544 485.479,308.878 478.5,319.5C 471.17,328.816 464.837,338.816 459.5,349.5C 456.338,353.975 454.338,358.975 453.5,364.5C 451.946,368.567 451.28,372.9 451.5,377.5C 449.495,401.322 458.495,419.489 478.5,432C 494.296,438.739 507.463,435.239 518,421.5C 519.741,418.691 520.908,415.691 521.5,412.5C 524.833,401.211 523.833,390.211 518.5,379.5C 523.929,380.374 528.929,382.707 533.5,386.5C 554.835,404.858 564.335,428.191 562,456.5C 559.332,467.841 556.665,479.174 554,490.5C 551.477,503.367 552.143,516.034 556,528.5C 562.523,541.511 573.023,546.678 587.5,544C 600.303,540.955 607.469,532.789 609,519.5C 609.976,509.715 609.31,500.049 607,490.5C 601.048,474.263 595.381,457.93 590,441.5C 586.89,429.191 586.723,416.858 589.5,404.5C 595.427,387.902 606.093,375.235 621.5,366.5C 621.833,366.5 622.167,366.5 622.5,366.5C 619.431,380.332 620.764,393.666 626.5,406.5C 631.042,419.695 638.375,431.029 648.5,440.5C 662.438,456.276 676.604,471.943 691,487.5C 712.333,513.162 725.167,542.495 729.5,575.5C 730.101,592.617 729.101,609.617 726.5,626.5C 723.317,640.721 717.983,654.055 710.5,666.5C 688.637,678.92 665.304,687.753 640.5,693C 606.469,699.712 572.135,704.046 537.5,706C 504.872,708.284 472.205,709.617 439.5,710C 333.834,710.5 228.167,710.667 122.5,710.5C 106.941,693.047 96.941,672.714 92.5,649.5C 91.59,638.198 91.2566,626.864 91.5,615.5C 93.1536,603.824 95.4869,592.157 98.5,580.5C 109.28,554.256 120.114,527.922 131,501.5C 136.251,479.457 135.418,457.791 128.5,436.5C 126.641,428.948 123.307,422.115 118.5,416C 136.528,417.68 152.861,423.847 167.5,434.5C 193.045,456.937 204.212,485.27 201,519.5C 198.272,534.599 196.105,549.766 194.5,565C 194.199,572.271 195.532,579.105 198.5,585.5C 207.098,612.799 224.765,621.299 251.5,611C 262,603.169 267.667,592.669 268.5,579.5C 270.328,563.485 267.495,548.152 260,533.5C 247.031,514.228 236.697,493.561 229,471.5C 227.184,465.224 225.684,458.891 224.5,452.5C 223.573,446.189 223.406,439.856 224,433.5C 236.397,453.568 253.397,468.234 275,477.5C 263.504,451.175 258.337,423.508 259.5,394.5C 260.435,387.628 261.435,380.628 262.5,373.5C 268.254,348.325 279.588,325.991 296.5,306.5C 302.869,299.964 309.702,293.964 317,288.5C 313.258,300.822 310.758,313.488 309.5,326.5C 306.624,346.534 309.124,365.868 317,384.5C 318.968,388.939 321.468,392.939 324.5,396.5C 327.755,401.602 331.255,406.602 335,411.5C 344.734,421.729 354.234,432.063 363.5,442.5C 390.736,478.584 397.236,518.251 383,561.5C 377.239,577.693 369.405,592.693 359.5,606.5C 358.957,606.56 358.624,606.893 358.5,607.5C 362.315,608.808 365.981,608.808 369.5,607.5C 394.881,607.578 417.881,600.411 438.5,586C 450.606,575.955 457.606,563.121 459.5,547.5C 460.166,543.681 460.499,539.681 460.5,535.5C 460.639,528.935 459.972,522.601 458.5,516.5C 455.688,503.544 450.188,491.878 442,481.5C 427.655,466.655 412.822,452.322 397.5,438.5C 390.004,429.176 384.338,418.842 380.5,407.5C 376.604,388.954 378.271,370.954 385.5,353.5C 390.656,343.872 396.822,334.872 404,326.5C 420.095,310.566 436.595,295.233 453.5,280.5C 467.65,269.346 477.983,255.346 484.5,238.5C 485.41,236.981 486.243,235.315 487,233.5C 487.667,234.167 488.333,234.833 489,235.5C 490.436,239.98 491.936,244.313 493.5,248.5 Z"/></g>
<g><path style="opacity:1" fill="#4cc1c1" d="M 60.5,235.5 C 99.8333,235.5 139.167,235.5 178.5,235.5C 178.263,236.791 178.596,237.791 179.5,238.5C 177.906,243.667 175.573,248.334 172.5,252.5C 172.649,251.448 172.483,250.448 172,249.5C 134.906,250.496 97.7394,250.83 60.5,250.5C 60.5,245.5 60.5,240.5 60.5,235.5 Z"/></g>
<g><path style="opacity:1" fill="#4fc1c2" d="M 250.5,244.5 C 250.664,247.187 250.497,249.854 250,252.5C 249.667,250.833 249.333,249.167 249,247.5C 248.517,248.448 248.351,249.448 248.5,250.5C 235.788,251.146 223.455,250.48 211.5,248.5C 215.818,239.381 219.652,230.048 223,220.5C 224.704,211.573 225.871,202.573 226.5,193.5C 240.67,207.51 248.67,224.51 250.5,244.5 Z"/></g>
<g><path style="opacity:1" fill="#4fc1c2" d="M 277.5,208.5 C 278.326,212.982 278.826,217.649 279,222.5C 279.498,219.183 279.665,215.85 279.5,212.5C 296.5,212.5 313.5,212.5 330.5,212.5C 331.814,225.753 332.481,225.753 332.5,212.5C 333.165,215.984 333.499,219.651 333.5,223.5C 333.361,230.587 332.861,237.587 332,244.5C 339.446,233.281 344.946,221.281 348.5,208.5C 348.5,209.833 348.5,211.167 348.5,212.5C 360.167,212.5 371.833,212.5 383.5,212.5C 383.351,213.552 383.517,214.552 384,215.5C 384.779,212.903 385.279,212.903 385.5,215.5C 381.789,229.59 375.455,242.256 366.5,253.5C 366.5,252.5 366.5,251.5 366.5,250.5C 336.493,250.833 306.493,250.5 276.5,249.5C 277.167,246.833 277.833,244.167 278.5,241.5C 278.043,240.702 277.376,240.369 276.5,240.5C 277.238,229.85 277.572,219.183 277.5,208.5 Z"/></g>
<g><path style="opacity:1" fill="#4cc0c1" d="M 560.5,230.5 C 560.5,232.167 560.5,233.833 560.5,235.5C 604.5,235.5 648.5,235.5 692.5,235.5C 692.5,237.5 692.5,239.5 692.5,241.5C 691.962,244.189 691.295,246.856 690.5,249.5C 646.504,250.333 602.504,250.833 558.5,251C 556.877,254.054 556.21,253.554 556.5,249.5C 557.472,242.963 558.805,236.629 560.5,230.5 Z"/></g>
<g><path style="opacity:0.98" fill="#42bfc1" d="M 172.5,252.5 C 170.5,257.167 168.5,261.833 166.5,266.5C 163.262,271.974 160.262,277.64 157.5,283.5C 156.347,282.687 156.347,281.687 157.5,280.5C 125.174,279.5 92.8402,279.167 60.5,279.5C 60.5,269.833 60.5,260.167 60.5,250.5C 97.7394,250.83 134.906,250.496 172,249.5C 172.483,250.448 172.649,251.448 172.5,252.5 Z"/></g>
<g><path style="opacity:1" fill="#41bfc1" d="M 250.5,244.5 C 252.673,255.686 253.006,267.019 251.5,278.5C 241.878,279.142 232.211,279.475 222.5,279.5C 213.141,279.498 204.141,278.832 195.5,277.5C 197.167,274.167 198.833,270.833 200.5,267.5C 204.419,261.33 208.086,254.997 211.5,248.5C 223.455,250.48 235.788,251.146 248.5,250.5C 248.351,249.448 248.517,248.448 249,247.5C 249.333,249.167 249.667,250.833 250,252.5C 250.497,249.854 250.664,247.187 250.5,244.5 Z"/></g>
<g><path style="opacity:1" fill="#43bfc1" d="M 448.5,235.5 C 459.658,235.412 470.992,235.579 482.5,236C 483.381,236.708 484.047,237.542 484.5,238.5C 477.983,255.346 467.65,269.346 453.5,280.5C 452.671,279.668 451.838,280.001 451,281.5C 436.406,279.691 421.573,278.857 406.5,279C 407.712,277.893 407.379,277.393 405.5,277.5C 413.974,269.865 422.641,262.365 431.5,255C 437.376,248.628 443.042,242.128 448.5,235.5 Z"/></g>
<g><path style="opacity:1" fill="#29a9b3" d="M 166.5,266.5 C 166.511,269.001 167.178,269.168 168.5,267C 179.243,266.192 189.91,266.358 200.5,267.5C 198.833,270.833 197.167,274.167 195.5,277.5C 190.731,286.047 186.731,295.047 183.5,304.5C 178.677,317.282 176.01,330.616 175.5,344.5C 173.225,366.739 175.891,388.406 183.5,409.5C 184.929,411.678 185.763,414.011 186,416.5C 180.971,412.636 176.471,408.303 172.5,403.5C 158.679,387.528 150.012,369.195 146.5,348.5C 145.849,333.693 146.849,319.027 149.5,304.5C 151.769,297.36 154.436,290.36 157.5,283.5C 160.262,277.64 163.262,271.974 166.5,266.5 Z"/></g>
<g><path style="opacity:1" fill="#42bfc1" d="M 276.5,240.5 C 277.376,240.369 278.043,240.702 278.5,241.5C 277.833,244.167 277.167,246.833 276.5,249.5C 306.493,250.5 336.493,250.833 366.5,250.5C 366.5,251.5 366.5,252.5 366.5,253.5C 360.134,262.856 353.8,272.19 347.5,281.5C 320.628,280.15 293.628,278.817 266.5,277.5C 270.936,265.42 274.269,253.087 276.5,240.5 Z"/></g>
<g><path style="opacity:1" fill="#40bfc1" d="M 536.5,252.5 C 535.155,265.148 532.822,277.481 529.5,289.5C 529.649,288.448 529.483,287.448 529,286.5C 518.175,288.159 507.175,289.159 496,289.5C 495.79,287.942 495.29,286.609 494.5,285.5C 496.012,273.109 495.679,260.776 493.5,248.5C 493.369,247.761 493.536,247.094 494,246.5C 494.471,248.246 495.138,249.913 496,251.5C 508.754,250.511 521.587,250.178 534.5,250.5C 534.338,252.527 534.505,254.527 535,256.5C 535.21,254.942 535.71,253.609 536.5,252.5 Z"/></g>
<g><path style="opacity:0.997" fill="#41bfc1" d="M 694.5,232.5 C 693.73,246.715 691.897,260.715 689,274.5C 695.267,264.632 700.434,254.299 704.5,243.5C 705.393,245.719 705.06,247.885 703.5,250C 722.833,250.333 742.167,250.667 761.5,251C 762.056,251.383 762.389,251.883 762.5,252.5C 757.189,262.775 750.189,271.775 741.5,279.5C 676.125,279.174 610.792,279.507 545.5,280.5C 549.496,270.197 553.163,259.864 556.5,249.5C 556.21,253.554 556.877,254.054 558.5,251C 602.504,250.833 646.504,250.333 690.5,249.5C 691.295,246.856 691.962,244.189 692.5,241.5C 693.167,238.5 693.833,235.5 694.5,232.5 Z"/></g>
<g><path style="opacity:0.996" fill="#36bdc0" d="M 60.5,279.5 C 92.8402,279.167 125.174,279.5 157.5,280.5C 156.347,281.687 156.347,282.687 157.5,283.5C 154.436,290.36 151.769,297.36 149.5,304.5C 119.833,304.5 90.1667,304.5 60.5,304.5C 60.5,296.167 60.5,287.833 60.5,279.5 Z"/></g>
<g><path style="opacity:1" fill="#36bdc0" d="M 195.5,277.5 C 204.141,278.832 213.141,279.498 222.5,279.5C 232.211,279.475 241.878,279.142 251.5,278.5C 251.32,287.272 250.32,295.939 248.5,304.5C 226.833,304.5 205.167,304.5 183.5,304.5C 186.731,295.047 190.731,286.047 195.5,277.5 Z"/></g>
<g><path style="opacity:1" fill="#36bdc0" d="M 266.5,277.5 C 293.628,278.817 320.628,280.15 347.5,281.5C 336.738,300.394 332.071,320.728 333.5,342.5C 332.673,337.015 332.173,331.348 332,325.5C 331.667,326.167 331.333,326.833 331,327.5C 324.924,326.524 318.758,326.19 312.5,326.5C 312.649,327.552 312.483,328.552 312,329.5C 311.667,326.5 311.333,323.5 311,320.5C 310.809,322.708 310.309,324.708 309.5,326.5C 310.758,313.488 313.258,300.822 317,288.5C 309.702,293.964 302.869,299.964 296.5,306.5C 296.082,305.778 295.416,305.278 294.5,305C 280.994,304.831 267.66,304.331 254.5,303.5C 258.537,294.764 262.537,286.098 266.5,277.5 Z"/></g>
<g><path style="opacity:0.997" fill="#36bdc0" d="M 741.5,279.5 C 731.447,289.361 720.447,298.027 708.5,305.5C 649.931,304.83 591.264,304.163 532.5,303.5C 537.087,295.996 541.42,288.329 545.5,280.5C 610.792,279.507 676.125,279.174 741.5,279.5 Z"/></g>
<g><path style="opacity:1" fill="#30bbbf" d="M 405.5,277.5 C 407.379,277.393 407.712,277.893 406.5,279C 421.573,278.857 436.406,279.691 451,281.5C 451.838,280.001 452.671,279.668 453.5,280.5C 436.595,295.233 420.095,310.566 404,326.5C 396.822,334.872 390.656,343.872 385.5,353.5C 384.766,352.292 384.433,350.959 384.5,349.5C 375.167,349.5 365.833,349.5 356.5,349.5C 354.902,357.088 353.735,364.755 353,372.5C 352.768,371.263 352.268,370.263 351.5,369.5C 351.566,362.001 352.733,354.668 355,347.5C 364.672,318.996 381.505,295.662 405.5,277.5 Z"/></g>
<g><path style="opacity:0.997" fill="#30bcc0" d="M 494.5,285.5 C 495.29,286.609 495.79,287.942 496,289.5C 507.175,289.159 518.175,288.159 529,286.5C 529.483,287.448 529.649,288.448 529.5,289.5C 528.356,297.243 526.356,304.743 523.5,312C 524.167,312.667 524.833,312.667 525.5,312C 527.698,308.977 530.031,306.144 532.5,303.5C 591.264,304.163 649.931,304.83 708.5,305.5C 699.945,310.945 690.945,315.612 681.5,319.5C 613.656,319.512 545.989,319.512 478.5,319.5C 485.479,308.878 490.813,297.544 494.5,285.5 Z"/></g>
<g><path style="opacity:0.988" fill="#2ababe" d="M 60.5,304.5 C 90.1667,304.5 119.833,304.5 149.5,304.5C 146.849,319.027 145.849,333.693 146.5,348.5C 117.931,349.174 89.2644,349.841 60.5,350.5C 60.5,335.167 60.5,319.833 60.5,304.5 Z"/></g>
<g><path style="opacity:1" fill="#29babe" d="M 254.5,303.5 C 267.66,304.331 280.994,304.831 294.5,305C 295.416,305.278 296.082,305.778 296.5,306.5C 279.588,325.991 268.254,348.325 262.5,373.5C 262.5,370.833 262.5,368.167 262.5,365.5C 233.5,365.5 204.5,365.5 175.5,365.5C 175.5,358.5 175.5,351.5 175.5,344.5C 176.01,330.616 178.677,317.282 183.5,304.5C 205.167,304.5 226.833,304.5 248.5,304.5C 247.663,308.171 247.163,311.837 247,315.5C 249.759,311.593 252.259,307.593 254.5,303.5 Z"/></g>
<g><path style="opacity:0.995" fill="#29babe" d="M 478.5,319.5 C 545.989,319.512 613.656,319.512 681.5,319.5C 671.883,323.794 661.883,327.294 651.5,330C 667.124,334.923 682.124,341.089 696.5,348.5C 617.571,349.497 538.571,349.83 459.5,349.5C 464.837,338.816 471.17,328.816 478.5,319.5 Z"/></g>
<g><path style="opacity:0.997" fill="#22b8be" d="M 696.5,348.5 C 706.493,352.825 715.826,358.159 724.5,364.5C 691.282,364.841 658.115,365.841 625,367.5C 624.658,365.381 623.825,365.047 622.5,366.5C 622.167,366.5 621.833,366.5 621.5,366.5C 622.463,365.637 622.463,364.97 621.5,364.5C 620.452,365.383 619.285,366.05 618,366.5C 563.863,365.506 509.696,365.173 455.5,365.5C 455.657,364.127 455.49,362.793 455,361.5C 454.768,362.737 454.268,363.737 453.5,364.5C 454.338,358.975 456.338,353.975 459.5,349.5C 538.571,349.83 617.571,349.497 696.5,348.5 Z"/></g>
<g><path style="opacity:0.996" fill="#1db6bd" d="M 724.5,364.5 C 740.669,374.664 754.669,387.331 766.5,402.5C 720.003,403.499 673.336,403.832 626.5,403.5C 626.5,404.5 626.5,405.5 626.5,406.5C 620.764,393.666 619.431,380.332 622.5,366.5C 623.825,365.047 624.658,365.381 625,367.5C 658.115,365.841 691.282,364.841 724.5,364.5 Z"/></g>
<g><path style="opacity:0.991" fill="#1eb7bd" d="M 146.5,348.5 C 150.012,369.195 158.679,387.528 172.5,403.5C 135.746,403.517 98.7461,403.517 61.5,403.5C 61.5,413.833 61.5,424.167 61.5,434.5C 61.1667,434.5 60.8333,434.5 60.5,434.5C 60.5,406.5 60.5,378.5 60.5,350.5C 89.2644,349.841 117.931,349.174 146.5,348.5 Z"/></g>
<g><path style="opacity:1" fill="#1eb7bd" d="M 175.5,344.5 C 175.5,351.5 175.5,358.5 175.5,365.5C 204.5,365.5 233.5,365.5 262.5,365.5C 262.5,368.167 262.5,370.833 262.5,373.5C 261.435,380.628 260.435,387.628 259.5,394.5C 259.662,392.473 259.495,390.473 259,388.5C 257.95,393.448 257.45,398.448 257.5,403.5C 232.831,403.333 208.164,403.5 183.5,404C 184.842,406.015 185.342,408.182 185,410.5C 184.617,409.944 184.117,409.611 183.5,409.5C 175.891,388.406 173.225,366.739 175.5,344.5 Z"/></g>
<g><path style="opacity:1" fill="#21b7bd" d="M 333.5,342.5 C 334.325,357.81 339.825,371.143 350,382.5C 350.228,378.083 350.728,373.75 351.5,369.5C 352.268,370.263 352.768,371.263 353,372.5C 353.735,364.755 354.902,357.088 356.5,349.5C 365.833,349.5 375.167,349.5 384.5,349.5C 384.433,350.959 384.766,352.292 385.5,353.5C 378.271,370.954 376.604,388.954 380.5,407.5C 379.163,406.685 378.163,405.518 377.5,404C 362.259,403.176 347.092,403.343 332,404.5C 329.425,401.681 327.092,398.681 325,395.5C 324.601,395.728 324.435,396.062 324.5,396.5C 321.468,392.939 318.968,388.939 317,384.5C 309.124,365.868 306.624,346.534 309.5,326.5C 310.309,324.708 310.809,322.708 311,320.5C 311.333,323.5 311.667,326.5 312,329.5C 312.483,328.552 312.649,327.552 312.5,326.5C 318.758,326.19 324.924,326.524 331,327.5C 331.333,326.833 331.667,326.167 332,325.5C 332.173,331.348 332.673,337.015 333.5,342.5 Z"/></g>
<g><path style="opacity:1" fill="#1eb7bd" d="M 621.5,366.5 C 606.093,375.235 595.427,387.902 589.5,404.5C 589.631,403.761 589.464,403.094 589,402.5C 576.242,403.655 563.409,403.822 550.5,403C 546.244,396.74 541.244,391.073 535.5,386C 534.563,385.308 533.897,385.475 533.5,386.5C 528.929,382.707 523.929,380.374 518.5,379.5C 523.833,390.211 524.833,401.211 521.5,412.5C 520.701,409.57 520.368,406.57 520.5,403.5C 499.156,403.833 477.823,403.5 456.5,402.5C 454.706,393.932 453.039,385.598 451.5,377.5C 451.28,372.9 451.946,368.567 453.5,364.5C 454.268,363.737 454.768,362.737 455,361.5C 455.49,362.793 455.657,364.127 455.5,365.5C 509.696,365.173 563.863,365.506 618,366.5C 619.285,366.05 620.452,365.383 621.5,364.5C 622.463,364.97 622.463,365.637 621.5,366.5 Z"/></g>
<g><path style="opacity:1" fill="#1db4bc" d="M 259.5,394.5 C 258.337,423.508 263.504,451.175 275,477.5C 253.397,468.234 236.397,453.568 224,433.5C 223.406,439.856 223.573,446.189 224.5,452.5C 223.71,451.391 223.21,450.058 223,448.5C 222.201,452.424 221.701,452.424 221.5,448.5C 222.92,442.682 222.753,437.015 221,431.5C 220.502,434.817 220.335,438.15 220.5,441.5C 206.163,441.667 191.829,441.5 177.5,441C 174.537,439.039 171.871,436.706 169.5,434C 168.563,433.308 167.897,433.475 167.5,434.5C 152.861,423.847 136.528,417.68 118.5,416C 123.307,422.115 126.641,428.948 128.5,436.5C 127.624,436.369 126.957,436.702 126.5,437.5C 127.246,438.736 127.579,440.07 127.5,441.5C 105.5,441.5 83.5,441.5 61.5,441.5C 61.5,439.167 61.5,436.833 61.5,434.5C 61.5,424.167 61.5,413.833 61.5,403.5C 98.7461,403.517 135.746,403.517 172.5,403.5C 176.471,408.303 180.971,412.636 186,416.5C 185.763,414.011 184.929,411.678 183.5,409.5C 184.117,409.611 184.617,409.944 185,410.5C 185.342,408.182 184.842,406.015 183.5,404C 208.164,403.5 232.831,403.333 257.5,403.5C 257.45,398.448 257.95,393.448 259,388.5C 259.495,390.473 259.662,392.473 259.5,394.5 Z"/></g>
<g><path style="opacity:1" fill="#1db4bc" d="M 380.5,407.5 C 384.338,418.842 390.004,429.176 397.5,438.5C 396.957,438.56 396.624,438.893 396.5,439.5C 397.811,440.258 398.311,441.258 398,442.5C 386.402,441.171 374.902,441.171 363.5,442.5C 354.234,432.063 344.734,421.729 335,411.5C 331.255,406.602 327.755,401.602 324.5,396.5C 324.435,396.062 324.601,395.728 325,395.5C 327.092,398.681 329.425,401.681 332,404.5C 347.092,403.343 362.259,403.176 377.5,404C 378.163,405.518 379.163,406.685 380.5,407.5 Z"/></g>
<g><path style="opacity:1" fill="#1fb4bc" d="M 451.5,377.5 C 453.039,385.598 454.706,393.932 456.5,402.5C 477.823,403.5 499.156,403.833 520.5,403.5C 520.368,406.57 520.701,409.57 521.5,412.5C 520.908,415.691 519.741,418.691 518,421.5C 507.463,435.239 494.296,438.739 478.5,432C 458.495,419.489 449.495,401.322 451.5,377.5 Z"/></g>
<g><path style="opacity:0.998" fill="#1bb4bc" d="M 766.5,402.5 C 776.43,413.347 784.097,425.68 789.5,439.5C 766.676,440.833 743.51,441.5 720,441.5C 696.833,441.333 673.667,441.167 650.5,441C 649.744,439.62 649.078,439.453 648.5,440.5C 638.375,431.029 631.042,419.695 626.5,406.5C 626.5,405.5 626.5,404.5 626.5,403.5C 673.336,403.832 720.003,403.499 766.5,402.5 Z"/></g>
<g><path style="opacity:0.987" fill="#1db1ba" d="M 60.5,434.5 C 60.8333,434.5 61.1667,434.5 61.5,434.5C 61.5,436.833 61.5,439.167 61.5,441.5C 83.5,441.5 105.5,441.5 127.5,441.5C 127.579,440.07 127.246,438.736 126.5,437.5C 126.957,436.702 127.624,436.369 128.5,436.5C 135.418,457.791 136.251,479.457 131,501.5C 120.114,527.922 109.28,554.256 98.5,580.5C 98.5654,580.062 98.3988,579.728 98,579.5C 97.2935,581.081 96.4601,582.581 95.5,584C 63.5017,584.5 31.5017,584.667 -0.5,584.5C -0.5,569.167 -0.5,553.833 -0.5,538.5C 19.8333,538.5 40.1667,538.5 60.5,538.5C 60.5,503.833 60.5,469.167 60.5,434.5 Z"/></g>
<g><path style="opacity:1" fill="#1eb1ba" d="M 224.5,452.5 C 225.684,458.891 227.184,465.224 229,471.5C 236.697,493.561 247.031,514.228 260,533.5C 267.495,548.152 270.328,563.485 268.5,579.5C 268.666,574.156 268.499,568.823 268,563.5C 267.675,570.524 267.175,577.524 266.5,584.5C 243.925,584.827 221.425,584.494 199,583.5C 198.536,584.094 198.369,584.761 198.5,585.5C 195.532,579.105 194.199,572.271 194.5,565C 196.105,549.766 198.272,534.599 201,519.5C 204.212,485.27 193.045,456.937 167.5,434.5C 167.897,433.475 168.563,433.308 169.5,434C 171.871,436.706 174.537,439.039 177.5,441C 191.829,441.5 206.163,441.667 220.5,441.5C 220.335,438.15 220.502,434.817 221,431.5C 222.753,437.015 222.92,442.682 221.5,448.5C 221.701,452.424 222.201,452.424 223,448.5C 223.21,450.058 223.71,451.391 224.5,452.5 Z"/></g>
<g><path style="opacity:0.996" fill="#1cb1ba" d="M 789.5,439.5 C 792.127,443.51 794.294,447.844 796,452.5C 799.492,463.803 802.326,475.136 804.5,486.5C 804.5,501.167 804.5,515.833 804.5,530.5C 802.263,542.834 799.429,555.167 796,567.5C 795.102,570.069 793.935,572.402 792.5,574.5C 772.156,574.833 751.822,574.5 731.5,573.5C 729.792,570.036 729.126,570.703 729.5,575.5C 725.167,542.495 712.333,513.162 691,487.5C 676.604,471.943 662.438,456.276 648.5,440.5C 649.078,439.453 649.744,439.62 650.5,441C 673.667,441.167 696.833,441.333 720,441.5C 743.51,441.5 766.676,440.833 789.5,439.5 Z"/></g>
<g><path style="opacity:1" fill="#1eb1ba" d="M 397.5,438.5 C 412.822,452.322 427.655,466.655 442,481.5C 450.188,491.878 455.688,503.544 458.5,516.5C 459.267,526.815 459.601,537.148 459.5,547.5C 457.606,563.121 450.606,575.955 438.5,586C 417.881,600.411 394.881,607.578 369.5,607.5C 365.958,607.813 362.625,607.479 359.5,606.5C 369.405,592.693 377.239,577.693 383,561.5C 397.236,518.251 390.736,478.584 363.5,442.5C 374.902,441.171 386.402,441.171 398,442.5C 398.311,441.258 397.811,440.258 396.5,439.5C 396.624,438.893 396.957,438.56 397.5,438.5 Z"/></g>
<g><path style="opacity:1" fill="#1eb2bb" d="M 589.5,404.5 C 586.723,416.858 586.89,429.191 590,441.5C 595.381,457.93 601.048,474.263 607,490.5C 609.31,500.049 609.976,509.715 609,519.5C 607.469,532.789 600.303,540.955 587.5,544C 573.023,546.678 562.523,541.511 556,528.5C 552.143,516.034 551.477,503.367 554,490.5C 556.665,479.174 559.332,467.841 562,456.5C 564.335,428.191 554.835,404.858 533.5,386.5C 533.897,385.475 534.563,385.308 535.5,386C 541.244,391.073 546.244,396.74 550.5,403C 563.409,403.822 576.242,403.655 589,402.5C 589.464,403.094 589.631,403.761 589.5,404.5 Z"/></g>
<g><path style="opacity:1" fill="#5dc5cc" d="M 458.5,516.5 C 459.972,522.601 460.639,528.935 460.5,535.5C 460.499,539.681 460.166,543.681 459.5,547.5C 459.601,537.148 459.267,526.815 458.5,516.5 Z"/></g>
<g><path style="opacity:0.999" fill="#22afb8" d="M 98.5,580.5 C 95.4869,592.157 93.1536,603.824 91.5,615.5C 91.5439,607.824 90.8772,607.658 89.5,615C 59.5019,615.5 29.5019,615.667 -0.5,615.5C -0.5,605.167 -0.5,594.833 -0.5,584.5C 31.5017,584.667 63.5017,584.5 95.5,584C 96.4601,582.581 97.2935,581.081 98,579.5C 98.3988,579.728 98.5654,580.062 98.5,580.5 Z"/></g>
<g><path style="opacity:1" fill="#23afb8" d="M 268.5,579.5 C 267.667,592.669 262,603.169 251.5,611C 224.765,621.299 207.098,612.799 198.5,585.5C 198.369,584.761 198.536,584.094 199,583.5C 221.425,584.494 243.925,584.827 266.5,584.5C 267.175,577.524 267.675,570.524 268,563.5C 268.499,568.823 268.666,574.156 268.5,579.5 Z"/></g>
<g><path style="opacity:0.994" fill="#23afb8" d="M 792.5,574.5 C 785.961,593.93 775.628,610.93 761.5,625.5C 750.41,626.13 739.577,625.463 729,623.5C 728.764,625.119 727.931,626.119 726.5,626.5C 729.101,609.617 730.101,592.617 729.5,575.5C 729.126,570.703 729.792,570.036 731.5,573.5C 751.822,574.5 772.156,574.833 792.5,574.5 Z"/></g>
<g><path style="opacity:1" fill="#83d1d6" d="M 359.5,606.5 C 362.625,607.479 365.958,607.813 369.5,607.5C 365.981,608.808 362.315,608.808 358.5,607.5C 358.624,606.893 358.957,606.56 359.5,606.5 Z"/></g>
<g><path style="opacity:0.999" fill="#29abb4" d="M 91.5,615.5 C 91.2566,626.864 91.59,638.198 92.5,649.5C 91.7784,649.918 91.2784,650.584 91,651.5C 60.7242,649.512 30.2242,648.846 -0.5,649.5C -0.5,638.167 -0.5,626.833 -0.5,615.5C 29.5019,615.667 59.5019,615.5 89.5,615C 90.8772,607.658 91.5439,607.824 91.5,615.5 Z"/></g>
<g><path style="opacity:0.984" fill="#29aab3" d="M 761.5,625.5 C 747.155,642.516 730.155,656.182 710.5,666.5C 717.983,654.055 723.317,640.721 726.5,626.5C 727.931,626.119 728.764,625.119 729,623.5C 739.577,625.463 750.41,626.13 761.5,625.5 Z"/></g>
<g><path style="opacity:0.994" fill="#27a6b0" d="M -0.5,649.5 C 30.2242,648.846 60.7242,649.512 91,651.5C 91.2784,650.584 91.7784,649.918 92.5,649.5C 96.941,672.714 106.941,693.047 122.5,710.5C 81.5,710.5 40.5,710.5 -0.5,710.5C -0.5,690.167 -0.5,669.833 -0.5,649.5 Z"/></g>
<g><path style="opacity:0.982" fill="#1bb2bb" d="M -0.5,760.5 C 29.2168,760.032 58.8834,760.532 88.5,762C 94.3072,763.807 98.1405,767.64 100,773.5C 101.966,783.506 101.966,793.506 100,803.5C 98.2068,806.295 96.0402,808.795 93.5,811C 96.0402,813.205 98.2068,815.705 100,818.5C 102.196,830.584 101.862,842.584 99,854.5C 95.9651,861.868 90.4651,865.701 82.5,866C 54.8353,866.5 27.1687,866.667 -0.5,866.5C -0.5,831.167 -0.5,795.833 -0.5,760.5 Z M 32.5,790.5 C 43.8333,790.5 55.1667,790.5 66.5,790.5C 66.5,794.167 66.5,797.833 66.5,801.5C 55.1667,801.5 43.8333,801.5 32.5,801.5C 32.5,797.833 32.5,794.167 32.5,790.5 Z M 32.5,824.5 C 43.8333,824.5 55.1667,824.5 66.5,824.5C 66.5,828.5 66.5,832.5 66.5,836.5C 55.1667,836.5 43.8333,836.5 32.5,836.5C 32.5,832.5 32.5,828.5 32.5,824.5 Z"/></g>
<g><path style="opacity:0.974" fill="#1bb2ba" d="M 111.5,760.5 C 138.169,760.333 164.835,760.5 191.5,761C 201.437,762.271 207.604,767.771 210,777.5C 210.667,785.5 210.667,793.5 210,801.5C 208.228,806.938 204.728,810.771 199.5,813C 204.757,815.256 208.257,819.09 210,824.5C 210.5,838.496 210.667,852.496 210.5,866.5C 199.167,866.5 187.833,866.5 176.5,866.5C 176.5,853.5 176.5,840.5 176.5,827.5C 165.833,827.5 155.167,827.5 144.5,827.5C 144.5,840.5 144.5,853.5 144.5,866.5C 133.5,866.5 122.5,866.5 111.5,866.5C 111.5,831.167 111.5,795.833 111.5,760.5 Z M 144.5,790.5 C 155.167,790.5 165.833,790.5 176.5,790.5C 176.5,794.5 176.5,798.5 176.5,802.5C 165.833,802.5 155.167,802.5 144.5,802.5C 144.5,798.5 144.5,794.5 144.5,790.5 Z"/></g>
<g><path style="opacity:0.982" fill="#1bb1bb" d="M 221.5,760.5 C 232.833,760.5 244.167,760.5 255.5,760.5C 255.5,795.833 255.5,831.167 255.5,866.5C 243.833,866.5 232.167,866.5 220.5,866.5C 220.174,831.094 220.507,795.76 221.5,760.5 Z"/></g>
<g><path style="opacity:0.972" fill="#1bb2ba" d="M 288.5,760.5 C 312.167,760.5 335.833,760.5 359.5,760.5C 359.5,770.5 359.5,780.5 359.5,790.5C 339.5,790.5 319.5,790.5 299.5,790.5C 299.5,793.833 299.5,797.167 299.5,800.5C 316.17,800.333 332.837,800.5 349.5,801C 357.471,802.386 362.638,806.886 365,814.5C 365.667,827.167 365.667,839.833 365,852.5C 361.841,861.006 355.675,865.506 346.5,866C 319.502,866.5 292.502,866.667 265.5,866.5C 265.5,856.5 265.5,846.5 265.5,836.5C 287.833,836.5 310.167,836.5 332.5,836.5C 332.5,833.167 332.5,829.833 332.5,826.5C 315.83,826.667 299.163,826.5 282.5,826C 272.291,825.125 266.791,819.625 266,809.5C 265.113,797.784 265.446,786.117 267,774.5C 268.211,771.241 270.044,768.408 272.5,766C 277.586,763.028 282.919,761.195 288.5,760.5 Z"/></g>
<g><path style="opacity:0.981" fill="#1bb2ba" d="M 376.5,760.5 C 406.542,760.04 436.542,760.54 466.5,762C 472.193,764.357 475.693,768.523 477,774.5C 477.667,783.833 477.667,793.167 477,802.5C 475.6,805.902 473.433,808.736 470.5,811C 473.757,813.02 475.924,815.854 477,819.5C 477.667,830.167 477.667,840.833 477,851.5C 474.473,860.363 468.639,865.197 459.5,866C 431.835,866.5 404.169,866.667 376.5,866.5C 376.5,831.167 376.5,795.833 376.5,760.5 Z M 409.5,790.5 C 421.167,790.5 432.833,790.5 444.5,790.5C 444.5,794.167 444.5,797.833 444.5,801.5C 432.833,801.5 421.167,801.5 409.5,801.5C 409.5,797.833 409.5,794.167 409.5,790.5 Z M 409.5,824.5 C 421.167,824.5 432.833,824.5 444.5,824.5C 444.5,828.5 444.5,832.5 444.5,836.5C 432.833,836.5 421.167,836.5 409.5,836.5C 409.5,832.5 409.5,828.5 409.5,824.5 Z"/></g>
<g><path style="opacity:0.978" fill="#1bb1ba" d="M 506.5,760.5 C 528.169,760.333 549.836,760.5 571.5,761C 580.886,762.719 586.719,768.219 589,777.5C 589.5,807.165 589.667,836.831 589.5,866.5C 578.167,866.5 566.833,866.5 555.5,866.5C 555.5,856.167 555.5,845.833 555.5,835.5C 544.167,835.5 532.833,835.5 521.5,835.5C 521.5,845.833 521.5,856.167 521.5,866.5C 510.167,866.5 498.833,866.5 487.5,866.5C 487.333,837.498 487.5,808.498 488,779.5C 489.843,768.851 496.01,762.517 506.5,760.5 Z M 521.5,790.5 C 532.833,790.5 544.167,790.5 555.5,790.5C 555.5,797.833 555.5,805.167 555.5,812.5C 544.252,812.179 533.085,812.513 522,813.5C 521.5,805.841 521.334,798.174 521.5,790.5 Z"/></g>
<g><path style="opacity:0.977" fill="#1bb1bb" d="M 600.5,760.5 C 614.171,760.333 627.837,760.5 641.5,761C 651.391,776.617 660.891,792.451 670,808.5C 670.5,792.503 670.667,776.503 670.5,760.5C 681.415,760.18 692.248,760.513 703,761.5C 703.5,796.498 703.667,831.498 703.5,866.5C 692.495,866.667 681.495,866.5 670.5,866C 657.61,845.717 645.11,825.217 633,804.5C 632.5,825.164 632.333,845.831 632.5,866.5C 621.833,866.5 611.167,866.5 600.5,866.5C 600.5,831.167 600.5,795.833 600.5,760.5 Z"/></g>
<g><path style="opacity:0.975" fill="#1cb2ba" d="M 714.5,760.5 C 743.833,760.5 773.167,760.5 802.5,760.5C 802.5,770.5 802.5,780.5 802.5,790.5C 784.164,790.333 765.83,790.5 747.5,791C 748.833,794 748.833,797 747.5,800C 765.83,800.5 784.164,800.667 802.5,800.5C 802.5,809.167 802.5,817.833 802.5,826.5C 784.59,826.826 766.757,826.492 749,825.5C 748.793,829.089 748.293,832.589 747.5,836C 765.83,836.5 784.164,836.667 802.5,836.5C 802.5,846.5 802.5,856.5 802.5,866.5C 772.926,866.829 743.426,866.495 714,865.5C 713.174,830.429 713.341,795.429 714.5,760.5 Z"/></g>
<g><path style="opacity:0.98" fill="#27a5b0" d="M -0.5,900.5 C 20.8333,900.5 42.1667,900.5 63.5,900.5C 63.5,925.167 63.5,949.833 63.5,974.5C 85.8333,974.5 108.167,974.5 130.5,974.5C 130.5,949.833 130.5,925.167 130.5,900.5C 152.167,900.5 173.833,900.5 195.5,900.5C 195.5,967.167 195.5,1033.83 195.5,1100.5C 173.833,1100.5 152.167,1100.5 130.5,1100.5C 130.5,1074.17 130.5,1047.83 130.5,1021.5C 108.167,1021.5 85.8333,1021.5 63.5,1021.5C 63.5,1047.83 63.5,1074.17 63.5,1100.5C 42.1667,1100.5 20.8333,1100.5 -0.5,1100.5C -0.5,1033.83 -0.5,967.167 -0.5,900.5 Z"/></g>
<g><path style="opacity:0.988" fill="#27a6af" d="M 385.5,1100.5 C 329.5,1100.5 273.5,1100.5 217.5,1100.5C 217.5,1033.83 217.5,967.167 217.5,900.5C 273.5,900.5 329.5,900.5 385.5,900.5C 385.5,918.833 385.5,937.167 385.5,955.5C 350.833,955.5 316.167,955.5 281.5,955.5C 281.334,962.841 281.5,970.174 282,977.5C 316.095,976.338 350.262,976.171 384.5,977C 385.491,992.422 385.824,1007.92 385.5,1023.5C 350.833,1023.5 316.167,1023.5 281.5,1023.5C 281.5,1030.83 281.5,1038.17 281.5,1045.5C 316.167,1045.5 350.833,1045.5 385.5,1045.5C 385.5,1063.83 385.5,1082.17 385.5,1100.5 Z"/></g>
<g><path style="opacity:0.985" fill="#26a5af" d="M 600.5,1100.5 C 579.167,1100.5 557.833,1100.5 536.5,1100.5C 536.667,1080.5 536.5,1060.5 536,1040.5C 514,1041.83 492,1041.83 470,1040.5C 469.5,1060.5 469.333,1080.5 469.5,1100.5C 448.167,1100.5 426.833,1100.5 405.5,1100.5C 405.333,1046.83 405.5,993.166 406,939.5C 407.37,920.227 417.203,907.727 435.5,902C 457.96,900.86 480.46,900.36 503,900.5C 525.54,900.36 548.04,900.86 570.5,902C 588.33,907.165 598.163,918.998 600,937.5C 600.5,991.832 600.667,1046.17 600.5,1100.5 Z M 469.5,955.5 C 491.833,955.5 514.167,955.5 536.5,955.5C 536.5,969.833 536.5,984.167 536.5,998.5C 514.258,998.173 492.091,998.506 470,999.5C 469.5,984.837 469.333,970.17 469.5,955.5 Z"/></g>
<g><path style="opacity:0.981" fill="#27a5af" d="M 743.5,1100.5 C 721.167,1100.5 698.833,1100.5 676.5,1100.5C 676.5,1052.17 676.5,1003.83 676.5,955.5C 656.167,955.5 635.833,955.5 615.5,955.5C 615.5,937.167 615.5,918.833 615.5,900.5C 677.833,900.5 740.167,900.5 802.5,900.5C 802.5,918.833 802.5,937.167 802.5,955.5C 782.833,955.5 763.167,955.5 743.5,955.5C 743.5,1003.83 743.5,1052.17 743.5,1100.5 Z"/></g>
</svg>