<svg xmlns="http://www.w3.org/2000/svg" fill="none" viewBox="0.15 0.0 75.45 85.99" width="296.0932840790421" height="337.73140215265744">
<g clip-path="url(#clip0_2904_23956)">
<path d="M24.6019 70.7079L19.9183 69.7748L20.5253 66.6493C16.8562 66.4772 14.7545 65.7162 14.6639 65.68L13.7127 65.3267L13.7398 57.0193C9.49102 56.8018 5.56834 55.3342 5.38716 55.2708L4.44499 54.9175V48.4854L2.47912 49.6088L0.150879 48.5126V28.4915L4.44499 26.0999V21.0266L5.22409 20.619C6.60111 19.8942 8.03248 19.1786 9.48197 18.49V15.7723L10.2248 15.3555C25.3448 6.93943 43.5087 1.66691 62.7597 0.12683L64.3179 0L64.3542 6.33246C65.9939 6.36869 67.6246 6.43211 69.2281 6.53176L70.587 6.61329V14.2775C71.8734 14.3862 72.8428 14.5674 73.6037 14.821L74.1292 15.0022L75.1619 16.8413C75.1619 16.8413 75.0804 22.8566 75.0804 23.3096C75.3703 23.9528 75.5243 24.5507 75.5787 25.1668C75.6964 26.6162 75.3069 27.8755 74.4463 28.8086C73.5403 29.7961 72.2086 30.3215 70.596 30.3306V39.0818L70.2427 39.4895C70.1068 39.6435 66.9904 43.1767 60.051 45.4596V53.5224L59.743 53.9119C57.9402 56.2311 54.8057 57.8799 52.3415 58.9127C51.3178 60.5615 50.1764 62.3552 49.1617 63.7141L48.7812 64.2305L48.1471 64.2939C45.9094 64.5204 42.6843 65.2179 40.3017 65.9699L39.6132 68.742L39.0787 69.05C31.5414 73.1358 22.5364 85.9909 22.5364 85.9909L24.6201 70.6988L24.6019 70.7079Z" fill="white"/>
<path d="M2.42471 47.969L5.90349 45.976V53.9119C5.90349 53.9119 10.6506 55.7057 15.1983 55.5879L15.1621 64.312C15.1621 64.312 17.7349 65.2632 22.2737 65.227L21.6123 68.6333L26.2235 69.5574L24.5838 81.1986C24.5838 81.1986 30.0918 72.5922 38.3267 67.8089L39.0606 64.8556C41.4613 64.0221 45.2934 63.1434 47.9749 62.8625C49.0077 61.4765 50.1854 59.6193 51.3359 57.7531C53.7095 56.8109 56.8711 55.2255 58.5834 53.0241V44.3997C65.9395 42.2345 69.1375 38.5474 69.1375 38.5474V28.0023C69.3368 28.0204 69.5361 28.0295 69.7172 28.0386C69.7988 28.0386 69.8803 28.0386 69.9619 28.0386C71.1849 28.0386 72.1633 27.6762 72.8065 26.9786C73.3863 26.3445 73.649 25.4657 73.5675 24.433C73.4678 23.2734 72.8246 22.2134 71.8734 20.9723C71.4929 20.474 71.1214 19.9758 70.741 19.4866C71.4113 19.5228 72.0817 19.5681 72.7521 19.6134L73.0964 19.6406L73.1417 16.189C72.1633 15.8628 70.7319 15.7088 69.1375 15.6364V7.98125C67.0629 7.85442 64.9883 7.78195 62.9046 7.76383L62.8684 1.56726C45.6648 2.95333 27.22 7.55546 10.9405 16.6238V19.405C9.24637 20.2023 7.5704 21.0267 5.90349 21.9054V26.9514L1.60938 29.3431V47.5885L2.41565 47.969H2.42471Z" fill="#5F259F"/>
<path d="M49.2524 36.4365V32.3689C42.2676 33.3745 31.2062 36.2644 24.3755 38.5202V42.7146C18.641 44.6352 14.7998 46.4199 9.62695 49.0924V50.8499C14.1838 48.4582 20.2626 45.7133 25.9156 43.9829V39.6616C32.0306 37.7592 41.3798 35.3313 47.6217 34.4163V38.4115C54.0357 37.3425 59.9242 37.2247 66.3473 37.2247C66.3473 36.663 66.3473 36.1013 66.3382 35.5306C60.3772 35.4219 55.2949 35.5759 49.2524 36.4365Z" fill="#211551"/>
<path d="M65.4052 28.4915C64.7801 28.4915 64.146 28.4915 63.5209 28.5097C63.4937 28.5097 63.4665 28.5097 63.4394 28.5097C63.3035 28.5097 63.1676 28.5097 63.0408 28.4915C62.3613 28.4281 61.8087 28.1926 61.401 27.7849C61.3648 27.7487 61.3286 27.7124 61.3014 27.6762C61.3014 27.7577 61.3014 28.1382 61.3014 28.1382L60.7759 28.3375C60.2867 28.5278 59.4714 28.7543 58.7829 28.7996C58.7104 28.7996 58.647 28.7996 58.5836 28.7996C58.5292 28.7996 58.4839 28.7996 58.4386 28.7996H58.339C57.5961 28.7996 56.9167 28.2651 56.4184 27.7487V28.8267L56.1285 28.8539C53.8909 29.0351 51.626 29.2797 49.3884 29.5877L49.1981 29.6149C49.1981 29.6149 48.8358 29.1438 48.7089 28.9807L48.6093 29.7055L48.3647 29.7417C47.0964 29.9229 45.819 30.1403 44.5598 30.3668H44.5417C44.0796 30.5571 43.5723 30.7111 43.1012 30.8017C42.8476 30.847 42.603 30.8832 42.3674 30.9013C42.2225 30.9104 42.0775 30.9194 41.9416 30.9194C41.0538 30.9194 40.311 30.6748 39.7312 30.2038C39.5681 30.0679 39.4141 29.9139 39.2782 29.7327V31.3724L39.0155 31.4268C37.7744 31.7076 36.5151 32.0156 35.274 32.3418L34.8663 32.4505C34.8663 32.4505 33.9785 32.7947 33.5618 32.9125C33.4349 32.9487 33.3081 32.9759 33.1813 32.994C33.0363 33.0212 32.8914 33.0303 32.7646 33.0303C32.221 33.0303 31.8586 32.84 31.6593 32.686C31.5959 32.6317 31.4781 32.5139 31.3513 32.3689V33.4108L31.1158 33.4832C29.9018 33.8456 28.6698 34.2351 27.4558 34.6338L27.1025 34.7515C26.722 34.969 26.3234 35.1592 25.9429 35.286C25.8161 35.3313 25.6892 35.3676 25.5715 35.3947C25.3812 35.44 25.191 35.4582 25.0098 35.4582C24.5478 35.4582 24.2307 35.3041 24.0495 35.1773C23.9589 35.1139 23.8411 35.0142 23.7415 34.8693V35.9383L23.5241 36.0198C22.3101 36.4728 21.0871 36.9439 19.9094 37.415L19.4564 37.5962C19.4564 37.5962 18.5143 38.1216 18.0975 38.3028C17.9526 38.3662 17.8076 38.4115 17.6718 38.4568C17.409 38.5383 17.1735 38.5746 16.9561 38.5746C16.7749 38.5746 16.6028 38.5474 16.4487 38.493C16.0048 38.9098 15.2801 39.5258 14.501 39.8791C14.3379 39.9606 14.1839 40.015 14.039 40.0603C13.7491 40.1599 13.4682 40.2052 13.2236 40.2052C12.9156 40.2052 12.6348 40.1328 12.3992 39.9787C12.3177 39.9244 12.1909 39.8066 12.055 39.6707V42.7237L11.8647 42.8143C10.5693 43.4666 9.25566 44.146 7.96924 44.8436V49.9349C14.0299 46.7642 18.0432 44.8074 24.3756 42.6875V38.493C31.2064 36.2463 42.2678 33.3473 49.2525 32.3418V36.4094C55.5668 35.5125 60.8303 35.3857 67.1446 35.5216C67.1356 33.2477 67.1265 30.8832 67.1356 28.4825C66.5648 28.4734 65.985 28.4734 65.4143 28.4734L65.4052 28.4915Z" fill="url(#paint0_linear_2904_23956)"/>
<path d="M14.8811 26.0274L15.2435 25.8643C16.4574 25.3389 19.139 24.2518 19.139 24.2518C20.4254 23.7445 21.739 23.2462 23.0345 22.7751C23.3063 22.6755 23.569 22.603 23.8045 22.5486C24.1397 22.4671 24.4568 22.4309 24.7467 22.4309C25.3084 22.4309 25.7795 22.5667 26.1599 22.8476C26.2958 22.9472 26.4045 23.0469 26.5042 23.1647C26.5042 22.7117 26.5133 21.5793 26.5133 21.5793L26.7397 21.5068C28.0533 21.081 29.376 20.6734 30.6805 20.2929C30.9523 20.2113 31.215 20.157 31.4596 20.1117C31.7133 20.0754 31.9579 20.0483 32.1844 20.0483C32.8457 20.0483 33.3983 20.2204 33.8241 20.5556C34.0506 20.7368 34.2227 20.9361 34.3496 21.1535L34.3677 19.3145L34.6123 19.251C35.8534 18.934 37.1217 18.635 38.3809 18.3542L38.7796 18.2636V20.012C38.7977 19.9577 38.8249 19.9124 38.852 19.858C39.6855 18.481 40.8632 17.6657 42.4486 17.3667C42.7204 17.3214 43.0284 17.2852 43.3364 17.258C43.4904 17.2489 43.6444 17.2399 43.7894 17.2399C43.9434 17.2399 44.0883 17.2399 44.2242 17.258C44.4326 17.2761 44.6409 17.2942 44.8402 17.3123L45.1483 17.3395L45.0667 21.4072L45.8186 17.2218L45.8639 16.9953C53.4919 15.7813 60.7393 15.5548 64.046 15.5548C65.0515 15.5548 66.1024 15.5548 67.1261 15.5639V15.4552C67.1261 13.5165 67.1261 11.605 67.108 9.75689C64.2815 9.63912 61.8083 9.54852 59.3804 9.54852C56.1462 9.54852 52.9936 9.71159 49.2159 10.2099V14.359C42.2312 15.2921 31.1788 17.9465 24.339 20.1389C24.339 18.7437 24.339 17.3486 24.339 15.9535C18.0972 17.9556 13.9208 19.8218 7.93262 22.8385V25.8643C8.96538 25.3298 9.99814 24.8044 11.04 24.2971L11.511 24.0706C11.511 24.0706 11.511 26.5528 11.502 27.5312C12.6163 27.0058 13.7396 26.4985 14.8539 26.0093L14.8811 26.0274Z" fill="url(#paint1_linear_2904_23956)"/>
<path d="M67.1353 9.77501C60.5401 9.51229 55.8655 9.35828 49.2432 10.228C49.4515 10.3548 49.6871 10.4907 49.8954 10.6175C56.0829 9.82937 60.3861 10.0106 66.5555 10.2189C66.5555 11.9492 66.5555 13.752 66.5374 15.582C66.7367 15.582 66.9451 15.582 67.1444 15.582C67.1444 13.6071 67.1444 11.6593 67.1262 9.77501" fill="white"/>
<path d="M66.4287 35.0595C66.6643 35.2226 66.8998 35.3766 67.1353 35.5397C67.1172 33.2658 67.1172 30.9013 67.1263 28.5006C66.9089 28.5006 66.6824 28.5006 66.4559 28.5006C66.4378 30.7564 66.4287 32.9668 66.4287 35.0686" fill="white"/>
<g style="mix-blend-mode:multiply" opacity="0.65">
<path d="M8.58505 23.0016C8.37669 22.9563 8.16832 22.911 7.95996 22.8657V25.8915C8.16832 25.7828 8.37669 25.674 8.58505 25.5744C8.58505 24.7047 8.58505 23.8441 8.58505 23.0106" fill="#A6A8AB"/>
</g>
<path d="M8.55788 49.0652C8.55788 47.5976 8.55788 46.0847 8.55788 44.5355C8.35857 44.6442 8.15927 44.7439 7.95996 44.8526V49.9439C14.0206 46.7732 18.0339 44.8164 24.3664 42.6965C24.1308 42.5878 23.9043 42.4791 23.6688 42.3704C17.7893 44.3725 14.2018 46.139 8.55788 49.0652Z" fill="#A6A8AB"/>
<path d="M72.7524 19.6134C72.091 19.5681 71.4116 19.5228 70.7412 19.4866C71.1217 19.9848 71.4931 20.474 71.8736 20.9723C71.7106 20.7639 71.5475 20.5465 71.3844 20.3291C72.0276 20.3653 72.6708 20.4106 73.3141 20.465L73.6583 20.4921L73.7036 17.2036L73.1419 16.189L73.0966 19.6406L72.7524 19.6134Z" fill="#211551"/>
<path d="M74.1381 25.2845C74.0656 24.3786 73.6489 23.4727 72.7701 22.2587C73.214 22.9925 73.5039 23.6901 73.5673 24.442C73.6579 25.4748 73.3862 26.3535 72.8064 26.9877C72.1722 27.6762 71.1847 28.0476 69.9617 28.0476C69.8802 28.0476 69.7987 28.0476 69.7171 28.0476C69.2551 28.0295 68.7206 27.9752 68.1499 27.8936C67.8147 27.8483 67.4885 27.794 67.1986 27.7306C67.099 27.7124 66.8906 27.6943 66.8906 27.6943H66.6007C66.1749 27.6943 65.7582 27.6853 65.3324 27.6853C64.5443 27.6853 63.747 27.6853 62.9589 27.7124C62.9226 27.7124 62.8955 27.7124 62.8592 27.7124C62.7233 27.7124 62.5965 27.7124 62.4787 27.6943C61.7993 27.6309 61.2467 27.3954 60.839 26.9967C60.8028 26.9605 60.7665 26.9243 60.7394 26.8971V27.3591C60.7394 27.3591 60.3226 27.5222 60.223 27.5584C59.7066 27.7577 58.9184 27.9842 58.2299 28.0295C58.1303 28.0295 58.0397 28.0295 57.9491 28.0295C57.8857 28.0295 57.8223 28.0295 57.7588 28.0295C56.9435 27.9842 56.2912 27.649 55.8564 27.0692V28.0657L55.5665 28.0929C53.3288 28.2832 51.055 28.5368 48.8264 28.863L48.4821 28.9083C48.4821 28.9083 48.3643 27.495 48.319 26.9605L48.0473 28.9807L47.8027 29.017C46.5344 29.2072 45.2479 29.4246 43.9978 29.6602H43.9796C43.5176 29.8504 43.0103 30.0135 42.5483 30.1041C42.2946 30.1584 42.05 30.1856 41.8145 30.2128C41.6605 30.2219 41.5155 30.2309 41.3706 30.2309C40.4918 30.2309 39.7489 29.9954 39.1782 29.5243C39.0151 29.3884 38.8611 29.2344 38.7252 29.0623V30.702L38.4625 30.7564C37.2123 31.0463 35.9622 31.3543 34.721 31.6895L34.3043 31.7982C34.3043 31.7982 33.4255 32.1424 33.0088 32.2602C32.882 32.2964 32.7552 32.3236 32.6283 32.3417C32.4834 32.3689 32.3384 32.378 32.2025 32.378C31.668 32.378 31.3057 32.1968 31.1064 32.0337C31.0067 31.9612 30.898 31.8525 30.7983 31.7166V32.7585L30.5628 32.8309C29.3489 33.2024 28.1168 33.5919 26.9028 33.9996L26.5495 34.1174C26.169 34.3348 25.7614 34.525 25.3899 34.6609C25.2631 34.7062 25.1453 34.7425 25.0185 34.7696C24.8192 34.8149 24.629 34.8421 24.4478 34.8421C23.9857 34.8421 23.6687 34.6881 23.4875 34.5613C23.3878 34.4888 23.2791 34.3891 23.1795 34.2623V35.3313L22.962 35.4128C21.7572 35.8658 20.5432 36.3369 19.3474 36.8261L18.8944 37.0073C18.8944 37.0073 17.9522 37.5418 17.5355 37.7139C17.3906 37.7773 17.2456 37.8317 17.1097 37.8679C16.847 37.9494 16.6024 37.9857 16.385 37.9857C16.2038 37.9857 16.0317 37.9585 15.8867 37.9042C15.4519 38.3209 14.7271 38.946 13.948 39.3083C13.785 39.3808 13.631 39.4442 13.486 39.4895C13.1871 39.5892 12.9153 39.6435 12.6616 39.6435C12.3536 39.6435 12.0818 39.5711 11.8463 39.4261C11.7104 39.3446 11.6017 39.2359 11.502 39.1181C11.502 40.0693 11.502 42.1801 11.502 42.1801L11.3208 42.2707C9.98006 42.9502 8.62116 43.6568 7.2985 44.3906L6.81836 44.6533L7.62464 45.0791L7.84206 44.9614C9.17378 44.2366 10.5236 43.53 11.8735 42.8596L12.0546 42.769V39.716C12.1996 39.8519 12.3264 39.9697 12.408 40.024C12.6435 40.169 12.9153 40.2505 13.2323 40.2505C13.486 40.2505 13.7578 40.2052 14.0477 40.1056C14.1926 40.0603 14.3376 39.9969 14.5097 39.9244C15.2888 39.5711 16.0136 38.955 16.4575 38.5292C16.6115 38.5836 16.7836 38.6108 16.9648 38.6108C17.1822 38.6108 17.4177 38.5745 17.6805 38.493C17.8164 38.4568 17.9613 38.4024 18.1063 38.339C18.523 38.1669 19.4652 37.6324 19.4652 37.6324L19.9181 37.4512C21.0958 36.971 22.3188 36.5 23.5328 36.0561L23.7411 35.9745V34.9055C23.8499 35.0505 23.9676 35.1411 24.0582 35.2135C24.2394 35.3404 24.5565 35.4944 25.0276 35.4944C25.1997 35.4944 25.3899 35.4672 25.5892 35.431C25.707 35.4038 25.8338 35.3675 25.9607 35.3223C26.3321 35.1954 26.7398 35.0052 27.1203 34.7878L27.4736 34.67C28.6875 34.2714 29.9196 33.8818 31.1335 33.5194L31.3691 33.447V32.4052C31.505 32.5501 31.6227 32.6679 31.6862 32.7222C31.8945 32.8762 32.2478 33.0665 32.7914 33.0665C32.9273 33.0665 33.0722 33.0574 33.2081 33.0302C33.3259 33.0121 33.4527 32.9849 33.5886 32.9487C34.0053 32.8309 34.8932 32.4867 34.8932 32.4867L35.3099 32.378C36.551 32.0518 37.8102 31.7438 39.0514 31.463L39.305 31.4086V29.7689C39.459 29.941 39.604 30.1041 39.7761 30.2309C40.3559 30.7111 41.0988 30.9466 41.9866 30.9466C42.1225 30.9466 42.2674 30.9466 42.4124 30.9285C42.6479 30.9104 42.8925 30.8741 43.1462 30.8288C43.6173 30.7382 44.1155 30.5842 44.5776 30.394H44.5957C45.8549 30.1675 47.1323 29.9501 48.4006 29.7689L48.6452 29.7327L48.7448 29.0079C48.8717 29.171 49.234 29.6421 49.234 29.6421L49.4243 29.6149C51.6619 29.3069 53.9268 29.0532 56.1644 28.8811L56.4724 28.8539V27.7758C56.9526 28.2922 57.6411 28.8177 58.3749 28.8177H58.4745C58.5198 28.8177 58.5742 28.8177 58.6195 28.8177C58.6829 28.8177 58.7554 28.8177 58.8188 28.8177C59.5073 28.7814 60.3226 28.5459 60.8118 28.3556L61.3282 28.1563C61.3282 28.1563 61.3282 27.7668 61.3282 27.6943C61.3644 27.7305 61.3916 27.7668 61.4279 27.803C61.8355 28.2016 62.3882 28.4462 63.0676 28.5096C63.1944 28.5187 63.3303 28.5278 63.4662 28.5278C63.4934 28.5278 63.5206 28.5278 63.5477 28.5278C64.1728 28.5187 64.807 28.5096 65.4321 28.5096C66.0209 28.5096 66.6098 28.5096 67.1896 28.5187H67.4885V28.5006C67.5882 28.5187 67.6878 28.5368 67.7875 28.564C68.0683 28.6184 68.3945 28.6727 68.7387 28.7271C69.3004 28.8086 69.844 28.863 70.306 28.8811C70.3966 28.8811 70.4872 28.8811 70.5778 28.8811C71.7917 28.8811 72.7611 28.5187 73.3952 27.8302C73.975 27.1961 74.2377 26.3173 74.1471 25.2936" fill="#211551"/>
<path d="M1.60965 47.5795L2.41592 47.96L6.79157 45.4596V44.6262C6.79157 44.6262 6.79157 39.8338 6.79157 37.723C6.56509 37.8407 6.3386 37.9676 6.11212 38.0853V44.9795L1.60059 47.5885L1.60965 47.5795Z" fill="#211551"/>
<path d="M6.79126 33.0574C6.79126 31.7257 6.79126 29.488 6.79126 27.9933L6.13899 26.8156L6.11182 33.4198C6.3383 33.302 6.56478 33.1752 6.79126 33.0574Z" fill="#211551"/>
<path d="M67.1352 35.5396C66.8997 35.3766 66.6641 35.2226 66.4286 35.0595C60.5672 34.9508 55.7658 34.9961 49.9044 35.7752V31.7166C42.4486 32.7403 30.9614 35.7118 23.6777 38.1578L24.3753 38.502C31.206 36.2553 42.2674 33.3563 49.2522 32.3508C49.2522 33.755 49.2522 35.0414 49.2522 36.4184C55.5665 35.5215 60.83 35.3947 67.1352 35.5306V35.5396Z" fill="#A6A8AB"/>
<path d="M23.6777 42.3794C23.9133 42.4882 24.1398 42.5969 24.3753 42.7056V38.5111C24.1216 38.4024 23.9314 38.2665 23.6777 38.1669V42.3794Z" fill="white"/>
<path d="M24.3756 20.157C24.3756 19.4322 24.3756 18.7075 24.3756 17.9827C24.3756 17.3033 24.3756 16.6329 24.3756 15.9806C18.1338 17.9827 13.9574 19.849 7.96924 22.8657C8.1776 22.911 8.38597 22.9563 8.58527 23.0107C14.1658 20.2295 17.8801 18.5354 23.6781 16.6329V20.8274C30.9527 18.4629 42.4761 15.7089 49.9048 14.7576C49.6873 14.6308 49.4699 14.513 49.2525 14.3953C42.2678 15.3284 31.2154 17.9827 24.3756 20.1751V20.157Z" fill="#A6A8AB"/>
<path d="M49.2524 10.2279V14.3771C49.4699 14.4949 49.6873 14.6217 49.9047 14.7395V10.6084C49.6963 10.4816 49.4608 10.3457 49.2524 10.2189V10.2279Z" fill="#A6A8AB"/>
<path d="M23.2883 23.6811C22.1469 24.0887 21.0054 24.5145 19.873 24.9584C19.8549 28.5006 19.8367 32.0519 19.8277 35.6031C20.6249 35.286 21.4221 34.969 22.2284 34.67C22.2284 33.2658 22.2375 31.8707 22.2465 30.4665C22.6633 30.3125 23.089 30.1494 23.5058 30.0045C23.5873 31.0463 23.6779 32.079 23.7685 33.1209C23.8319 33.909 24.4298 33.9996 25.1364 33.755C25.7253 33.5466 26.3776 33.1662 26.7671 32.8581C26.7762 32.3418 26.7852 31.8254 26.7943 31.309C26.5497 31.3905 26.296 31.4721 26.0514 31.5627C26.0061 30.9647 25.9518 30.3759 25.9065 29.778C25.834 28.9355 25.6166 28.41 24.8013 28.4372C25.5985 27.7215 26.287 26.3898 26.1601 24.9131C26.0967 24.1612 25.7978 22.8114 23.2974 23.6992M23.6507 28.3557C23.1525 28.5368 22.6633 28.718 22.165 28.8992C22.165 27.8846 22.165 26.8699 22.165 25.8553C22.6633 25.6741 23.1615 25.4839 23.6688 25.3117C23.6688 26.3264 23.6507 27.341 23.6417 28.3557M7.7154 33.6282C6.87288 34.063 6.03037 34.5069 5.19691 34.969C5.20597 32.7675 5.21503 30.5661 5.22409 28.3647C4.31816 28.8539 3.42129 29.3612 2.52441 29.8776C2.52441 35.2589 2.52441 40.6491 2.52441 46.0394C3.41223 45.514 4.3091 44.9976 5.20597 44.4993C5.20597 42.1983 5.20597 39.8972 5.20597 37.5962C6.03943 37.1341 6.88194 36.6902 7.72446 36.2554C7.72446 38.5474 7.72446 40.8484 7.72446 43.1404C8.66663 42.6331 9.61785 42.1349 10.5691 41.6457C10.5781 36.2916 10.5963 30.9466 10.6144 25.6016C9.64503 26.0727 8.68474 26.5619 7.73352 27.0692C7.73352 29.2616 7.73352 31.4539 7.72446 33.6372M30.9253 21.2441C29.7748 21.5793 28.6243 21.9326 27.4737 22.295C27.4556 25.8191 27.4284 29.3431 27.4103 32.8672C28.2166 32.6045 29.0319 32.3418 29.8382 32.0972C29.8382 30.702 29.8563 29.3159 29.8563 27.9208C30.2821 27.794 30.7079 27.6672 31.1337 27.5403C31.2243 28.5821 31.3058 29.6149 31.3964 30.6477C31.4598 31.4358 32.0668 31.5627 32.7825 31.3633C33.3804 31.1912 34.0327 30.8651 34.4313 30.5752C34.4404 30.0679 34.4494 29.5515 34.4585 29.0442C34.2048 29.1076 33.9602 29.1801 33.7065 29.2435C33.6613 28.6456 33.6069 28.0567 33.5616 27.4678C33.4891 26.6253 33.2717 26.0908 32.4473 26.0637C33.2536 25.4023 33.9421 24.125 33.8243 22.6483C33.7609 21.9054 33.4529 20.5375 30.9344 21.2532M31.2877 25.9006C30.7895 26.0455 30.2912 26.1905 29.7929 26.3445C29.7929 25.3389 29.7929 24.3333 29.802 23.3277C30.3093 23.1737 30.8166 23.0288 31.3149 22.8838L31.2877 25.9096M16.0047 26.6072C15.9956 29.5787 15.9865 32.5592 15.9684 35.5306C15.443 35.7662 14.9175 35.9927 14.3921 36.2282C14.4012 33.2477 14.4102 30.2672 14.4193 27.2957C13.6221 27.649 12.8339 28.0114 12.0367 28.3828C12.0367 31.4902 12.0186 34.5975 12.0095 37.7049C12.1182 38.9732 12.9517 38.792 13.6855 38.4568C14.5642 38.0491 15.5155 37.1341 16.0318 36.4909C16.0318 36.5362 16.0318 36.5906 16.0409 36.6449C16.0862 37.2157 16.7294 37.0888 17.282 36.8623C17.8981 36.5996 18.65 36.0833 19.0758 35.6756V34.2261C18.8312 34.3257 18.5956 34.4163 18.3601 34.516C18.3782 31.5445 18.3963 28.5731 18.4144 25.6107C17.6082 25.9368 16.8019 26.272 15.9956 26.6163M57.9311 24.5508C57.2426 21.996 56.5451 19.4413 55.8566 16.8866C54.86 16.9591 53.8544 17.0406 52.8489 17.1402C52.8217 20.5828 52.7945 24.0253 52.7673 27.4678C53.483 27.3863 54.1896 27.3229 54.9053 27.2595C54.8781 24.9584 54.86 22.6574 54.8329 20.3563C55.3221 22.2135 55.8113 24.0706 56.3005 25.9278C56.536 26.9243 57.1702 27.187 58.067 27.1327C58.6015 27.0964 59.2991 26.9152 59.7792 26.725C59.7974 23.373 59.8064 20.012 59.8245 16.6601C59.0998 16.6873 58.366 16.7235 57.6322 16.7688C57.7228 19.3598 57.8224 21.9507 57.913 24.5508M72.1543 18.6984C72.1543 18.1186 72.1724 17.5388 72.1814 16.9591C71.7285 16.8503 70.9041 16.7235 70.3424 16.6963C68.3946 16.5876 67.0448 17.4664 67.1988 19.3417C67.2622 20.0755 67.6699 20.8636 68.2406 21.5974C68.8567 22.4037 69.4818 23.21 70.0978 24.0163C70.0887 24.433 70.0797 24.8406 70.0616 25.2574C69.1284 25.2211 68.1863 25.1849 67.2532 25.1668C67.2532 25.7285 67.2441 26.2992 67.235 26.8609C67.8964 26.9968 68.8114 27.1236 69.5905 27.1508C71.5926 27.2232 72.7612 26.1724 72.6163 24.3967C72.5438 23.4999 71.9912 22.6121 71.1487 21.5159C70.6685 20.8908 70.1884 20.2566 69.7173 19.6316C69.7354 19.2692 69.7535 18.9159 69.7626 18.5626C70.5598 18.5988 71.357 18.6441 72.1543 18.6984ZM61.1381 25.6922C61.1925 26.3536 61.6636 26.8428 62.805 26.8156C63.8831 26.7975 64.9521 26.7884 66.0211 26.7975C66.0845 26.2177 66.157 25.6379 66.2204 25.0581C65.3598 25.0581 64.4901 25.0581 63.6204 25.0581C63.6204 24.1793 63.6385 23.2915 63.6385 22.4128C64.3089 22.4128 64.9793 22.4128 65.6497 22.4128C65.6497 21.8601 65.6497 21.3166 65.6497 20.764C64.9702 20.764 64.2998 20.764 63.6204 20.764C63.6204 19.9577 63.6385 19.1514 63.6385 18.3451C64.4357 18.3451 65.2329 18.3451 66.0302 18.3542C66.0302 17.7653 66.0483 17.1855 66.0573 16.6057C64.4448 16.5786 62.8232 16.5876 61.2106 16.6329C61.1834 19.6497 61.1562 22.6755 61.1381 25.7013M44.7045 28.6274C45.5289 28.4825 46.3443 28.3466 47.1687 28.2198C47.2955 27.2504 47.4314 26.2901 47.5582 25.3208C48.0655 25.2483 48.5819 25.1668 49.0892 25.1034C49.1708 26.0365 49.2433 26.9696 49.3248 27.9027C50.1401 27.794 50.9555 27.6853 51.7799 27.5947C51.499 24.1793 51.2182 20.773 50.9283 17.3577C49.515 17.5207 48.1108 17.7019 46.6976 17.9193C46.0272 21.4796 45.3659 25.049 44.7045 28.6274ZM48.3011 19.3326C48.4189 19.3145 48.5276 19.2964 48.6453 19.2873C48.7631 20.7096 48.8809 22.1319 48.9987 23.5452C48.5638 23.5995 48.138 23.6629 47.7032 23.7264C47.9025 22.2587 48.1018 20.7911 48.3011 19.3326ZM35.2376 30.6205C36.071 30.4031 36.9045 30.1947 37.7379 29.9954C37.7651 26.5076 37.7923 23.0107 37.8195 19.5228C36.986 19.7131 36.1526 19.9124 35.3191 20.1208C35.2919 23.6176 35.2647 27.1145 35.2466 30.6205M41.4976 20.5737C42.3763 20.4016 43.2641 20.2385 44.1519 20.0845C44.17 19.4866 44.1791 18.8887 44.1972 18.2908C43.7805 18.2545 43.1463 18.2908 42.6662 18.3814C41.3254 18.635 40.3651 19.3145 39.6857 20.4288C38.7526 21.9779 38.6076 24.5055 38.7526 26.2539C38.8794 27.7577 39.3505 29.8414 42.3401 29.2344C43.0105 29.0985 43.7443 28.8267 44.2425 28.5187C44.2425 27.9752 44.2606 27.4316 44.2606 26.8971C43.3275 27.0602 42.3944 27.2414 41.4523 27.4316C41.4704 25.1487 41.4794 22.8567 41.4976 20.5737Z" fill="white"/>
<g style="mix-blend-mode:multiply" opacity="0.55">
<path d="M2.95042 45.2875C2.95042 40.2052 2.95042 35.132 2.95042 30.0588C2.81453 29.9863 2.66958 29.9229 2.53369 29.8504C2.53369 35.2316 2.53369 40.6219 2.53369 46.0122C3.4215 45.4868 4.31837 44.9704 5.21525 44.4631C5.09748 44.3725 4.97064 44.2909 4.85287 44.2003C4.21872 44.5537 3.58457 44.916 2.95042 45.2875Z" fill="#808184"/>
<path d="M31.7044 26.0274C31.7226 24.7682 31.7407 23.5089 31.7497 22.2497C30.9888 22.4671 30.2278 22.6936 29.4668 22.9201C29.5664 23.0379 29.6661 23.1647 29.7748 23.2825C30.2821 23.1284 30.7895 22.9835 31.2877 22.8385C31.2787 23.8441 31.2696 24.8497 31.2605 25.8644C31.4055 25.9187 31.5504 25.9731 31.6954 26.0365" fill="#808184"/>
<path d="M24.0859 28.4825C24.095 27.2141 24.104 25.9368 24.1221 24.6594C23.3793 24.9221 22.6364 25.1939 21.8936 25.4748C21.9841 25.5925 22.0838 25.7103 22.1744 25.8281C22.6727 25.6469 23.1709 25.4657 23.6782 25.2845C23.6782 26.2992 23.6601 27.3138 23.6511 28.3284C23.796 28.3828 23.95 28.4281 24.095 28.4825" fill="#808184"/>
<path d="M8.13233 33.7278C8.13233 31.5717 8.13233 29.4156 8.14139 27.2504C7.99644 27.1779 7.86055 27.0964 7.7156 27.0239C7.7156 29.2163 7.7156 31.3996 7.70654 33.5919C7.85149 33.6372 7.98738 33.6825 8.12327 33.7188" fill="#808184"/>
<path d="M16.3765 35.5578C16.3855 32.6135 16.4036 29.6783 16.4127 26.7431C16.2678 26.6797 16.1228 26.6163 15.9869 26.5529C15.9779 29.5243 15.9597 32.5048 15.9507 35.4763C16.0956 35.5035 16.2315 35.5306 16.3765 35.5578Z" fill="#808184"/>
<path d="M43.7806 19.6225C42.92 19.7674 42.0594 19.9305 41.1987 20.1026C41.2984 20.2385 41.398 20.3744 41.4977 20.5012C42.3764 20.3291 43.2643 20.1661 44.1521 20.012C44.0252 19.8852 43.9075 19.7493 43.7806 19.6225Z" fill="#808184"/>
<path d="M70.0979 23.9528C70.0888 24.3696 70.0798 24.7772 70.0616 25.194C70.2156 25.194 70.3606 25.203 70.5055 25.2121C70.5237 24.6504 70.5327 24.0887 70.5508 23.5271C69.9348 22.7117 69.3097 21.9054 68.6937 21.0992C68.1229 20.3563 67.7153 19.5681 67.6519 18.8343C67.5884 18.1187 67.7515 17.5479 68.0867 17.1221C67.4526 17.557 67.1083 18.2727 67.1989 19.2601C67.2623 19.9939 67.67 20.7821 68.2407 21.5159C68.8567 22.3222 69.4818 23.1285 70.0979 23.9347" fill="#808184"/>
<path d="M65.6682 21.9054C64.88 21.8963 64.0919 21.8873 63.3037 21.8963C63.4215 22.0503 63.5393 22.2043 63.657 22.3584C64.3274 22.3584 64.9978 22.3584 65.6682 22.3584V21.9144" fill="#808184"/>
<path d="M69.7901 18.0552C69.7901 18.2002 69.781 18.3451 69.772 18.4991C70.5692 18.5354 71.3664 18.5807 72.1636 18.635C72.1636 18.4901 72.1636 18.3361 72.1636 18.1911C71.3664 18.1368 70.5783 18.0915 69.781 18.0552" fill="#808184"/>
<path d="M58.312 25.5291C58.2486 22.7207 58.1852 19.9033 58.1217 17.0949C57.9587 16.9681 57.8047 16.8412 57.6416 16.7144C57.7413 19.2963 57.8318 21.8782 57.9315 24.4692C58.0583 24.8225 58.1942 25.1758 58.321 25.5382" fill="#808184"/>
<path d="M49.0987 18.4448C48.9537 18.6984 48.7997 18.9521 48.6548 19.2148C48.7726 20.6371 48.8903 22.0594 49.0081 23.4727C49.1802 23.5452 49.3614 23.6267 49.5426 23.6992C49.3976 21.9507 49.2436 20.2023 49.0987 18.4448Z" fill="#808184"/>
<path d="M63.3035 17.8196C63.4213 17.9736 63.539 18.1277 63.6568 18.2817C64.454 18.2817 65.2512 18.2817 66.0485 18.2907C66.0485 18.1458 66.0485 17.9918 66.0485 17.8468C65.1335 17.8287 64.2185 17.8196 63.2944 17.8196" fill="#808184"/>
<path d="M58.5292 26.5982C57.6323 26.6525 56.9982 26.3807 56.7626 25.3842C56.1375 23.0197 55.5215 20.6553 54.8964 18.2908C54.8783 18.9612 54.8511 19.6225 54.833 20.2929C55.3222 22.15 55.8114 24.0072 56.3006 25.8644C56.5362 26.8609 57.1703 27.1327 58.0672 27.0692C58.6017 27.033 59.2992 26.8518 59.7794 26.6616C59.7794 26.5529 59.7794 26.4532 59.7794 26.3536C59.3717 26.4804 58.9097 26.58 58.5292 26.5982Z" fill="#808184"/>
<path d="M49.7962 27.3138C49.7147 26.3807 49.6422 25.4476 49.5607 24.5145C48.8088 24.6141 48.0659 24.7228 47.314 24.8315C47.3955 24.9674 47.477 25.1124 47.5586 25.2483C48.0659 25.1758 48.5823 25.0943 49.0896 25.0308C49.1711 25.964 49.2436 26.8971 49.3251 27.8302C50.1405 27.7215 50.9558 27.6127 51.7711 27.5222C51.6443 27.3863 51.5265 27.2594 51.3997 27.1235C50.8652 27.187 50.3217 27.2504 49.7872 27.3138" fill="#808184"/>
<path d="M45.1759 28.0204C45.7829 24.7138 46.3989 21.4162 47.0059 18.1277C46.9062 18.0371 46.8066 17.9374 46.7069 17.8378C46.0456 21.3981 45.3752 24.9674 44.7139 28.5459C45.5383 28.4009 46.3536 28.265 47.178 28.1382C47.0783 28.0114 46.9787 27.8755 46.8881 27.7396C46.3174 27.8302 45.7466 27.9208 45.1759 28.0114" fill="#808184"/>
<path d="M53.2203 26.9061C53.2475 23.7626 53.2656 20.628 53.2928 17.4844C53.1388 17.3486 52.9848 17.2127 52.8398 17.0768C52.8127 20.5193 52.7855 23.9619 52.7583 27.4044C53.474 27.3319 54.1806 27.2594 54.8963 27.196C54.7604 27.0601 54.6245 26.9242 54.4886 26.7884C54.0628 26.8246 53.6461 26.8608 53.2203 26.9061Z" fill="#808184"/>
<path d="M8.15051 42.4066C8.15051 40.1146 8.15051 37.8226 8.15957 35.5215C7.06339 36.0923 5.97628 36.6721 4.88916 37.2791C4.99787 37.3696 5.09752 37.4693 5.20624 37.5599C6.03969 37.0979 6.88221 36.654 7.72472 36.2191C7.72472 38.5111 7.72472 40.8122 7.72472 43.1042C8.66689 42.5969 9.61812 42.0986 10.5693 41.6094C10.4606 41.5188 10.3519 41.4192 10.2432 41.3286C9.54564 41.6819 8.85714 42.0442 8.15957 42.4066" fill="#808184"/>
<path d="M70.0526 26.6616C69.2825 26.6253 68.3676 26.4985 67.6972 26.3626C67.6972 25.9459 67.6972 25.5292 67.7062 25.1124C67.5522 25.1124 67.3982 25.1124 67.2442 25.1124C67.2442 25.6741 67.2351 26.2448 67.2261 26.8065C67.8874 26.9424 68.8115 27.0692 69.5815 27.0964C70.732 27.1417 71.6017 26.8156 72.109 26.1905C71.5927 26.5347 70.8951 26.7069 70.0435 26.6706" fill="#808184"/>
<path d="M42.8025 28.6184C39.8129 29.2072 39.3418 27.1236 39.215 25.6197C39.07 23.8713 39.215 21.3437 40.1481 19.8036C40.2206 19.6949 40.284 19.5862 40.3564 19.4866C40.1028 19.7402 39.8854 20.0301 39.6861 20.3563C38.7529 21.9054 38.608 24.433 38.7529 26.1814C38.8798 27.6852 39.3509 29.7689 42.3404 29.1619C43.0108 29.026 43.7446 28.7542 44.2429 28.4462C44.2429 28.3466 44.2429 28.2469 44.2429 28.1473C43.808 28.3466 43.2917 28.5187 42.8025 28.6093" fill="#808184"/>
<path d="M63.2764 26.2992C62.1349 26.3173 61.6638 25.8281 61.6095 25.1668C61.6276 22.4309 61.6457 19.704 61.6638 16.9681C61.5189 16.8322 61.3649 16.6963 61.2199 16.5604C61.1928 19.5862 61.1656 22.603 61.1475 25.6288C61.2018 26.2901 61.6729 26.7793 62.8144 26.7521C63.8834 26.734 64.9614 26.725 66.0304 26.725C65.9036 26.58 65.7858 26.4351 65.659 26.2901C64.8618 26.2901 64.0736 26.2901 63.2764 26.2901" fill="#808184"/>
<path d="M20.272 34.9599C20.2811 31.6895 20.2902 28.4191 20.3083 25.1486C20.1633 25.0852 20.0184 25.0218 19.8734 24.9493C19.8553 28.5006 19.8372 32.0428 19.8281 35.594C20.6253 35.277 21.4226 34.9599 22.2288 34.6609C22.1111 34.5613 21.9933 34.4616 21.8665 34.362C21.332 34.5613 20.8065 34.7515 20.272 34.9599Z" fill="#808184"/>
<path d="M25.5807 33.1299C24.8741 33.3745 24.2762 33.2839 24.2037 32.4957C24.1131 31.4539 24.0316 30.4212 23.941 29.3793C23.2525 29.6239 22.573 29.8685 21.8936 30.1222C22.0023 30.24 22.12 30.3487 22.2287 30.4665C22.6455 30.3124 23.0713 30.1494 23.488 30.0044C23.5695 31.0462 23.6601 32.079 23.7507 33.1208C23.8141 33.909 24.412 33.9996 25.1187 33.755C25.7075 33.5466 26.3598 33.1661 26.7493 32.849C26.7493 32.7494 26.7493 32.6497 26.7493 32.5501C26.396 32.7766 25.9702 32.994 25.5716 33.1299" fill="#808184"/>
<path d="M17.7081 36.1467C17.1555 36.3822 16.5123 36.5 16.467 35.9292C16.467 35.8749 16.467 35.8296 16.4579 35.7752C15.9416 36.4185 14.9903 37.3244 14.1116 37.7321C13.3868 38.0672 12.5443 38.2394 12.4356 36.9711C12.4356 34.1717 12.4356 31.3634 12.4447 28.564C12.2997 28.4825 12.1638 28.41 12.0189 28.3285C12.0098 31.4358 12.0008 34.5432 11.9917 37.6505C12.1004 38.9188 12.9339 38.7376 13.6677 38.4024C14.5464 37.9948 15.4977 37.0798 16.014 36.4366C16.014 36.4819 16.014 36.5362 16.0231 36.5906C16.0684 37.1613 16.7116 37.0435 17.2642 36.808C17.8802 36.5453 18.6322 36.0289 19.058 35.6212V35.3495C18.6503 35.6575 18.143 35.9745 17.7081 36.1557" fill="#808184"/>
<path d="M33.2265 30.7383C32.5108 30.9376 31.9039 30.8017 31.8404 30.0226C31.7499 28.9898 31.6683 27.948 31.5777 26.9152C30.8892 27.1145 30.2007 27.3138 29.5122 27.5222C29.6209 27.64 29.7387 27.7668 29.8474 27.8846C30.2732 27.7577 30.699 27.6309 31.1248 27.5041C31.2063 28.5459 31.2969 29.5787 31.3875 30.6114C31.4509 31.3996 32.0579 31.5264 32.7736 31.3271C33.3715 31.155 34.0237 30.8288 34.4223 30.5389C34.4223 30.4393 34.4223 30.3396 34.4223 30.249C34.06 30.4484 33.6342 30.6386 33.2265 30.7473" fill="#808184"/>
<path d="M27.8543 32.224C27.8725 28.9807 27.8906 25.7375 27.9087 22.4943C27.7637 22.4127 27.6097 22.3403 27.4648 22.2587C27.4467 25.7828 27.4195 29.3069 27.4014 32.8309C28.2076 32.5682 29.0139 32.3055 29.8293 32.0609C29.7024 31.9522 29.5756 31.8344 29.4578 31.7257C28.9233 31.8888 28.3888 32.0518 27.8634 32.224" fill="#808184"/>
<path d="M35.7091 29.9772C35.7363 26.7702 35.7544 23.5542 35.7725 20.3562C35.6185 20.2566 35.4736 20.1569 35.3195 20.0663C35.2924 23.5632 35.2742 27.0601 35.2471 30.557C36.0805 30.3396 36.914 30.1403 37.7474 29.941C37.6116 29.8232 37.4757 29.7054 37.3398 29.5877C36.7962 29.7145 36.2527 29.8504 35.7091 29.9863" fill="#808184"/>
</g>
<path d="M60.3499 7.10253V6.12412C57.2244 5.85234 53.1568 6.06977 49.9226 6.16942C52.1331 5.51715 57.2788 4.74711 60.3499 4.48439V3.50598C45.085 4.84676 28.4974 9.94715 13.9028 17.3305C28.8688 10.989 45.1937 7.53737 60.3499 7.10253Z" fill="url(#paint2_linear_2904_23956)"/>
<path d="M56.4003 38.9822C52.6135 39.254 48.0929 39.8156 43.1647 40.7669V43.3759C39.1967 44.146 34.966 45.1606 30.6628 46.4923V43.8833C26.2872 45.2331 21.83 46.9 17.4906 48.9293C17.4906 49.5453 17.4906 50.2701 17.4906 51.0764C19.3025 50.4331 22.0837 49.6178 23.7506 49.3098C21.5039 50.3788 18.922 51.7739 17.4816 52.6708C17.4634 55.3614 17.4453 58.4144 17.4453 60.3621C21.8119 58.36 26.2872 56.7203 30.6719 55.3795V52.5983C34.9751 51.2666 39.2058 50.252 43.1737 49.4819V52.2631C48.0567 51.3119 52.5682 50.723 56.4094 50.4241V43.0226C53.1662 42.8324 50.1947 42.7871 47.4769 42.8233C50.4484 42.316 53.4289 41.8993 56.4094 41.5731V38.9822H56.4003Z" fill="url(#paint3_linear_2904_23956)"/>
<path d="M27.7818 73.3441L28.7149 67.0026L24.2939 66.1692C24.8647 64.0493 25.4445 61.9385 26.0152 59.8277C33.8696 57.0283 42.6209 55.1531 50.5569 54.0388L46.8335 59.42C38.6529 60.8514 32.4111 62.8988 31.7226 63.1887C32.7282 63.3064 35.2829 63.5601 35.9895 63.6779C35.9442 64.1036 35.6906 66.6674 35.6906 66.6674C31.2424 68.887 27.7908 73.3532 27.7908 73.3532L27.7818 73.3441Z" fill="url(#paint4_linear_2904_23956)"/>
<path d="M25.6802 66.4319C25.6259 66.6493 25.5624 66.8667 25.499 67.0932L28.6064 67.6821L28.706 67.0117L25.6802 66.4409V66.4319Z" fill="#211551"/>
<path d="M35.1921 63.5601C37.611 62.7448 41.1079 61.703 44.6954 61.1141L45.7644 59.6012C38.1092 61.0144 32.3656 62.8988 31.7134 63.1796C32.4744 63.2702 34.1322 63.4333 35.2012 63.5601" fill="#211551"/>
<path d="M28.6605 72.3023L28.1895 74.7302C28.1895 74.7302 31.8041 69.5483 35.8355 67.528C35.8355 67.528 35.6996 66.8486 35.6724 66.6493C32.5651 68.1984 29.947 70.8438 28.6515 72.2932" fill="#211551"/>
<g style="mix-blend-mode:multiply" opacity="0.65">
<path d="M50.5478 54.0297C42.6209 55.144 33.8696 57.0193 26.0152 59.8186C25.4445 61.9294 24.8647 64.0403 24.2939 66.1601L28.7149 67.0027L27.7818 73.3442C27.7818 73.3442 31.1609 68.9776 35.5456 66.7309C33.3533 67.2382 31.0341 68.7964 29.6933 69.7748L30.3093 66.0061L27.0842 64.7016L27.7727 60.7699C29.8382 60.0813 39.124 57.1914 49.2342 55.8506L49.3248 55.8053L50.5569 54.0297H50.5478Z" fill="#A6A8AB"/>
</g>
<path d="M12.091 25.0852L11.5384 24.0978C11.5384 24.0978 11.5384 26.58 11.5293 27.5584C11.7105 27.4678 11.9007 27.3863 12.0819 27.3048C12.0819 26.6072 12.0819 25.0943 12.0819 25.0943" fill="#211551"/>
<path d="M45.085 21.4252L45.6738 18.182L45.1665 17.3576L45.085 21.4252Z" fill="#211551"/>
<path d="M38.7886 18.2726L38.7705 20.0211C38.7977 19.9667 38.8249 19.9214 38.8611 19.8671C39.0061 19.6315 39.151 19.4232 39.3141 19.2239L38.7886 18.2817V18.2726Z" fill="#211551"/>
<path d="M26.0879 14.7213C26.2872 14.6579 26.4774 14.5854 26.6767 14.522C26.6767 14.9659 26.6767 15.4189 26.6767 15.8719C27.2928 15.6635 27.9088 15.4642 28.5248 15.2739C28.5248 14.83 28.5248 14.3771 28.5248 13.9332C28.7241 13.8698 28.9235 13.8063 29.1228 13.7429C29.1228 14.8935 29.1228 16.053 29.1318 17.2036C28.9325 17.267 28.7332 17.3304 28.5339 17.3938C28.5339 16.8956 28.5339 16.3973 28.5339 15.899C27.9179 16.0893 27.3018 16.2886 26.6858 16.4969C26.6858 16.9952 26.6858 17.4935 26.6858 17.9917C26.4865 18.0552 26.2963 18.1276 26.0969 18.191C26.0969 17.0314 26.0969 15.8719 26.0879 14.7213Z" fill="white"/>
<path d="M30.5541 13.2719C31.1792 13.0907 31.8043 12.9186 32.4294 12.7464C32.9095 12.6196 33.0635 12.7464 33.0635 13.3896C33.0635 13.9966 33.0635 14.6036 33.0635 15.2106C33.0635 15.8628 32.9095 16.0621 32.4294 16.198C31.8043 16.3701 31.1792 16.5423 30.5541 16.7325C30.0739 16.8684 29.9199 16.7506 29.9199 16.0984C29.9199 15.4914 29.9199 14.8844 29.9199 14.2774C29.9199 13.6252 30.0739 13.4168 30.5541 13.2719ZM32.4837 15.5367C32.4837 14.8029 32.4837 14.0781 32.4837 13.3443C31.8314 13.5255 31.1792 13.7067 30.5269 13.897C30.5269 14.6308 30.5269 15.3555 30.5269 16.0893C31.1792 15.8991 31.8314 15.7179 32.4837 15.5367Z" fill="white"/>
<path d="M33.8789 12.3931C34.6127 12.2119 35.3375 12.0307 36.0713 11.8586C36.4608 11.768 36.6511 11.9129 36.6511 12.3931V12.8098C36.6511 13.145 36.497 13.3806 36.2162 13.4893C36.5152 13.4712 36.6782 13.6795 36.6782 14.0419C36.6782 14.1868 36.6782 14.3318 36.6782 14.4858C36.6782 14.9478 36.4246 15.2196 35.9263 15.3374C35.2469 15.5004 34.5674 15.6635 33.888 15.8356C33.888 14.6851 33.888 13.5346 33.8789 12.384M34.4678 14.1868C34.4678 14.4767 34.4678 14.7666 34.4678 15.0565C34.9207 14.9478 35.3737 14.83 35.8267 14.7304C36.026 14.6851 36.1166 14.6126 36.1166 14.359C36.1166 14.2684 36.1166 14.1868 36.1166 14.0962C36.1166 13.8426 36.035 13.8063 35.8267 13.8607C35.3737 13.9694 34.9207 14.0781 34.4678 14.1868ZM34.4678 12.8008C34.4678 13.0725 34.4678 13.3443 34.4678 13.6252C34.9207 13.5164 35.3737 13.4077 35.8267 13.299C36.0078 13.2537 36.0984 13.1903 36.0984 12.991C36.0984 12.8823 36.0984 12.7736 36.0984 12.6649C36.0984 12.4656 36.0078 12.4384 35.8267 12.4837C35.3737 12.5924 34.9207 12.7011 34.4678 12.8098" fill="white"/>
<path d="M38.6982 11.2063C38.8885 11.1701 39.0787 11.1248 39.278 11.0886C39.7763 12.1304 40.2655 13.1813 40.7638 14.2321C40.5373 14.2774 40.3108 14.3227 40.0934 14.359C39.9937 14.1234 39.885 13.8969 39.7854 13.6705C39.2418 13.7792 38.6982 13.8879 38.1547 14.0057C38.055 14.2774 37.9554 14.5492 37.8557 14.821C37.6564 14.8663 37.4571 14.9116 37.2578 14.9569C37.738 13.7067 38.2181 12.4565 38.6982 11.2063ZM39.5226 13.0997C39.3415 12.6739 39.1512 12.2391 38.97 11.8133C38.7798 12.3206 38.5895 12.8279 38.3993 13.3262C38.7707 13.2447 39.1512 13.1722 39.5226 13.0907" fill="white"/>
<path d="M41.262 10.69C41.9958 10.5541 42.7296 10.4363 43.4725 10.3185C43.8711 10.2551 44.0523 10.4182 44.0523 10.8893V11.6865C44.0523 12.1666 43.8711 12.375 43.4725 12.4384C43.3637 12.4565 43.246 12.4746 43.1282 12.4928C43.5268 12.8551 43.9254 13.2266 44.315 13.598C44.0251 13.6433 43.7442 13.6886 43.4543 13.7339C43.1101 13.3534 42.7568 12.982 42.4125 12.6105C42.2223 12.6468 42.032 12.6739 41.8418 12.7102C41.8418 13.145 41.8418 13.5708 41.8418 14.0057C41.6425 14.0419 41.4522 14.0781 41.2529 14.1144C41.2529 12.9729 41.2529 11.8314 41.2529 10.69M41.8418 11.1792C41.8418 11.4962 41.8418 11.8133 41.8418 12.1304C42.2857 12.0488 42.7387 11.9764 43.1916 11.9039C43.3728 11.8767 43.4634 11.8133 43.4634 11.5868C43.4634 11.4509 43.4634 11.315 43.4634 11.1792C43.4634 10.9527 43.3819 10.9164 43.1916 10.9527C42.7387 11.0251 42.2947 11.0976 41.8418 11.1792Z" fill="white"/>
<path d="M46.5347 13.2084C46.3354 13.2356 46.1361 13.2628 45.9368 13.29C45.9368 12.3569 45.9368 11.4238 45.9368 10.4816C45.5382 10.5359 45.1486 10.5903 44.75 10.6537C44.75 10.4544 44.75 10.246 44.75 10.0467C45.7375 9.90179 46.734 9.7659 47.7215 9.64813C47.7215 9.84744 47.7215 10.0558 47.7215 10.2551C47.3228 10.3004 46.9242 10.3548 46.5347 10.4091C46.5347 11.3422 46.5347 12.2753 46.5347 13.2175" fill="white"/>
<path d="M43.1647 42.7508C42.8114 42.8142 42.449 42.8867 42.0957 42.9501V43.5843C42.449 43.5118 42.8114 43.4393 43.1647 43.3669V42.7418V42.7508Z" fill="#211551"/>
<path d="M43.1646 49.491C39.1966 50.261 34.9659 51.2847 30.6627 52.6074V55.3886C26.7219 56.5935 22.7086 58.0429 18.7588 59.7823C18.7588 60.2806 18.7588 60.7426 18.7588 61.1503C22.8355 59.2841 27.7094 57.59 31.7951 56.3489V53.7579C35.8084 52.5168 38.3994 51.8101 42.1046 51.0945V53.6945C46.6524 52.8067 51.5082 52.1725 55.0866 51.8917V50.56C51.5444 50.8861 47.504 51.4387 43.1736 52.2903V49.5091L43.1646 49.491Z" fill="#211551"/>
<path d="M31.795 46.1571V45.6136C31.4236 45.7314 31.0431 45.8491 30.6626 45.9669V46.4923C31.0431 46.3746 31.4145 46.2659 31.795 46.1481" fill="#211551"/>
<g style="mix-blend-mode:multiply" opacity="0.65">
<path d="M56.3998 44.9341C53.9448 45.0972 51.4987 45.3418 49.0527 45.6498C51.2904 45.7132 53.7273 45.8491 56.3998 46.13V44.9341Z" fill="#A6A8AB"/>
<path d="M43.1641 42.0805C48.0833 41.1292 52.6129 40.5676 56.3997 40.2958V38.9822C52.6129 39.254 48.0923 39.8156 43.1641 40.7669V42.0805Z" fill="#A6A8AB"/>
<path d="M43.1643 49.491L44.7588 48.0777C36.234 49.2645 29.1768 51.8554 29.1768 51.8554L30.6625 52.6164C34.9657 51.2847 39.1964 50.27 43.1643 49.5V49.491Z" fill="#A6A8AB"/>
<path d="M17.4358 60.3712C18.1153 60.0632 18.7947 59.7642 19.4742 59.4744L19.6191 55.3614C21.0505 54.4736 23.6686 53.0513 25.9425 51.9732C24.2665 52.2813 21.4853 53.0966 19.6735 53.7308L19.755 51.3663C18.8672 51.8555 18.07 52.3084 17.463 52.6889C17.4449 55.3614 17.4268 58.3872 17.4268 60.335V60.3803L17.4358 60.3712Z" fill="#A6A8AB"/>
<path d="M17.481 48.9293C17.481 49.5453 17.481 50.2701 17.481 51.0763C18.1513 50.8408 18.9667 50.5781 19.8001 50.3244L19.8364 49.2645C23.4239 47.7063 27.0657 46.3836 30.6532 45.2784V43.8832C26.2775 45.2331 21.8204 46.9 17.481 48.9293Z" fill="#A6A8AB"/>
</g>
</g>
<defs>
<linearGradient id="paint0_linear_2904_23956" x1="10.4948" y1="39.8245" x2="72.2883" y2="39.8245" gradientUnits="userSpaceOnUse">
<stop offset="0" stop-color="#BBBDBF"/>
<stop offset="0.01" stop-color="#C3C4C6"/>
<stop offset="0.05" stop-color="#DDDEDF"/>
<stop offset="0.09" stop-color="#F0F0F1"/>
<stop offset="0.13" stop-color="#FBFBFB"/>
<stop offset="0.17" stop-color="white"/>
<stop offset="0.2" stop-color="#F1F2F2"/>
<stop offset="0.29" stop-color="#D1D2D4"/>
<stop offset="0.34" stop-color="#C5C7C9"/>
<stop offset="0.36" stop-color="#CBCCCE"/>
<stop offset="0.42" stop-color="#E7E8E9"/>
<stop offset="0.47" stop-color="#F8F9F9"/>
<stop offset="0.52" stop-color="white"/>
<stop offset="0.65" stop-color="#D0D2D3"/>
<stop offset="0.69" stop-color="#C5C7C9"/>
<stop offset="0.74" stop-color="#D9DADC"/>
<stop offset="0.81" stop-color="#EAEBEC"/>
<stop offset="0.85" stop-color="#F1F1F2"/>
<stop offset="0.86" stop-color="#EDEDEE"/>
<stop offset="0.91" stop-color="#D7D8D9"/>
<stop offset="0.95" stop-color="#C9CBCD"/>
<stop offset="0.99" stop-color="#C5C7C9"/>
<stop offset="1" stop-color="#C5C7C9"/>
</linearGradient>
<linearGradient id="paint1_linear_2904_23956" x1="10.2951" y1="19.5135" x2="72.0886" y2="19.5135" gradientUnits="userSpaceOnUse">
<stop offset="0" stop-color="#BBBDBF"/>
<stop offset="0.01" stop-color="#C3C4C6"/>
<stop offset="0.05" stop-color="#DDDEDF"/>
<stop offset="0.09" stop-color="#F0F0F1"/>
<stop offset="0.13" stop-color="#FBFBFB"/>
<stop offset="0.17" stop-color="white"/>
<stop offset="0.2" stop-color="#F1F2F2"/>
<stop offset="0.29" stop-color="#D1D2D4"/>
<stop offset="0.34" stop-color="#C5C7C9"/>
<stop offset="0.36" stop-color="#CBCCCE"/>
<stop offset="0.42" stop-color="#E7E8E9"/>
<stop offset="0.47" stop-color="#F8F9F9"/>
<stop offset="0.52" stop-color="white"/>
<stop offset="0.65" stop-color="#D0D2D3"/>
<stop offset="0.69" stop-color="#C5C7C9"/>
<stop offset="0.74" stop-color="#D9DADC"/>
<stop offset="0.81" stop-color="#EAEBEC"/>
<stop offset="0.85" stop-color="#F1F1F2"/>
<stop offset="0.86" stop-color="#EDEDEE"/>
<stop offset="0.91" stop-color="#D7D8D9"/>
<stop offset="0.95" stop-color="#C9CBCD"/>
<stop offset="0.99" stop-color="#C5C7C9"/>
<stop offset="1" stop-color="#C5C7C9"/>
</linearGradient>
<linearGradient id="paint2_linear_2904_23956" x1="15.3907" y1="13.1705" x2="62.8165" y2="7.44818" gradientUnits="userSpaceOnUse">
<stop offset="0" stop-color="#929497"/>
<stop offset="0.1" stop-color="white"/>
<stop offset="0.14" stop-color="#F2F2F3"/>
<stop offset="0.32" stop-color="#BBBDBF"/>
<stop offset="0.72" stop-color="#BBBDBF"/>
<stop offset="0.84" stop-color="white"/>
<stop offset="0.86" stop-color="#F9FAFA"/>
<stop offset="0.89" stop-color="#EBEBEC"/>
<stop offset="0.92" stop-color="#D2D3D5"/>
<stop offset="0.94" stop-color="#BBBDBF"/>
<stop offset="1" stop-color="#797B7D"/>
</linearGradient>
<linearGradient id="paint3_linear_2904_23956" x1="17.8189" y1="49.6163" x2="56.783" y2="49.6163" gradientUnits="userSpaceOnUse">
<stop offset="0" stop-color="#BBBDBF"/>
<stop offset="0.01" stop-color="#C3C4C6"/>
<stop offset="0.05" stop-color="#DDDEDF"/>
<stop offset="0.09" stop-color="#F0F0F1"/>
<stop offset="0.13" stop-color="#FBFBFB"/>
<stop offset="0.17" stop-color="white"/>
<stop offset="0.2" stop-color="#F1F2F2"/>
<stop offset="0.29" stop-color="#D1D2D4"/>
<stop offset="0.34" stop-color="#C5C7C9"/>
<stop offset="0.36" stop-color="#CBCCCE"/>
<stop offset="0.42" stop-color="#E7E8E9"/>
<stop offset="0.47" stop-color="#F8F9F9"/>
<stop offset="0.52" stop-color="white"/>
<stop offset="0.65" stop-color="#D0D2D3"/>
<stop offset="0.69" stop-color="#C5C7C9"/>
<stop offset="0.74" stop-color="#D9DADC"/>
<stop offset="0.81" stop-color="#EAEBEC"/>
<stop offset="0.85" stop-color="#F1F1F2"/>
<stop offset="0.86" stop-color="#EDEDEE"/>
<stop offset="0.91" stop-color="#D7D8D9"/>
<stop offset="0.95" stop-color="#C9CBCD"/>
<stop offset="0.99" stop-color="#C5C7C9"/>
<stop offset="1" stop-color="#C5C7C9"/>
</linearGradient>
<linearGradient id="paint4_linear_2904_23956" x1="24.2849" y1="63.6869" x2="50.5478" y2="63.6869" gradientUnits="userSpaceOnUse">
<stop offset="0" stop-color="#929497"/>
<stop offset="0.1" stop-color="white"/>
<stop offset="0.14" stop-color="#F2F2F3"/>
<stop offset="0.32" stop-color="#BBBDBF"/>
<stop offset="0.72" stop-color="#BBBDBF"/>
<stop offset="0.84" stop-color="white"/>
<stop offset="0.86" stop-color="#F9FAFA"/>
<stop offset="0.89" stop-color="#EBEBEC"/>
<stop offset="0.92" stop-color="#D2D3D5"/>
<stop offset="0.94" stop-color="#BBBDBF"/>
<stop offset="1" stop-color="#797B7D"/>
</linearGradient>
<clipPath id="clip0_2904_23956">
<rect width="75.4368" height="86" fill="white" transform="translate(0.160156)"/>
</clipPath>
</defs>
</svg>